<?xml version="1.0" encoding="utf-8"?>
<!-- Generator: Adobe Illustrator 16.0.0, SVG Export Plug-In . SVG Version: 6.00 Build 0)  -->
<!DOCTYPE svg PUBLIC "-//W3C//DTD SVG 1.1//EN" "http://www.w3.org/Graphics/SVG/1.1/DTD/svg11.dtd">
<svg version="1.1" id="Layer_1" xmlns="http://www.w3.org/2000/svg" xmlns:xlink="http://www.w3.org/1999/xlink" x="0px" y="0px"
	 width="841.891px" height="595.281px" viewBox="0 0 841.891 595.281" enable-background="new 0 0 841.891 595.281"
	 xml:space="preserve">
<path fill="none" stroke="#3953A4" stroke-width="0.25" stroke-miterlimit="10" d="M226.405,388.328h-5.43l-0.048,10.5h5.573
	l-0.125,23.859l8.761,7v6.139h8.333v-6.139h53.668v6.139h11.416v-6.139h54.249v6.139h10.667v-6.139h8.812V194.412h-52.229
	c-0.527-14.586-12.51-26.25-27.225-26.25c-14.716,0-26.698,11.664-27.226,26.25h-49.227l0.028,36.666h-5.478v11.5h5.575
	L226.405,388.328z"/>
<path fill="none" stroke="#ED1F24" stroke-width="0.25" stroke-miterlimit="10" d="M218.48,218.981
	c-0.082,4.696-3.955,8.436-8.65,8.354l0,0c-4.696-0.082-8.437-3.955-8.354-8.651l0,0c0.082-4.696,3.955-8.436,8.651-8.354l0,0
	C214.822,210.413,218.562,214.285,218.48,218.981L218.48,218.981z"/>
<path fill="none" stroke="#ED1F24" stroke-width="0.25" stroke-miterlimit="10" d="M218.482,255.875
	c0,4.697-3.807,8.504-8.503,8.504l0,0c-4.697,0-8.504-3.807-8.504-8.504l0,0c0-4.697,3.807-8.504,8.504-8.504l0,0
	C214.675,247.371,218.482,251.178,218.482,255.875L218.482,255.875z"/>
<path fill="none" stroke="#ED1F24" stroke-width="0.25" stroke-miterlimit="10" d="M218.482,293.625
	c0,4.696-3.807,8.503-8.503,8.503l0,0c-4.697,0-8.504-3.807-8.504-8.503l0,0c0-4.698,3.807-8.505,8.504-8.505l0,0
	C214.675,285.122,218.482,288.929,218.482,293.625L218.482,293.625z"/>
<path fill="none" stroke="#ED1F24" stroke-width="0.25" stroke-miterlimit="10" d="M218.482,323.251
	c0,4.697-3.807,8.503-8.503,8.503l0,0c-4.697,0-8.504-3.806-8.504-8.503l0,0c0-4.699,3.807-8.505,8.504-8.505l0,0
	C214.675,314.747,218.482,318.552,218.482,323.251L218.482,323.251z"/>
<path fill="none" stroke="#ED1F24" stroke-width="0.25" stroke-miterlimit="10" d="M218.482,360.001
	c0,4.697-3.807,8.503-8.504,8.503l0,0c-4.697,0-8.504-3.806-8.504-8.503l0,0c0-4.699,3.807-8.505,8.504-8.505l0,0
	C214.675,351.497,218.482,355.302,218.482,360.001L218.482,360.001z"/>
<path fill="none" stroke="#3953A4" stroke-width="0.25" stroke-miterlimit="10" d="M419.704,379.576
	c-0.782,0-1.418-0.633-1.418-1.416V203.828c0-0.782,0.636-1.417,1.418-1.417h99.213c0.782,0,1.418,0.635,1.418,1.417V378.16
	c0,0.783-0.636,1.416-1.418,1.416H419.704z"/>
<path fill="none" stroke="#ED1F24" stroke-width="0.25" stroke-miterlimit="10" d="M509.596,149.146H365.945v-74.11
	c0-2.905-4.263-5.26-9.52-5.26H161.884c-5.258,0-9.52,2.354-9.52,5.26v74.11h-14.071c-8.69,0-15.736,9.75-15.736,15.608V168H52.163
	c-4.577,0-8.289,5.723-8.289,11.549v235.56c0,5.824,3.711,10.549,8.289,10.549h70.394v16.398c0,5.859,7.046,10.607,15.736,10.607
	h14.071v80.146c0,2.906,4.262,5.26,9.52,5.26l194.542-0.122c5.257,0,9.52-2.354,9.52-5.26v-80.146h6.46
	c8.691,0,162.93,5.599,162.93-10.468V159.771C535.335,153.913,518.288,149.146,509.596,149.146z"/>
<rect x="164.667" y="195.865" fill="none" stroke="#ED1F24" stroke-width="0.25" stroke-miterlimit="10" width="58" height="8.221"/>
<path fill="none" stroke="#ED1F24" stroke-width="0.25" stroke-miterlimit="10" d="M583.092,464.484V337.529V311.49V124.943
	c0-1.611-0.818-2.916-1.83-2.916h-27.452c-1.011,0-1.83,1.305-1.83,2.916v27.082h-8.563v58h8.563V311.49v26.039v36.344h-8.563
	v26.783h8.563v63.828c0,1.611,0.819,2.916,1.83,2.916h27.452C582.272,467.4,583.092,466.095,583.092,464.484z"/>
<rect x="164.667" y="375.339" fill="none" stroke="#ED1F24" stroke-width="0.25" stroke-miterlimit="10" width="58" height="8.22"/>
<rect x="386.021" y="195.866" fill="none" stroke="#ED1F24" stroke-width="0.25" stroke-miterlimit="10" width="26.784" height="8.22"/>
<path fill="none" stroke="#ED1F24" stroke-width="0.25" stroke-miterlimit="10" d="M586.001,464.484V337.53v-26.038V124.944
	c0-1.613,0.818-2.918,1.829-2.918h27.453c1.011,0,1.83,1.305,1.83,2.918v27.08h8.562v58h-8.562v101.468v26.038v36.345h8.562v26.783
	h-8.562v63.826c0,1.611-0.819,2.918-1.83,2.918H587.83C586.819,467.402,586.001,466.097,586.001,464.484z"/>
<rect x="384.505" y="375.594" fill="none" stroke="#ED1F24" stroke-width="0.25" stroke-miterlimit="10" width="26.783" height="8.219"/>
<path fill="none" stroke="#69BD45" stroke-width="0.25" stroke-miterlimit="10" d="M109.255,373.227c0,2.453-1.983,4.44-4.428,4.44
	h-2.952c-2.445,0-4.43-1.987-4.43-4.44V204.418c0-2.453,1.984-4.442,4.43-4.442h2.952c2.447,0,4.428,1.989,4.428,4.442V373.227z"/>
<ellipse fill="none" stroke="#ED1F24" stroke-width="0.25" stroke-miterlimit="10" cx="305.604" cy="111.099" rx="9.921" ry="9.212"/>
<line fill="none" stroke="#3953A4" stroke-width="0.25" stroke-miterlimit="10" x1="122.556" y1="159.174" x2="122.556" y2="421"/>
<line fill="none" stroke="#3953A4" stroke-width="0.25" stroke-miterlimit="10" x1="498.311" y1="149.146" x2="177.853" y2="149.146"/>
<line fill="none" stroke="#3953A4" stroke-width="0.25" stroke-miterlimit="10" x1="335.445" y1="459.666" x2="177.728" y2="459.666"/>
<ellipse fill="none" stroke="#ED1F24" stroke-width="0.25" stroke-miterlimit="10" cx="290.947" cy="111.057" rx="2.835" ry="4.75"/>
</svg>
