<?xml version="1.0" encoding="utf-8"?>
<!-- Generator: Adobe Illustrator 16.0.0, SVG Export Plug-In . SVG Version: 6.00 Build 0)  -->
<!DOCTYPE svg PUBLIC "-//W3C//DTD SVG 1.1//EN" "http://www.w3.org/Graphics/SVG/1.1/DTD/svg11.dtd">
<svg version="1.1" id="Layer_1" xmlns="http://www.w3.org/2000/svg" xmlns:xlink="http://www.w3.org/1999/xlink" x="0px" y="0px"
	 width="595.279px" height="841.89px" viewBox="0 0 595.279 841.89" enable-background="new 0 0 595.279 841.89"
	 xml:space="preserve">
<circle fill="none" stroke="#000000" stroke-width="0.25" stroke-miterlimit="10" cx="63.57" cy="76.953" r="1.632"/>
<circle fill="none" stroke="#000000" stroke-width="0.25" stroke-miterlimit="10" cx="69.709" cy="76.953" r="1.632"/>
<circle fill="none" stroke="#000000" stroke-width="0.25" stroke-miterlimit="10" cx="100.401" cy="76.953" r="1.631"/>
<circle fill="none" stroke="#000000" stroke-width="0.25" stroke-miterlimit="10" cx="106.54" cy="76.953" r="1.631"/>
<circle fill="none" stroke="#000000" stroke-width="0.25" stroke-miterlimit="10" cx="137.233" cy="76.953" r="1.632"/>
<circle fill="none" stroke="#000000" stroke-width="0.25" stroke-miterlimit="10" cx="143.372" cy="76.953" r="1.632"/>
<circle fill="none" stroke="#000000" stroke-width="0.25" stroke-miterlimit="10" cx="167.926" cy="76.953" r="1.631"/>
<circle fill="none" stroke="#000000" stroke-width="0.25" stroke-miterlimit="10" cx="174.064" cy="76.953" r="1.631"/>
<circle fill="none" stroke="#000000" stroke-width="0.25" stroke-miterlimit="10" cx="204.757" cy="76.953" r="1.632"/>
<circle fill="none" stroke="#000000" stroke-width="0.25" stroke-miterlimit="10" cx="210.896" cy="76.953" r="1.632"/>
<circle fill="none" stroke="#000000" stroke-width="0.25" stroke-miterlimit="10" cx="63.57" cy="83.091" r="1.632"/>
<circle fill="none" stroke="#000000" stroke-width="0.25" stroke-miterlimit="10" cx="69.709" cy="83.091" r="1.632"/>
<circle fill="none" stroke="#000000" stroke-width="0.25" stroke-miterlimit="10" cx="100.401" cy="83.091" r="1.631"/>
<circle fill="none" stroke="#000000" stroke-width="0.25" stroke-miterlimit="10" cx="106.54" cy="83.091" r="1.631"/>
<circle fill="none" stroke="#000000" stroke-width="0.25" stroke-miterlimit="10" cx="137.233" cy="83.091" r="1.632"/>
<circle fill="none" stroke="#000000" stroke-width="0.25" stroke-miterlimit="10" cx="143.372" cy="83.091" r="1.632"/>
<circle fill="none" stroke="#000000" stroke-width="0.25" stroke-miterlimit="10" cx="167.926" cy="83.091" r="1.631"/>
<circle fill="none" stroke="#000000" stroke-width="0.25" stroke-miterlimit="10" cx="174.064" cy="83.091" r="1.631"/>
<circle fill="none" stroke="#000000" stroke-width="0.25" stroke-miterlimit="10" cx="204.757" cy="83.091" r="1.632"/>
<circle fill="none" stroke="#000000" stroke-width="0.25" stroke-miterlimit="10" cx="210.896" cy="83.091" r="1.632"/>
<circle fill="none" stroke="#000000" stroke-width="0.25" stroke-miterlimit="10" cx="63.57" cy="95.369" r="1.632"/>
<circle fill="none" stroke="#000000" stroke-width="0.25" stroke-miterlimit="10" cx="69.709" cy="95.369" r="1.632"/>
<circle fill="none" stroke="#000000" stroke-width="0.25" stroke-miterlimit="10" cx="100.401" cy="95.369" r="1.631"/>
<circle fill="none" stroke="#000000" stroke-width="0.25" stroke-miterlimit="10" cx="106.54" cy="95.369" r="1.631"/>
<circle fill="none" stroke="#000000" stroke-width="0.25" stroke-miterlimit="10" cx="137.233" cy="95.369" r="1.632"/>
<circle fill="none" stroke="#000000" stroke-width="0.25" stroke-miterlimit="10" cx="143.372" cy="95.369" r="1.632"/>
<circle fill="none" stroke="#000000" stroke-width="0.25" stroke-miterlimit="10" cx="167.926" cy="95.369" r="1.631"/>
<circle fill="none" stroke="#000000" stroke-width="0.25" stroke-miterlimit="10" cx="174.064" cy="95.369" r="1.631"/>
<circle fill="none" stroke="#000000" stroke-width="0.25" stroke-miterlimit="10" cx="204.757" cy="95.369" r="1.632"/>
<circle fill="none" stroke="#000000" stroke-width="0.25" stroke-miterlimit="10" cx="210.896" cy="95.369" r="1.632"/>
<circle fill="none" stroke="#000000" stroke-width="0.25" stroke-miterlimit="10" cx="63.57" cy="113.783" r="1.632"/>
<circle fill="none" stroke="#000000" stroke-width="0.25" stroke-miterlimit="10" cx="69.709" cy="113.783" r="1.632"/>
<circle fill="none" stroke="#000000" stroke-width="0.25" stroke-miterlimit="10" cx="100.401" cy="113.783" r="1.631"/>
<circle fill="none" stroke="#000000" stroke-width="0.25" stroke-miterlimit="10" cx="106.54" cy="113.783" r="1.631"/>
<circle fill="none" stroke="#000000" stroke-width="0.25" stroke-miterlimit="10" cx="137.233" cy="113.783" r="1.632"/>
<circle fill="none" stroke="#000000" stroke-width="0.25" stroke-miterlimit="10" cx="143.372" cy="113.783" r="1.632"/>
<circle fill="none" stroke="#000000" stroke-width="0.25" stroke-miterlimit="10" cx="167.926" cy="113.783" r="1.631"/>
<circle fill="none" stroke="#000000" stroke-width="0.25" stroke-miterlimit="10" cx="174.064" cy="113.783" r="1.631"/>
<circle fill="none" stroke="#000000" stroke-width="0.25" stroke-miterlimit="10" cx="204.757" cy="113.783" r="1.632"/>
<circle fill="none" stroke="#000000" stroke-width="0.25" stroke-miterlimit="10" cx="210.896" cy="113.783" r="1.632"/>
<circle fill="none" stroke="#000000" stroke-width="0.25" stroke-miterlimit="10" cx="63.57" cy="119.922" r="1.632"/>
<circle fill="none" stroke="#000000" stroke-width="0.25" stroke-miterlimit="10" cx="69.709" cy="119.922" r="1.632"/>
<circle fill="none" stroke="#000000" stroke-width="0.25" stroke-miterlimit="10" cx="100.401" cy="119.922" r="1.631"/>
<circle fill="none" stroke="#000000" stroke-width="0.25" stroke-miterlimit="10" cx="106.54" cy="119.922" r="1.631"/>
<circle fill="none" stroke="#000000" stroke-width="0.25" stroke-miterlimit="10" cx="137.233" cy="119.922" r="1.632"/>
<circle fill="none" stroke="#000000" stroke-width="0.25" stroke-miterlimit="10" cx="143.372" cy="119.922" r="1.632"/>
<circle fill="none" stroke="#000000" stroke-width="0.25" stroke-miterlimit="10" cx="167.926" cy="119.922" r="1.631"/>
<circle fill="none" stroke="#000000" stroke-width="0.25" stroke-miterlimit="10" cx="174.064" cy="119.922" r="1.631"/>
<circle fill="none" stroke="#000000" stroke-width="0.25" stroke-miterlimit="10" cx="204.757" cy="119.922" r="1.632"/>
<circle fill="none" stroke="#000000" stroke-width="0.25" stroke-miterlimit="10" cx="210.896" cy="119.922" r="1.632"/>
<circle fill="none" stroke="#000000" stroke-width="0.25" stroke-miterlimit="10" cx="63.57" cy="132.199" r="1.632"/>
<circle fill="none" stroke="#000000" stroke-width="0.25" stroke-miterlimit="10" cx="69.709" cy="132.199" r="1.632"/>
<circle fill="none" stroke="#000000" stroke-width="0.25" stroke-miterlimit="10" cx="100.401" cy="132.199" r="1.631"/>
<circle fill="none" stroke="#000000" stroke-width="0.25" stroke-miterlimit="10" cx="106.54" cy="132.199" r="1.631"/>
<circle fill="none" stroke="#000000" stroke-width="0.25" stroke-miterlimit="10" cx="137.233" cy="132.199" r="1.632"/>
<circle fill="none" stroke="#000000" stroke-width="0.25" stroke-miterlimit="10" cx="143.372" cy="132.199" r="1.632"/>
<circle fill="none" stroke="#000000" stroke-width="0.25" stroke-miterlimit="10" cx="167.926" cy="132.199" r="1.631"/>
<circle fill="none" stroke="#000000" stroke-width="0.25" stroke-miterlimit="10" cx="174.064" cy="132.199" r="1.631"/>
<circle fill="none" stroke="#000000" stroke-width="0.25" stroke-miterlimit="10" cx="204.757" cy="132.199" r="1.632"/>
<circle fill="none" stroke="#000000" stroke-width="0.25" stroke-miterlimit="10" cx="210.896" cy="132.199" r="1.632"/>
<circle fill="none" stroke="#000000" stroke-width="0.25" stroke-miterlimit="10" cx="63.57" cy="138.338" r="1.632"/>
<circle fill="none" stroke="#000000" stroke-width="0.25" stroke-miterlimit="10" cx="69.709" cy="138.338" r="1.632"/>
<circle fill="none" stroke="#000000" stroke-width="0.25" stroke-miterlimit="10" cx="100.401" cy="138.338" r="1.631"/>
<circle fill="none" stroke="#000000" stroke-width="0.25" stroke-miterlimit="10" cx="106.54" cy="138.338" r="1.631"/>
<circle fill="none" stroke="#000000" stroke-width="0.25" stroke-miterlimit="10" cx="137.233" cy="138.338" r="1.632"/>
<circle fill="none" stroke="#000000" stroke-width="0.25" stroke-miterlimit="10" cx="143.372" cy="138.338" r="1.632"/>
<circle fill="none" stroke="#000000" stroke-width="0.25" stroke-miterlimit="10" cx="167.926" cy="138.338" r="1.631"/>
<circle fill="none" stroke="#000000" stroke-width="0.25" stroke-miterlimit="10" cx="174.064" cy="138.338" r="1.631"/>
<circle fill="none" stroke="#000000" stroke-width="0.25" stroke-miterlimit="10" cx="204.757" cy="138.338" r="1.632"/>
<circle fill="none" stroke="#000000" stroke-width="0.25" stroke-miterlimit="10" cx="210.896" cy="138.338" r="1.632"/>
<circle fill="none" stroke="#000000" stroke-width="0.25" stroke-miterlimit="10" cx="63.57" cy="150.615" r="1.632"/>
<circle fill="none" stroke="#000000" stroke-width="0.25" stroke-miterlimit="10" cx="69.709" cy="150.615" r="1.632"/>
<circle fill="none" stroke="#000000" stroke-width="0.25" stroke-miterlimit="10" cx="100.401" cy="150.615" r="1.631"/>
<circle fill="none" stroke="#000000" stroke-width="0.25" stroke-miterlimit="10" cx="106.54" cy="150.615" r="1.631"/>
<circle fill="none" stroke="#000000" stroke-width="0.25" stroke-miterlimit="10" cx="137.233" cy="150.615" r="1.632"/>
<circle fill="none" stroke="#000000" stroke-width="0.25" stroke-miterlimit="10" cx="143.372" cy="150.615" r="1.632"/>
<circle fill="none" stroke="#000000" stroke-width="0.25" stroke-miterlimit="10" cx="167.926" cy="150.615" r="1.631"/>
<circle fill="none" stroke="#000000" stroke-width="0.25" stroke-miterlimit="10" cx="174.064" cy="150.615" r="1.631"/>
<circle fill="none" stroke="#000000" stroke-width="0.25" stroke-miterlimit="10" cx="204.757" cy="150.615" r="1.632"/>
<circle fill="none" stroke="#000000" stroke-width="0.25" stroke-miterlimit="10" cx="210.896" cy="150.615" r="1.632"/>
<circle fill="none" stroke="#000000" stroke-width="0.25" stroke-miterlimit="10" cx="63.57" cy="101.506" r="1.632"/>
<circle fill="none" stroke="#000000" stroke-width="0.25" stroke-miterlimit="10" cx="69.709" cy="101.506" r="1.632"/>
<circle fill="none" stroke="#000000" stroke-width="0.25" stroke-miterlimit="10" cx="100.401" cy="101.506" r="1.631"/>
<circle fill="none" stroke="#000000" stroke-width="0.25" stroke-miterlimit="10" cx="106.54" cy="101.506" r="1.631"/>
<circle fill="none" stroke="#000000" stroke-width="0.25" stroke-miterlimit="10" cx="137.233" cy="101.506" r="1.632"/>
<circle fill="none" stroke="#000000" stroke-width="0.25" stroke-miterlimit="10" cx="143.372" cy="101.506" r="1.632"/>
<circle fill="none" stroke="#000000" stroke-width="0.25" stroke-miterlimit="10" cx="167.926" cy="101.506" r="1.631"/>
<circle fill="none" stroke="#000000" stroke-width="0.25" stroke-miterlimit="10" cx="174.064" cy="101.506" r="1.631"/>
<circle fill="none" stroke="#000000" stroke-width="0.25" stroke-miterlimit="10" cx="204.757" cy="101.506" r="1.632"/>
<circle fill="none" stroke="#000000" stroke-width="0.25" stroke-miterlimit="10" cx="210.896" cy="101.506" r="1.632"/>
<circle fill="none" stroke="#000000" stroke-width="0.25" stroke-miterlimit="10" cx="63.57" cy="156.754" r="1.632"/>
<circle fill="none" stroke="#000000" stroke-width="0.25" stroke-miterlimit="10" cx="69.709" cy="156.754" r="1.632"/>
<circle fill="none" stroke="#000000" stroke-width="0.25" stroke-miterlimit="10" cx="100.401" cy="156.754" r="1.631"/>
<circle fill="none" stroke="#000000" stroke-width="0.25" stroke-miterlimit="10" cx="106.54" cy="156.754" r="1.631"/>
<circle fill="none" stroke="#000000" stroke-width="0.25" stroke-miterlimit="10" cx="137.233" cy="156.754" r="1.632"/>
<circle fill="none" stroke="#000000" stroke-width="0.25" stroke-miterlimit="10" cx="143.372" cy="156.754" r="1.632"/>
<circle fill="none" stroke="#000000" stroke-width="0.25" stroke-miterlimit="10" cx="167.926" cy="156.754" r="1.631"/>
<circle fill="none" stroke="#000000" stroke-width="0.25" stroke-miterlimit="10" cx="174.064" cy="156.754" r="1.631"/>
<circle fill="none" stroke="#000000" stroke-width="0.25" stroke-miterlimit="10" cx="204.757" cy="156.754" r="1.632"/>
<circle fill="none" stroke="#000000" stroke-width="0.25" stroke-miterlimit="10" cx="210.896" cy="156.754" r="1.632"/>
<circle fill="none" stroke="#000000" stroke-width="0.25" stroke-miterlimit="10" cx="63.57" cy="169.031" r="1.632"/>
<circle fill="none" stroke="#000000" stroke-width="0.25" stroke-miterlimit="10" cx="69.709" cy="169.031" r="1.632"/>
<circle fill="none" stroke="#000000" stroke-width="0.25" stroke-miterlimit="10" cx="100.401" cy="169.031" r="1.631"/>
<circle fill="none" stroke="#000000" stroke-width="0.25" stroke-miterlimit="10" cx="106.54" cy="169.031" r="1.631"/>
<circle fill="none" stroke="#000000" stroke-width="0.25" stroke-miterlimit="10" cx="137.233" cy="169.031" r="1.632"/>
<circle fill="none" stroke="#000000" stroke-width="0.25" stroke-miterlimit="10" cx="143.372" cy="169.031" r="1.632"/>
<circle fill="none" stroke="#000000" stroke-width="0.25" stroke-miterlimit="10" cx="167.926" cy="169.031" r="1.631"/>
<circle fill="none" stroke="#000000" stroke-width="0.25" stroke-miterlimit="10" cx="174.064" cy="169.031" r="1.631"/>
<circle fill="none" stroke="#000000" stroke-width="0.25" stroke-miterlimit="10" cx="204.757" cy="169.031" r="1.632"/>
<circle fill="none" stroke="#000000" stroke-width="0.25" stroke-miterlimit="10" cx="210.896" cy="169.031" r="1.632"/>
<circle fill="none" stroke="#000000" stroke-width="0.25" stroke-miterlimit="10" cx="63.57" cy="175.17" r="1.632"/>
<circle fill="none" stroke="#000000" stroke-width="0.25" stroke-miterlimit="10" cx="69.709" cy="175.17" r="1.632"/>
<circle fill="none" stroke="#000000" stroke-width="0.25" stroke-miterlimit="10" cx="100.401" cy="175.17" r="1.631"/>
<circle fill="none" stroke="#000000" stroke-width="0.25" stroke-miterlimit="10" cx="106.54" cy="175.17" r="1.631"/>
<circle fill="none" stroke="#000000" stroke-width="0.25" stroke-miterlimit="10" cx="137.233" cy="175.17" r="1.632"/>
<circle fill="none" stroke="#000000" stroke-width="0.25" stroke-miterlimit="10" cx="143.372" cy="175.17" r="1.632"/>
<circle fill="none" stroke="#000000" stroke-width="0.25" stroke-miterlimit="10" cx="167.926" cy="175.17" r="1.631"/>
<circle fill="none" stroke="#000000" stroke-width="0.25" stroke-miterlimit="10" cx="174.064" cy="175.17" r="1.631"/>
<circle fill="none" stroke="#000000" stroke-width="0.25" stroke-miterlimit="10" cx="204.757" cy="175.17" r="1.632"/>
<circle fill="none" stroke="#000000" stroke-width="0.25" stroke-miterlimit="10" cx="210.896" cy="175.17" r="1.632"/>
<circle fill="none" stroke="#000000" stroke-width="0.25" stroke-miterlimit="10" cx="63.57" cy="187.447" r="1.632"/>
<circle fill="none" stroke="#000000" stroke-width="0.25" stroke-miterlimit="10" cx="69.709" cy="187.447" r="1.632"/>
<circle fill="none" stroke="#000000" stroke-width="0.25" stroke-miterlimit="10" cx="100.401" cy="187.447" r="1.631"/>
<circle fill="none" stroke="#000000" stroke-width="0.25" stroke-miterlimit="10" cx="106.54" cy="187.447" r="1.631"/>
<circle fill="none" stroke="#000000" stroke-width="0.25" stroke-miterlimit="10" cx="137.233" cy="187.447" r="1.632"/>
<circle fill="none" stroke="#000000" stroke-width="0.25" stroke-miterlimit="10" cx="143.372" cy="187.447" r="1.632"/>
<circle fill="none" stroke="#000000" stroke-width="0.25" stroke-miterlimit="10" cx="167.926" cy="187.447" r="1.631"/>
<circle fill="none" stroke="#000000" stroke-width="0.25" stroke-miterlimit="10" cx="174.064" cy="187.447" r="1.631"/>
<circle fill="none" stroke="#000000" stroke-width="0.25" stroke-miterlimit="10" cx="204.757" cy="187.447" r="1.632"/>
<circle fill="none" stroke="#000000" stroke-width="0.25" stroke-miterlimit="10" cx="210.896" cy="187.447" r="1.632"/>
<circle fill="none" stroke="#000000" stroke-width="0.25" stroke-miterlimit="10" cx="63.57" cy="193.586" r="1.632"/>
<circle fill="none" stroke="#000000" stroke-width="0.25" stroke-miterlimit="10" cx="69.709" cy="193.586" r="1.632"/>
<circle fill="none" stroke="#000000" stroke-width="0.25" stroke-miterlimit="10" cx="100.401" cy="193.586" r="1.631"/>
<circle fill="none" stroke="#000000" stroke-width="0.25" stroke-miterlimit="10" cx="106.54" cy="193.586" r="1.631"/>
<circle fill="none" stroke="#000000" stroke-width="0.25" stroke-miterlimit="10" cx="137.233" cy="193.586" r="1.632"/>
<circle fill="none" stroke="#000000" stroke-width="0.25" stroke-miterlimit="10" cx="143.372" cy="193.586" r="1.632"/>
<circle fill="none" stroke="#000000" stroke-width="0.25" stroke-miterlimit="10" cx="167.926" cy="193.586" r="1.631"/>
<circle fill="none" stroke="#000000" stroke-width="0.25" stroke-miterlimit="10" cx="174.064" cy="193.586" r="1.631"/>
<circle fill="none" stroke="#000000" stroke-width="0.25" stroke-miterlimit="10" cx="204.757" cy="193.586" r="1.632"/>
<circle fill="none" stroke="#000000" stroke-width="0.25" stroke-miterlimit="10" cx="210.896" cy="193.586" r="1.632"/>
<circle fill="none" stroke="#000000" stroke-width="0.25" stroke-miterlimit="10" cx="63.57" cy="205.863" r="1.632"/>
<circle fill="none" stroke="#000000" stroke-width="0.25" stroke-miterlimit="10" cx="69.709" cy="205.863" r="1.632"/>
<circle fill="none" stroke="#000000" stroke-width="0.25" stroke-miterlimit="10" cx="100.401" cy="205.863" r="1.631"/>
<circle fill="none" stroke="#000000" stroke-width="0.25" stroke-miterlimit="10" cx="106.54" cy="205.863" r="1.631"/>
<circle fill="none" stroke="#000000" stroke-width="0.25" stroke-miterlimit="10" cx="137.233" cy="205.863" r="1.632"/>
<circle fill="none" stroke="#000000" stroke-width="0.25" stroke-miterlimit="10" cx="143.372" cy="205.863" r="1.632"/>
<circle fill="none" stroke="#000000" stroke-width="0.25" stroke-miterlimit="10" cx="167.926" cy="205.863" r="1.631"/>
<circle fill="none" stroke="#000000" stroke-width="0.25" stroke-miterlimit="10" cx="174.064" cy="205.863" r="1.631"/>
<circle fill="none" stroke="#000000" stroke-width="0.25" stroke-miterlimit="10" cx="204.757" cy="205.863" r="1.632"/>
<circle fill="none" stroke="#000000" stroke-width="0.25" stroke-miterlimit="10" cx="210.896" cy="205.863" r="1.632"/>
<circle fill="none" stroke="#000000" stroke-width="0.25" stroke-miterlimit="10" cx="63.57" cy="212.002" r="1.632"/>
<circle fill="none" stroke="#000000" stroke-width="0.25" stroke-miterlimit="10" cx="69.709" cy="212.002" r="1.632"/>
<circle fill="none" stroke="#000000" stroke-width="0.25" stroke-miterlimit="10" cx="100.401" cy="212.002" r="1.631"/>
<circle fill="none" stroke="#000000" stroke-width="0.25" stroke-miterlimit="10" cx="106.54" cy="212.002" r="1.631"/>
<circle fill="none" stroke="#000000" stroke-width="0.25" stroke-miterlimit="10" cx="137.233" cy="212.002" r="1.632"/>
<circle fill="none" stroke="#000000" stroke-width="0.25" stroke-miterlimit="10" cx="143.372" cy="212.002" r="1.632"/>
<circle fill="none" stroke="#000000" stroke-width="0.25" stroke-miterlimit="10" cx="167.926" cy="212.002" r="1.631"/>
<circle fill="none" stroke="#000000" stroke-width="0.25" stroke-miterlimit="10" cx="174.064" cy="212.002" r="1.631"/>
<circle fill="none" stroke="#000000" stroke-width="0.25" stroke-miterlimit="10" cx="204.757" cy="212.002" r="1.632"/>
<circle fill="none" stroke="#000000" stroke-width="0.25" stroke-miterlimit="10" cx="210.896" cy="212.002" r="1.632"/>
<circle fill="none" stroke="#000000" stroke-width="0.25" stroke-miterlimit="10" cx="63.57" cy="224.279" r="1.632"/>
<circle fill="none" stroke="#000000" stroke-width="0.25" stroke-miterlimit="10" cx="69.709" cy="224.279" r="1.632"/>
<circle fill="none" stroke="#000000" stroke-width="0.25" stroke-miterlimit="10" cx="100.401" cy="224.279" r="1.631"/>
<circle fill="none" stroke="#000000" stroke-width="0.25" stroke-miterlimit="10" cx="106.54" cy="224.279" r="1.631"/>
<circle fill="none" stroke="#000000" stroke-width="0.25" stroke-miterlimit="10" cx="137.233" cy="224.279" r="1.632"/>
<circle fill="none" stroke="#000000" stroke-width="0.25" stroke-miterlimit="10" cx="143.372" cy="224.279" r="1.632"/>
<circle fill="none" stroke="#000000" stroke-width="0.25" stroke-miterlimit="10" cx="167.926" cy="224.279" r="1.631"/>
<circle fill="none" stroke="#000000" stroke-width="0.25" stroke-miterlimit="10" cx="174.064" cy="224.279" r="1.631"/>
<circle fill="none" stroke="#000000" stroke-width="0.25" stroke-miterlimit="10" cx="204.757" cy="224.279" r="1.632"/>
<circle fill="none" stroke="#000000" stroke-width="0.25" stroke-miterlimit="10" cx="210.896" cy="224.279" r="1.632"/>
<circle fill="none" stroke="#000000" stroke-width="0.25" stroke-miterlimit="10" cx="63.57" cy="230.418" r="1.632"/>
<circle fill="none" stroke="#000000" stroke-width="0.25" stroke-miterlimit="10" cx="69.709" cy="230.418" r="1.632"/>
<circle fill="none" stroke="#000000" stroke-width="0.25" stroke-miterlimit="10" cx="100.401" cy="230.418" r="1.631"/>
<circle fill="none" stroke="#000000" stroke-width="0.25" stroke-miterlimit="10" cx="106.54" cy="230.418" r="1.631"/>
<circle fill="none" stroke="#000000" stroke-width="0.25" stroke-miterlimit="10" cx="137.233" cy="230.418" r="1.632"/>
<circle fill="none" stroke="#000000" stroke-width="0.25" stroke-miterlimit="10" cx="143.372" cy="230.418" r="1.632"/>
<circle fill="none" stroke="#000000" stroke-width="0.25" stroke-miterlimit="10" cx="167.926" cy="230.418" r="1.631"/>
<circle fill="none" stroke="#000000" stroke-width="0.25" stroke-miterlimit="10" cx="174.064" cy="230.418" r="1.631"/>
<circle fill="none" stroke="#000000" stroke-width="0.25" stroke-miterlimit="10" cx="204.757" cy="230.418" r="1.632"/>
<circle fill="none" stroke="#000000" stroke-width="0.25" stroke-miterlimit="10" cx="210.896" cy="230.418" r="1.632"/>
<circle fill="none" stroke="#000000" stroke-width="0.25" stroke-miterlimit="10" cx="63.57" cy="242.693" r="1.632"/>
<circle fill="none" stroke="#000000" stroke-width="0.25" stroke-miterlimit="10" cx="69.709" cy="242.693" r="1.632"/>
<circle fill="none" stroke="#000000" stroke-width="0.25" stroke-miterlimit="10" cx="100.401" cy="242.693" r="1.631"/>
<circle fill="none" stroke="#000000" stroke-width="0.25" stroke-miterlimit="10" cx="106.54" cy="242.693" r="1.631"/>
<circle fill="none" stroke="#000000" stroke-width="0.25" stroke-miterlimit="10" cx="137.233" cy="242.693" r="1.632"/>
<circle fill="none" stroke="#000000" stroke-width="0.25" stroke-miterlimit="10" cx="143.372" cy="242.693" r="1.632"/>
<circle fill="none" stroke="#000000" stroke-width="0.25" stroke-miterlimit="10" cx="167.926" cy="242.693" r="1.631"/>
<circle fill="none" stroke="#000000" stroke-width="0.25" stroke-miterlimit="10" cx="174.064" cy="242.693" r="1.631"/>
<circle fill="none" stroke="#000000" stroke-width="0.25" stroke-miterlimit="10" cx="204.757" cy="242.693" r="1.632"/>
<circle fill="none" stroke="#000000" stroke-width="0.25" stroke-miterlimit="10" cx="210.896" cy="242.693" r="1.632"/>
<circle fill="none" stroke="#000000" stroke-width="0.25" stroke-miterlimit="10" cx="63.57" cy="248.832" r="1.632"/>
<circle fill="none" stroke="#000000" stroke-width="0.25" stroke-miterlimit="10" cx="69.709" cy="248.832" r="1.632"/>
<circle fill="none" stroke="#000000" stroke-width="0.25" stroke-miterlimit="10" cx="100.401" cy="248.832" r="1.631"/>
<circle fill="none" stroke="#000000" stroke-width="0.25" stroke-miterlimit="10" cx="106.54" cy="248.832" r="1.631"/>
<circle fill="none" stroke="#000000" stroke-width="0.25" stroke-miterlimit="10" cx="137.233" cy="248.832" r="1.632"/>
<circle fill="none" stroke="#000000" stroke-width="0.25" stroke-miterlimit="10" cx="143.372" cy="248.832" r="1.632"/>
<circle fill="none" stroke="#000000" stroke-width="0.25" stroke-miterlimit="10" cx="167.926" cy="248.832" r="1.631"/>
<circle fill="none" stroke="#000000" stroke-width="0.25" stroke-miterlimit="10" cx="174.064" cy="248.832" r="1.631"/>
<circle fill="none" stroke="#000000" stroke-width="0.25" stroke-miterlimit="10" cx="204.757" cy="248.832" r="1.632"/>
<circle fill="none" stroke="#000000" stroke-width="0.25" stroke-miterlimit="10" cx="210.896" cy="248.832" r="1.632"/>
<circle fill="none" stroke="#000000" stroke-width="0.25" stroke-miterlimit="10" cx="63.57" cy="261.109" r="1.632"/>
<circle fill="none" stroke="#000000" stroke-width="0.25" stroke-miterlimit="10" cx="69.709" cy="261.109" r="1.632"/>
<circle fill="none" stroke="#000000" stroke-width="0.25" stroke-miterlimit="10" cx="100.401" cy="261.109" r="1.631"/>
<circle fill="none" stroke="#000000" stroke-width="0.25" stroke-miterlimit="10" cx="106.54" cy="261.109" r="1.631"/>
<circle fill="none" stroke="#000000" stroke-width="0.25" stroke-miterlimit="10" cx="137.233" cy="261.109" r="1.632"/>
<circle fill="none" stroke="#000000" stroke-width="0.25" stroke-miterlimit="10" cx="143.372" cy="261.109" r="1.632"/>
<circle fill="none" stroke="#000000" stroke-width="0.25" stroke-miterlimit="10" cx="167.926" cy="261.109" r="1.631"/>
<circle fill="none" stroke="#000000" stroke-width="0.25" stroke-miterlimit="10" cx="174.064" cy="261.109" r="1.631"/>
<circle fill="none" stroke="#000000" stroke-width="0.25" stroke-miterlimit="10" cx="204.757" cy="261.109" r="1.632"/>
<circle fill="none" stroke="#000000" stroke-width="0.25" stroke-miterlimit="10" cx="210.896" cy="261.109" r="1.632"/>
<circle fill="none" stroke="#000000" stroke-width="0.25" stroke-miterlimit="10" cx="63.57" cy="267.248" r="1.632"/>
<circle fill="none" stroke="#000000" stroke-width="0.25" stroke-miterlimit="10" cx="69.709" cy="267.248" r="1.632"/>
<circle fill="none" stroke="#000000" stroke-width="0.25" stroke-miterlimit="10" cx="100.401" cy="267.248" r="1.631"/>
<circle fill="none" stroke="#000000" stroke-width="0.25" stroke-miterlimit="10" cx="106.54" cy="267.248" r="1.631"/>
<circle fill="none" stroke="#000000" stroke-width="0.25" stroke-miterlimit="10" cx="137.233" cy="267.248" r="1.632"/>
<circle fill="none" stroke="#000000" stroke-width="0.25" stroke-miterlimit="10" cx="143.372" cy="267.248" r="1.632"/>
<circle fill="none" stroke="#000000" stroke-width="0.25" stroke-miterlimit="10" cx="167.926" cy="267.248" r="1.631"/>
<circle fill="none" stroke="#000000" stroke-width="0.25" stroke-miterlimit="10" cx="174.064" cy="267.248" r="1.631"/>
<circle fill="none" stroke="#000000" stroke-width="0.25" stroke-miterlimit="10" cx="204.757" cy="267.248" r="1.632"/>
<circle fill="none" stroke="#000000" stroke-width="0.25" stroke-miterlimit="10" cx="210.896" cy="267.248" r="1.632"/>
<circle fill="none" stroke="#000000" stroke-width="0.25" stroke-miterlimit="10" cx="63.445" cy="282.839" r="1.632"/>
<circle fill="none" stroke="#000000" stroke-width="0.25" stroke-miterlimit="10" cx="69.584" cy="282.839" r="1.632"/>
<circle fill="none" stroke="#000000" stroke-width="0.25" stroke-miterlimit="10" cx="100.276" cy="282.839" r="1.631"/>
<circle fill="none" stroke="#000000" stroke-width="0.25" stroke-miterlimit="10" cx="106.415" cy="282.839" r="1.631"/>
<circle fill="none" stroke="#000000" stroke-width="0.25" stroke-miterlimit="10" cx="137.108" cy="282.839" r="1.632"/>
<circle fill="none" stroke="#000000" stroke-width="0.25" stroke-miterlimit="10" cx="143.247" cy="282.839" r="1.632"/>
<circle fill="none" stroke="#000000" stroke-width="0.25" stroke-miterlimit="10" cx="167.801" cy="282.839" r="1.631"/>
<circle fill="none" stroke="#000000" stroke-width="0.25" stroke-miterlimit="10" cx="173.939" cy="282.839" r="1.631"/>
<circle fill="none" stroke="#000000" stroke-width="0.25" stroke-miterlimit="10" cx="204.632" cy="282.839" r="1.632"/>
<circle fill="none" stroke="#000000" stroke-width="0.25" stroke-miterlimit="10" cx="210.771" cy="282.839" r="1.632"/>
<circle fill="none" stroke="#000000" stroke-width="0.25" stroke-miterlimit="10" cx="63.445" cy="288.977" r="1.632"/>
<circle fill="none" stroke="#000000" stroke-width="0.25" stroke-miterlimit="10" cx="69.584" cy="288.977" r="1.632"/>
<circle fill="none" stroke="#000000" stroke-width="0.25" stroke-miterlimit="10" cx="100.276" cy="288.977" r="1.631"/>
<circle fill="none" stroke="#000000" stroke-width="0.25" stroke-miterlimit="10" cx="106.415" cy="288.977" r="1.631"/>
<circle fill="none" stroke="#000000" stroke-width="0.25" stroke-miterlimit="10" cx="137.108" cy="288.977" r="1.632"/>
<circle fill="none" stroke="#000000" stroke-width="0.25" stroke-miterlimit="10" cx="143.247" cy="288.977" r="1.632"/>
<circle fill="none" stroke="#000000" stroke-width="0.25" stroke-miterlimit="10" cx="167.801" cy="288.977" r="1.631"/>
<circle fill="none" stroke="#000000" stroke-width="0.25" stroke-miterlimit="10" cx="173.939" cy="288.977" r="1.631"/>
<circle fill="none" stroke="#000000" stroke-width="0.25" stroke-miterlimit="10" cx="204.632" cy="288.977" r="1.632"/>
<circle fill="none" stroke="#000000" stroke-width="0.25" stroke-miterlimit="10" cx="210.771" cy="288.977" r="1.632"/>
<circle fill="none" stroke="#000000" stroke-width="0.25" stroke-miterlimit="10" cx="63.445" cy="301.255" r="1.632"/>
<circle fill="none" stroke="#000000" stroke-width="0.25" stroke-miterlimit="10" cx="69.584" cy="301.255" r="1.632"/>
<circle fill="none" stroke="#000000" stroke-width="0.25" stroke-miterlimit="10" cx="100.276" cy="301.255" r="1.631"/>
<circle fill="none" stroke="#000000" stroke-width="0.25" stroke-miterlimit="10" cx="106.415" cy="301.255" r="1.631"/>
<circle fill="none" stroke="#000000" stroke-width="0.25" stroke-miterlimit="10" cx="137.108" cy="301.255" r="1.632"/>
<circle fill="none" stroke="#000000" stroke-width="0.25" stroke-miterlimit="10" cx="143.247" cy="301.255" r="1.632"/>
<circle fill="none" stroke="#000000" stroke-width="0.25" stroke-miterlimit="10" cx="167.801" cy="301.255" r="1.631"/>
<circle fill="none" stroke="#000000" stroke-width="0.25" stroke-miterlimit="10" cx="173.939" cy="301.255" r="1.631"/>
<circle fill="none" stroke="#000000" stroke-width="0.25" stroke-miterlimit="10" cx="204.632" cy="301.255" r="1.632"/>
<circle fill="none" stroke="#000000" stroke-width="0.25" stroke-miterlimit="10" cx="210.771" cy="301.255" r="1.632"/>
<circle fill="none" stroke="#000000" stroke-width="0.25" stroke-miterlimit="10" cx="63.445" cy="319.669" r="1.632"/>
<circle fill="none" stroke="#000000" stroke-width="0.25" stroke-miterlimit="10" cx="69.584" cy="319.669" r="1.632"/>
<circle fill="none" stroke="#000000" stroke-width="0.25" stroke-miterlimit="10" cx="100.276" cy="319.669" r="1.631"/>
<circle fill="none" stroke="#000000" stroke-width="0.25" stroke-miterlimit="10" cx="106.415" cy="319.669" r="1.631"/>
<circle fill="none" stroke="#000000" stroke-width="0.25" stroke-miterlimit="10" cx="137.108" cy="319.669" r="1.632"/>
<circle fill="none" stroke="#000000" stroke-width="0.25" stroke-miterlimit="10" cx="143.247" cy="319.669" r="1.632"/>
<circle fill="none" stroke="#000000" stroke-width="0.25" stroke-miterlimit="10" cx="167.801" cy="319.669" r="1.631"/>
<circle fill="none" stroke="#000000" stroke-width="0.25" stroke-miterlimit="10" cx="173.939" cy="319.669" r="1.631"/>
<circle fill="none" stroke="#000000" stroke-width="0.25" stroke-miterlimit="10" cx="204.632" cy="319.669" r="1.632"/>
<circle fill="none" stroke="#000000" stroke-width="0.25" stroke-miterlimit="10" cx="210.771" cy="319.669" r="1.632"/>
<circle fill="none" stroke="#000000" stroke-width="0.25" stroke-miterlimit="10" cx="63.445" cy="325.808" r="1.632"/>
<circle fill="none" stroke="#000000" stroke-width="0.25" stroke-miterlimit="10" cx="69.584" cy="325.808" r="1.632"/>
<circle fill="none" stroke="#000000" stroke-width="0.25" stroke-miterlimit="10" cx="100.276" cy="325.808" r="1.631"/>
<circle fill="none" stroke="#000000" stroke-width="0.25" stroke-miterlimit="10" cx="106.415" cy="325.808" r="1.631"/>
<circle fill="none" stroke="#000000" stroke-width="0.25" stroke-miterlimit="10" cx="137.108" cy="325.808" r="1.632"/>
<circle fill="none" stroke="#000000" stroke-width="0.25" stroke-miterlimit="10" cx="143.247" cy="325.808" r="1.632"/>
<circle fill="none" stroke="#000000" stroke-width="0.25" stroke-miterlimit="10" cx="167.801" cy="325.808" r="1.631"/>
<circle fill="none" stroke="#000000" stroke-width="0.25" stroke-miterlimit="10" cx="173.939" cy="325.808" r="1.631"/>
<circle fill="none" stroke="#000000" stroke-width="0.25" stroke-miterlimit="10" cx="204.632" cy="325.808" r="1.632"/>
<circle fill="none" stroke="#000000" stroke-width="0.25" stroke-miterlimit="10" cx="210.771" cy="325.808" r="1.632"/>
<circle fill="none" stroke="#000000" stroke-width="0.25" stroke-miterlimit="10" cx="63.445" cy="338.085" r="1.632"/>
<circle fill="none" stroke="#000000" stroke-width="0.25" stroke-miterlimit="10" cx="69.584" cy="338.085" r="1.632"/>
<circle fill="none" stroke="#000000" stroke-width="0.25" stroke-miterlimit="10" cx="100.276" cy="338.085" r="1.631"/>
<circle fill="none" stroke="#000000" stroke-width="0.25" stroke-miterlimit="10" cx="106.415" cy="338.085" r="1.631"/>
<circle fill="none" stroke="#000000" stroke-width="0.25" stroke-miterlimit="10" cx="137.108" cy="338.085" r="1.632"/>
<circle fill="none" stroke="#000000" stroke-width="0.25" stroke-miterlimit="10" cx="143.247" cy="338.085" r="1.632"/>
<circle fill="none" stroke="#000000" stroke-width="0.25" stroke-miterlimit="10" cx="167.801" cy="338.085" r="1.631"/>
<circle fill="none" stroke="#000000" stroke-width="0.25" stroke-miterlimit="10" cx="173.939" cy="338.085" r="1.631"/>
<circle fill="none" stroke="#000000" stroke-width="0.25" stroke-miterlimit="10" cx="204.632" cy="338.085" r="1.632"/>
<circle fill="none" stroke="#000000" stroke-width="0.25" stroke-miterlimit="10" cx="210.771" cy="338.085" r="1.632"/>
<circle fill="none" stroke="#000000" stroke-width="0.25" stroke-miterlimit="10" cx="63.445" cy="344.224" r="1.632"/>
<circle fill="none" stroke="#000000" stroke-width="0.25" stroke-miterlimit="10" cx="69.584" cy="344.224" r="1.632"/>
<circle fill="none" stroke="#000000" stroke-width="0.25" stroke-miterlimit="10" cx="100.276" cy="344.224" r="1.631"/>
<circle fill="none" stroke="#000000" stroke-width="0.25" stroke-miterlimit="10" cx="106.415" cy="344.224" r="1.631"/>
<circle fill="none" stroke="#000000" stroke-width="0.25" stroke-miterlimit="10" cx="137.108" cy="344.224" r="1.632"/>
<circle fill="none" stroke="#000000" stroke-width="0.25" stroke-miterlimit="10" cx="143.247" cy="344.224" r="1.632"/>
<circle fill="none" stroke="#000000" stroke-width="0.25" stroke-miterlimit="10" cx="167.801" cy="344.224" r="1.631"/>
<circle fill="none" stroke="#000000" stroke-width="0.25" stroke-miterlimit="10" cx="173.939" cy="344.224" r="1.631"/>
<circle fill="none" stroke="#000000" stroke-width="0.25" stroke-miterlimit="10" cx="204.632" cy="344.224" r="1.632"/>
<circle fill="none" stroke="#000000" stroke-width="0.25" stroke-miterlimit="10" cx="210.771" cy="344.224" r="1.632"/>
<circle fill="none" stroke="#000000" stroke-width="0.25" stroke-miterlimit="10" cx="63.445" cy="356.501" r="1.632"/>
<circle fill="none" stroke="#000000" stroke-width="0.25" stroke-miterlimit="10" cx="69.584" cy="356.501" r="1.632"/>
<circle fill="none" stroke="#000000" stroke-width="0.25" stroke-miterlimit="10" cx="100.276" cy="356.501" r="1.631"/>
<circle fill="none" stroke="#000000" stroke-width="0.25" stroke-miterlimit="10" cx="106.415" cy="356.501" r="1.631"/>
<circle fill="none" stroke="#000000" stroke-width="0.25" stroke-miterlimit="10" cx="137.108" cy="356.501" r="1.632"/>
<circle fill="none" stroke="#000000" stroke-width="0.25" stroke-miterlimit="10" cx="143.247" cy="356.501" r="1.632"/>
<circle fill="none" stroke="#000000" stroke-width="0.25" stroke-miterlimit="10" cx="167.801" cy="356.501" r="1.631"/>
<circle fill="none" stroke="#000000" stroke-width="0.25" stroke-miterlimit="10" cx="173.939" cy="356.501" r="1.631"/>
<circle fill="none" stroke="#000000" stroke-width="0.25" stroke-miterlimit="10" cx="204.632" cy="356.501" r="1.632"/>
<circle fill="none" stroke="#000000" stroke-width="0.25" stroke-miterlimit="10" cx="210.771" cy="356.501" r="1.632"/>
<circle fill="none" stroke="#000000" stroke-width="0.25" stroke-miterlimit="10" cx="63.445" cy="307.392" r="1.632"/>
<circle fill="none" stroke="#000000" stroke-width="0.25" stroke-miterlimit="10" cx="69.584" cy="307.392" r="1.632"/>
<circle fill="none" stroke="#000000" stroke-width="0.25" stroke-miterlimit="10" cx="100.276" cy="307.392" r="1.631"/>
<circle fill="none" stroke="#000000" stroke-width="0.25" stroke-miterlimit="10" cx="106.415" cy="307.392" r="1.631"/>
<circle fill="none" stroke="#000000" stroke-width="0.25" stroke-miterlimit="10" cx="137.108" cy="307.392" r="1.632"/>
<circle fill="none" stroke="#000000" stroke-width="0.25" stroke-miterlimit="10" cx="143.247" cy="307.392" r="1.632"/>
<circle fill="none" stroke="#000000" stroke-width="0.25" stroke-miterlimit="10" cx="167.801" cy="307.392" r="1.631"/>
<circle fill="none" stroke="#000000" stroke-width="0.25" stroke-miterlimit="10" cx="173.939" cy="307.392" r="1.631"/>
<circle fill="none" stroke="#000000" stroke-width="0.25" stroke-miterlimit="10" cx="204.632" cy="307.392" r="1.632"/>
<circle fill="none" stroke="#000000" stroke-width="0.25" stroke-miterlimit="10" cx="210.771" cy="307.392" r="1.632"/>
<circle fill="none" stroke="#000000" stroke-width="0.25" stroke-miterlimit="10" cx="63.445" cy="362.64" r="1.632"/>
<circle fill="none" stroke="#000000" stroke-width="0.25" stroke-miterlimit="10" cx="69.584" cy="362.64" r="1.632"/>
<circle fill="none" stroke="#000000" stroke-width="0.25" stroke-miterlimit="10" cx="100.276" cy="362.64" r="1.631"/>
<circle fill="none" stroke="#000000" stroke-width="0.25" stroke-miterlimit="10" cx="106.415" cy="362.64" r="1.631"/>
<circle fill="none" stroke="#000000" stroke-width="0.25" stroke-miterlimit="10" cx="137.108" cy="362.64" r="1.632"/>
<circle fill="none" stroke="#000000" stroke-width="0.25" stroke-miterlimit="10" cx="143.247" cy="362.64" r="1.632"/>
<circle fill="none" stroke="#000000" stroke-width="0.25" stroke-miterlimit="10" cx="167.801" cy="362.64" r="1.631"/>
<circle fill="none" stroke="#000000" stroke-width="0.25" stroke-miterlimit="10" cx="173.939" cy="362.64" r="1.631"/>
<circle fill="none" stroke="#000000" stroke-width="0.25" stroke-miterlimit="10" cx="204.632" cy="362.64" r="1.632"/>
<circle fill="none" stroke="#000000" stroke-width="0.25" stroke-miterlimit="10" cx="210.771" cy="362.64" r="1.632"/>
<circle fill="none" stroke="#000000" stroke-width="0.25" stroke-miterlimit="10" cx="63.445" cy="374.917" r="1.632"/>
<circle fill="none" stroke="#000000" stroke-width="0.25" stroke-miterlimit="10" cx="69.584" cy="374.917" r="1.632"/>
<circle fill="none" stroke="#000000" stroke-width="0.25" stroke-miterlimit="10" cx="100.276" cy="374.917" r="1.631"/>
<circle fill="none" stroke="#000000" stroke-width="0.25" stroke-miterlimit="10" cx="106.415" cy="374.917" r="1.631"/>
<circle fill="none" stroke="#000000" stroke-width="0.25" stroke-miterlimit="10" cx="137.108" cy="374.917" r="1.632"/>
<circle fill="none" stroke="#000000" stroke-width="0.25" stroke-miterlimit="10" cx="143.247" cy="374.917" r="1.632"/>
<circle fill="none" stroke="#000000" stroke-width="0.25" stroke-miterlimit="10" cx="167.801" cy="374.917" r="1.631"/>
<circle fill="none" stroke="#000000" stroke-width="0.25" stroke-miterlimit="10" cx="173.939" cy="374.917" r="1.631"/>
<circle fill="none" stroke="#000000" stroke-width="0.25" stroke-miterlimit="10" cx="204.632" cy="374.917" r="1.632"/>
<circle fill="none" stroke="#000000" stroke-width="0.25" stroke-miterlimit="10" cx="210.771" cy="374.917" r="1.632"/>
<circle fill="none" stroke="#000000" stroke-width="0.25" stroke-miterlimit="10" cx="63.445" cy="381.056" r="1.632"/>
<circle fill="none" stroke="#000000" stroke-width="0.25" stroke-miterlimit="10" cx="69.584" cy="381.056" r="1.632"/>
<circle fill="none" stroke="#000000" stroke-width="0.25" stroke-miterlimit="10" cx="100.276" cy="381.056" r="1.631"/>
<circle fill="none" stroke="#000000" stroke-width="0.25" stroke-miterlimit="10" cx="106.415" cy="381.056" r="1.631"/>
<circle fill="none" stroke="#000000" stroke-width="0.25" stroke-miterlimit="10" cx="137.108" cy="381.056" r="1.632"/>
<circle fill="none" stroke="#000000" stroke-width="0.25" stroke-miterlimit="10" cx="143.247" cy="381.056" r="1.632"/>
<circle fill="none" stroke="#000000" stroke-width="0.25" stroke-miterlimit="10" cx="167.801" cy="381.056" r="1.631"/>
<circle fill="none" stroke="#000000" stroke-width="0.25" stroke-miterlimit="10" cx="173.939" cy="381.056" r="1.631"/>
<circle fill="none" stroke="#000000" stroke-width="0.25" stroke-miterlimit="10" cx="204.632" cy="381.056" r="1.632"/>
<circle fill="none" stroke="#000000" stroke-width="0.25" stroke-miterlimit="10" cx="210.771" cy="381.056" r="1.632"/>
<circle fill="none" stroke="#000000" stroke-width="0.25" stroke-miterlimit="10" cx="63.445" cy="393.333" r="1.632"/>
<circle fill="none" stroke="#000000" stroke-width="0.25" stroke-miterlimit="10" cx="69.584" cy="393.333" r="1.632"/>
<circle fill="none" stroke="#000000" stroke-width="0.25" stroke-miterlimit="10" cx="100.276" cy="393.333" r="1.631"/>
<circle fill="none" stroke="#000000" stroke-width="0.25" stroke-miterlimit="10" cx="106.415" cy="393.333" r="1.631"/>
<circle fill="none" stroke="#000000" stroke-width="0.25" stroke-miterlimit="10" cx="137.108" cy="393.333" r="1.632"/>
<circle fill="none" stroke="#000000" stroke-width="0.25" stroke-miterlimit="10" cx="143.247" cy="393.333" r="1.632"/>
<circle fill="none" stroke="#000000" stroke-width="0.25" stroke-miterlimit="10" cx="167.801" cy="393.333" r="1.631"/>
<circle fill="none" stroke="#000000" stroke-width="0.25" stroke-miterlimit="10" cx="173.939" cy="393.333" r="1.631"/>
<circle fill="none" stroke="#000000" stroke-width="0.25" stroke-miterlimit="10" cx="204.632" cy="393.333" r="1.632"/>
<circle fill="none" stroke="#000000" stroke-width="0.25" stroke-miterlimit="10" cx="210.771" cy="393.333" r="1.632"/>
<circle fill="none" stroke="#000000" stroke-width="0.25" stroke-miterlimit="10" cx="63.445" cy="399.472" r="1.632"/>
<circle fill="none" stroke="#000000" stroke-width="0.25" stroke-miterlimit="10" cx="69.584" cy="399.472" r="1.632"/>
<circle fill="none" stroke="#000000" stroke-width="0.25" stroke-miterlimit="10" cx="100.276" cy="399.472" r="1.631"/>
<circle fill="none" stroke="#000000" stroke-width="0.25" stroke-miterlimit="10" cx="106.415" cy="399.472" r="1.631"/>
<circle fill="none" stroke="#000000" stroke-width="0.25" stroke-miterlimit="10" cx="137.108" cy="399.472" r="1.632"/>
<circle fill="none" stroke="#000000" stroke-width="0.25" stroke-miterlimit="10" cx="143.247" cy="399.472" r="1.632"/>
<circle fill="none" stroke="#000000" stroke-width="0.25" stroke-miterlimit="10" cx="167.801" cy="399.472" r="1.631"/>
<circle fill="none" stroke="#000000" stroke-width="0.25" stroke-miterlimit="10" cx="173.939" cy="399.472" r="1.631"/>
<circle fill="none" stroke="#000000" stroke-width="0.25" stroke-miterlimit="10" cx="204.632" cy="399.472" r="1.632"/>
<circle fill="none" stroke="#000000" stroke-width="0.25" stroke-miterlimit="10" cx="210.771" cy="399.472" r="1.632"/>
<circle fill="none" stroke="#000000" stroke-width="0.25" stroke-miterlimit="10" cx="63.445" cy="411.749" r="1.632"/>
<circle fill="none" stroke="#000000" stroke-width="0.25" stroke-miterlimit="10" cx="69.584" cy="411.749" r="1.632"/>
<circle fill="none" stroke="#000000" stroke-width="0.25" stroke-miterlimit="10" cx="100.276" cy="411.749" r="1.631"/>
<circle fill="none" stroke="#000000" stroke-width="0.25" stroke-miterlimit="10" cx="106.415" cy="411.749" r="1.631"/>
<circle fill="none" stroke="#000000" stroke-width="0.25" stroke-miterlimit="10" cx="137.108" cy="411.749" r="1.632"/>
<circle fill="none" stroke="#000000" stroke-width="0.25" stroke-miterlimit="10" cx="143.247" cy="411.749" r="1.632"/>
<circle fill="none" stroke="#000000" stroke-width="0.25" stroke-miterlimit="10" cx="167.801" cy="411.749" r="1.631"/>
<circle fill="none" stroke="#000000" stroke-width="0.25" stroke-miterlimit="10" cx="173.939" cy="411.749" r="1.631"/>
<circle fill="none" stroke="#000000" stroke-width="0.25" stroke-miterlimit="10" cx="204.632" cy="411.749" r="1.632"/>
<circle fill="none" stroke="#000000" stroke-width="0.25" stroke-miterlimit="10" cx="210.771" cy="411.749" r="1.632"/>
<circle fill="none" stroke="#000000" stroke-width="0.25" stroke-miterlimit="10" cx="63.445" cy="417.888" r="1.632"/>
<circle fill="none" stroke="#000000" stroke-width="0.25" stroke-miterlimit="10" cx="69.584" cy="417.888" r="1.632"/>
<circle fill="none" stroke="#000000" stroke-width="0.25" stroke-miterlimit="10" cx="100.276" cy="417.888" r="1.631"/>
<circle fill="none" stroke="#000000" stroke-width="0.25" stroke-miterlimit="10" cx="106.415" cy="417.888" r="1.631"/>
<circle fill="none" stroke="#000000" stroke-width="0.25" stroke-miterlimit="10" cx="137.108" cy="417.888" r="1.632"/>
<circle fill="none" stroke="#000000" stroke-width="0.25" stroke-miterlimit="10" cx="143.247" cy="417.888" r="1.632"/>
<circle fill="none" stroke="#000000" stroke-width="0.25" stroke-miterlimit="10" cx="167.801" cy="417.888" r="1.631"/>
<circle fill="none" stroke="#000000" stroke-width="0.25" stroke-miterlimit="10" cx="173.939" cy="417.888" r="1.631"/>
<circle fill="none" stroke="#000000" stroke-width="0.25" stroke-miterlimit="10" cx="204.632" cy="417.888" r="1.632"/>
<circle fill="none" stroke="#000000" stroke-width="0.25" stroke-miterlimit="10" cx="210.771" cy="417.888" r="1.632"/>
<circle fill="none" stroke="#000000" stroke-width="0.25" stroke-miterlimit="10" cx="63.445" cy="430.165" r="1.632"/>
<circle fill="none" stroke="#000000" stroke-width="0.25" stroke-miterlimit="10" cx="69.584" cy="430.165" r="1.632"/>
<circle fill="none" stroke="#000000" stroke-width="0.25" stroke-miterlimit="10" cx="100.276" cy="430.166" r="1.631"/>
<circle fill="none" stroke="#000000" stroke-width="0.25" stroke-miterlimit="10" cx="106.415" cy="430.166" r="1.631"/>
<circle fill="none" stroke="#000000" stroke-width="0.25" stroke-miterlimit="10" cx="137.108" cy="430.165" r="1.632"/>
<circle fill="none" stroke="#000000" stroke-width="0.25" stroke-miterlimit="10" cx="143.247" cy="430.165" r="1.632"/>
<circle fill="none" stroke="#000000" stroke-width="0.25" stroke-miterlimit="10" cx="167.801" cy="430.166" r="1.631"/>
<circle fill="none" stroke="#000000" stroke-width="0.25" stroke-miterlimit="10" cx="173.939" cy="430.166" r="1.631"/>
<circle fill="none" stroke="#000000" stroke-width="0.25" stroke-miterlimit="10" cx="204.632" cy="430.165" r="1.632"/>
<circle fill="none" stroke="#000000" stroke-width="0.25" stroke-miterlimit="10" cx="210.771" cy="430.165" r="1.632"/>
<circle fill="none" stroke="#000000" stroke-width="0.25" stroke-miterlimit="10" cx="63.445" cy="436.304" r="1.632"/>
<circle fill="none" stroke="#000000" stroke-width="0.25" stroke-miterlimit="10" cx="69.584" cy="436.304" r="1.632"/>
<circle fill="none" stroke="#000000" stroke-width="0.25" stroke-miterlimit="10" cx="100.276" cy="436.304" r="1.631"/>
<circle fill="none" stroke="#000000" stroke-width="0.25" stroke-miterlimit="10" cx="106.415" cy="436.304" r="1.631"/>
<circle fill="none" stroke="#000000" stroke-width="0.25" stroke-miterlimit="10" cx="137.108" cy="436.304" r="1.632"/>
<circle fill="none" stroke="#000000" stroke-width="0.25" stroke-miterlimit="10" cx="143.247" cy="436.304" r="1.632"/>
<circle fill="none" stroke="#000000" stroke-width="0.25" stroke-miterlimit="10" cx="167.801" cy="436.304" r="1.631"/>
<circle fill="none" stroke="#000000" stroke-width="0.25" stroke-miterlimit="10" cx="173.939" cy="436.304" r="1.631"/>
<circle fill="none" stroke="#000000" stroke-width="0.25" stroke-miterlimit="10" cx="204.632" cy="436.304" r="1.632"/>
<circle fill="none" stroke="#000000" stroke-width="0.25" stroke-miterlimit="10" cx="210.771" cy="436.304" r="1.632"/>
<path fill="none" stroke="#ED1F24" stroke-width="0.25" stroke-miterlimit="10" d="M210.147,446.818H64.068
	c-6.6,0-12-0.514-12-13.365V62.64c0-12.855,5.4-16.365,12-16.365h146.079c6.603,0,12.001,3.51,12.001,16.365v370.812
	C222.148,446.304,216.749,446.818,210.147,446.818z"/>
<circle fill="none" stroke="#ED1F24" stroke-width="0.25" stroke-miterlimit="10" cx="137.233" cy="55.609" r="3.839"/>
<g>
	<path fill="none" stroke="#176533" stroke-width="0.25" stroke-miterlimit="10" d="M63.766,61.399l-0.006-0.328
		c0.062-0.031,0.202-0.077,0.419-0.138s0.337-0.104,0.36-0.132c0.043-0.043,0.063-0.104,0.063-0.182V60.49
		c0.017-0.363,0.023-0.566,0.023-0.609c0-0.035-0.002-0.084-0.006-0.146l-0.007-0.07l0.007-0.076v-0.053l-0.035-1.008l-0.006-1.125
		l-0.013-0.111c-0.069,0-0.174-0.004-0.311-0.012h-0.369c-0.023-0.003-0.057-0.009-0.1-0.019c-0.004-0.106-0.006-0.191-0.006-0.254
		c0-0.11,0.026-0.199,0.081-0.266c0.117,0,0.349-0.014,0.691-0.041c0.012-0.465,0.087-0.901,0.226-1.31
		c0.14-0.409,0.313-0.735,0.524-0.981l0.152-0.17c0.258-0.219,0.495-0.372,0.712-0.46c0.217-0.088,0.474-0.132,0.771-0.132
		c0.289,0,0.528,0.047,0.719,0.141c0.189,0.094,0.319,0.214,0.393,0.36s0.108,0.282,0.108,0.407c0,0.156-0.064,0.3-0.193,0.431
		c-0.129,0.131-0.271,0.196-0.428,0.196c-0.117,0-0.232-0.039-0.347-0.117c-0.078-0.059-0.173-0.181-0.283-0.366
		c-0.111-0.185-0.198-0.304-0.262-0.354c-0.062-0.047-0.145-0.07-0.246-0.07c-0.121,0-0.227,0.047-0.315,0.141
		s-0.152,0.229-0.188,0.404c-0.036,0.175-0.053,0.527-0.053,1.055l-0.006,0.645l0.006,0.17l0.11,0.006l0.692-0.018
		c0.035,0,0.089,0.006,0.163,0.018c0.055,0.047,0.082,0.086,0.082,0.117l-0.012,0.111v0.158c0,0.023-0.006,0.068-0.019,0.135
		c-0.034,0.02-0.075,0.029-0.123,0.029H66.69l-0.443,0.012c-0.073,0-0.13-0.004-0.169-0.012h-0.054
		c-0.039,0-0.097,0.009-0.175,0.026l-0.004,0.287c0,0.028,0.001,0.07,0.004,0.129c0.005,0.223,0.008,0.375,0.008,0.457l-0.004,0.861
		l0.01,0.626l-0.006,0.503c-0.008,0.355,0.027,0.57,0.104,0.644c0.113,0.113,0.348,0.189,0.705,0.229
		c0.065,0.004,0.126,0.018,0.181,0.041c0.016,0.094,0.023,0.154,0.023,0.182c0,0.043-0.009,0.104-0.023,0.182h-0.421
		c-0.035,0-0.264-0.014-0.685-0.041l-0.315-0.023c-0.305,0-0.54,0.007-0.708,0.021C64.629,61.378,64.312,61.389,63.766,61.399z"/>
	<path fill="none" stroke="#176533" stroke-width="0.25" stroke-miterlimit="10" d="M67.299,61.104
		c0.051-0.044,0.117-0.077,0.199-0.097c0.198-0.043,0.389-0.121,0.567-0.234c0.035-0.094,0.054-0.41,0.054-0.948
		c0-0.986-0.021-1.653-0.064-2c-0.008-0.062-0.039-0.117-0.094-0.164c-0.099-0.05-0.23-0.095-0.398-0.134
		c-0.078-0.02-0.125-0.062-0.141-0.129l-0.019-0.217c0.289-0.039,0.552-0.138,0.785-0.296c0.234-0.158,0.41-0.319,0.527-0.483
		c0.062-0.09,0.117-0.158,0.164-0.205l0.41-0.012c0.02,0.09,0.028,0.164,0.028,0.223c0,0.043-0.002,0.096-0.006,0.158
		c-0.004,0.137-0.006,0.25-0.006,0.34c0,0.043,0.002,0.205,0.006,0.486c0.16-0.273,0.277-0.457,0.353-0.551
		c0.035-0.043,0.139-0.139,0.311-0.287c0.133-0.098,0.283-0.146,0.451-0.146c0.207,0,0.387,0.07,0.539,0.211
		c0.152,0.141,0.229,0.303,0.229,0.486s-0.058,0.349-0.173,0.495c-0.114,0.146-0.269,0.22-0.46,0.22
		c-0.168,0-0.344-0.07-0.526-0.211c-0.109-0.086-0.197-0.129-0.265-0.129l-0.041,0.006c-0.082,0.027-0.155,0.101-0.223,0.222
		c-0.109,0.195-0.164,0.397-0.164,0.607l0.012,0.158c0.017,0.288,0.027,0.963,0.035,2.026c0.012,0.097,0.049,0.195,0.111,0.292
		c0.069,0.055,0.142,0.094,0.214,0.117c0.072,0.023,0.198,0.043,0.378,0.059c0.18,0.016,0.289,0.041,0.328,0.074
		s0.059,0.088,0.059,0.163c0,0.044-0.012,0.101-0.035,0.172h-0.551l-1.119-0.053c-0.28,0-0.537,0.012-0.768,0.035h-0.1
		c-0.027,0-0.23,0.01-0.609,0.029c-0.012-0.063-0.019-0.113-0.019-0.145C67.28,61.21,67.287,61.164,67.299,61.104z"/>
	<path fill="none" stroke="#176533" stroke-width="0.25" stroke-miterlimit="10" d="M71.816,58.29
		c0.103-0.332,0.191-0.553,0.271-0.663c0.219-0.321,0.452-0.571,0.7-0.751s0.472-0.299,0.671-0.358
		c0.258-0.074,0.467-0.111,0.627-0.111c0.367,0,0.664,0.028,0.891,0.085c0.228,0.057,0.416,0.138,0.568,0.243
		c0.219,0.152,0.395,0.307,0.526,0.462c0.134,0.156,0.241,0.34,0.325,0.55c0.084,0.211,0.13,0.466,0.139,0.767l-0.65-0.011
		c-0.18,0-0.574-0.017-1.184-0.051c-0.228-0.02-0.384-0.029-0.47-0.029c-0.026,0-0.237,0.004-0.633,0.012h-0.504
		c-0.008,0.055-0.012,0.102-0.012,0.141c0,0.208,0.024,0.426,0.075,0.655c0.052,0.229,0.128,0.431,0.229,0.605
		s0.228,0.324,0.378,0.449s0.306,0.215,0.466,0.27l0.34,0.112c0.302,0,0.502-0.01,0.604-0.029c0.188-0.039,0.353-0.089,0.495-0.149
		c0.142-0.06,0.314-0.163,0.519-0.308c0.142,0.102,0.258,0.193,0.353,0.275c-0.345,0.379-0.7,0.653-1.069,0.823
		c-0.369,0.17-0.782,0.255-1.239,0.255c-0.309,0-0.561-0.027-0.756-0.082c-0.262-0.07-0.498-0.178-0.709-0.323
		s-0.393-0.325-0.545-0.54c-0.152-0.215-0.266-0.436-0.34-0.663c-0.098-0.297-0.146-0.536-0.146-0.715
		C71.734,58.871,71.762,58.564,71.816,58.29z M75.221,58.042c-0.004-0.22-0.047-0.43-0.129-0.63c-0.082-0.2-0.209-0.356-0.381-0.468
		c-0.172-0.112-0.346-0.168-0.521-0.168c-0.262,0-0.498,0.115-0.709,0.346s-0.33,0.543-0.356,0.938l1.336,0.012
		c0.086,0,0.207-0.006,0.362-0.018c0.113-0.011,0.193-0.016,0.24-0.016C75.098,58.038,75.15,58.039,75.221,58.042z"/>
	<path fill="none" stroke="#176533" stroke-width="0.25" stroke-miterlimit="10" d="M77.471,59.759
		c0.117-0.023,0.203-0.035,0.258-0.035c0.027,0,0.068,0.002,0.123,0.006l0.053,0.059c0.212,0.371,0.351,0.596,0.416,0.674
		c0.138,0.16,0.271,0.289,0.404,0.387c0.09,0.062,0.23,0.127,0.422,0.193c0.129,0.047,0.267,0.07,0.41,0.07
		c0.246,0,0.457-0.079,0.633-0.237c0.177-0.158,0.265-0.329,0.265-0.513c0-0.125-0.033-0.231-0.101-0.319
		c-0.066-0.088-0.199-0.175-0.397-0.261c-0.099-0.043-0.344-0.113-0.735-0.211c-0.392-0.098-0.63-0.162-0.712-0.193
		c-0.184-0.07-0.347-0.168-0.489-0.293c-0.142-0.125-0.251-0.266-0.325-0.422c-0.102-0.223-0.151-0.414-0.151-0.574
		c0-0.297,0.043-0.54,0.129-0.729s0.207-0.356,0.363-0.501c0.112-0.109,0.283-0.209,0.513-0.299c0.229-0.09,0.474-0.135,0.735-0.135
		c0.37,0,0.696,0.025,0.979,0.076s0.521,0.127,0.715,0.229c0.023,0.09,0.058,0.297,0.101,0.621c0.043,0.324,0.063,0.516,0.063,0.574
		c0,0.027-0.006,0.057-0.018,0.088c-0.103,0.031-0.187,0.047-0.252,0.047c-0.039,0-0.097-0.004-0.17-0.012
		c-0.035-0.055-0.082-0.137-0.142-0.246c-0.188-0.348-0.38-0.593-0.577-0.735c-0.196-0.142-0.425-0.214-0.683-0.214
		c-0.271,0-0.496,0.078-0.68,0.234c-0.134,0.113-0.199,0.268-0.199,0.463c0,0.129,0.069,0.26,0.208,0.393
		c0.135,0.137,0.372,0.24,0.713,0.311c0.513,0.113,0.891,0.227,1.134,0.34c0.353,0.164,0.601,0.357,0.742,0.58
		c0.144,0.223,0.215,0.48,0.215,0.773c0,0.453-0.171,0.831-0.513,1.134c-0.342,0.303-0.841,0.454-1.497,0.454
		c-0.086,0-0.312-0.02-0.674-0.059c-0.164-0.02-0.357-0.059-0.58-0.117c-0.056-0.016-0.197-0.072-0.428-0.17
		c-0.044-0.023-0.073-0.052-0.092-0.085c-0.018-0.033-0.044-0.196-0.079-0.489C77.508,60.138,77.475,59.853,77.471,59.759z"/>
	<path fill="none" stroke="#176533" stroke-width="0.25" stroke-miterlimit="10" d="M82.158,61.03
		c0.062-0.016,0.235-0.039,0.521-0.07c0.125-0.016,0.203-0.043,0.234-0.082c0.039-0.059,0.059-0.197,0.059-0.416v-0.416l0.019-0.439
		v-0.48l0.006-0.117l-0.006-0.293l0.012-0.1l0.022-2.127v-0.164c0-0.727-0.02-1.176-0.059-1.348
		c-0.023-0.102-0.079-0.182-0.167-0.24c-0.088-0.058-0.294-0.113-0.618-0.164V54.45c0-0.059,0.004-0.131,0.012-0.217l0.493-0.105
		c0.1-0.027,0.192-0.051,0.282-0.07c0.22-0.047,0.495-0.145,0.828-0.293c0.059-0.035,0.114-0.064,0.165-0.088l0.316,0.023
		l-0.012,3.504c0.354-0.281,0.679-0.48,0.971-0.598c0.293-0.117,0.598-0.176,0.913-0.176c0.301,0,0.562,0.054,0.78,0.161
		c0.221,0.107,0.392,0.24,0.512,0.398c0.121,0.158,0.207,0.351,0.259,0.577c0.034,0.152,0.053,0.445,0.053,0.879v0.375l0.006,0.826
		l-0.029,1.195c0.017,0.035,0.033,0.059,0.054,0.07c0.047,0.02,0.161,0.047,0.346,0.082c0.104,0.02,0.188,0.037,0.246,0.053
		c0.031,0.058,0.047,0.104,0.047,0.14l-0.006,0.046c-0.008,0.042-0.013,0.106-0.013,0.192l-0.135,0.009
		c-0.059,0-0.174-0.008-0.346-0.023c-0.328-0.031-0.604-0.047-0.826-0.047c-0.145,0-0.338,0.008-0.58,0.022
		c-0.172,0.008-0.391,0.012-0.656,0.012c-0.043,0-0.082-0.006-0.116-0.018v-0.141l-0.013-0.076c0-0.031,0.011-0.074,0.029-0.129
		c0.09-0.043,0.194-0.071,0.313-0.085c0.118-0.014,0.23-0.028,0.337-0.044c0.016-0.074,0.024-0.121,0.028-0.141l0.029-0.855v-1.436
		c0-0.426-0.023-0.714-0.07-0.864s-0.145-0.273-0.293-0.369c-0.147-0.096-0.328-0.144-0.539-0.144c-0.246,0-0.484,0.058-0.718,0.173
		c-0.232,0.115-0.431,0.251-0.595,0.407v1.025c0,0.562-0.005,0.984-0.014,1.266c-0.008,0.168-0.011,0.273-0.011,0.316
		c0,0.27,0.019,0.455,0.054,0.557c0.016,0.047,0.059,0.09,0.129,0.129c0.145,0.012,0.265,0.02,0.359,0.021
		c0.096,0.002,0.173,0.011,0.231,0.026c0.008,0.096,0.012,0.164,0.012,0.202c0,0.054-0.008,0.119-0.022,0.196l-0.651-0.026
		c-0.247-0.018-0.468-0.026-0.664-0.026l-0.822,0.041l-0.575-0.006c-0.038-0.055-0.079-0.152-0.122-0.293L82.158,61.03L82.158,61.03
		z"/>
	<path fill="none" stroke="#176533" stroke-width="0.25" stroke-miterlimit="10" d="M95.418,56.677h0.34
		c-0.023,0.617-0.186,1.088-0.483,1.412c-0.298,0.324-0.665,0.486-1.099,0.486c-0.207,0-0.426-0.033-0.656-0.1
		c-0.229-0.067-0.744-0.268-1.541-0.604c-0.569-0.238-0.979-0.357-1.229-0.357c-0.273,0-0.5,0.083-0.681,0.249
		c-0.18,0.166-0.299,0.433-0.356,0.8h-0.34c0.03-0.645,0.19-1.121,0.479-1.43c0.289-0.309,0.637-0.463,1.043-0.463
		c0.211,0,0.416,0.027,0.615,0.082c0.391,0.109,0.904,0.302,1.541,0.577s1.08,0.413,1.33,0.413c0.277,0,0.51-0.091,0.697-0.272
		C95.265,57.289,95.379,57.024,95.418,56.677z"/>
	<path fill="none" stroke="#176533" stroke-width="0.25" stroke-miterlimit="10" d="M96.496,56.642l0.104-0.006h0.088
		c0.031,0,0.167,0.012,0.407,0.035s0.462,0.035,0.665,0.035c0.156,0,0.375-0.012,0.656-0.035c0.28-0.023,0.453-0.035,0.516-0.035
		c0.051,0,0.123,0.002,0.217,0.006c0.009,0.074,0.013,0.135,0.013,0.182c0,0.039-0.009,0.084-0.023,0.135
		c-0.059,0.02-0.127,0.035-0.205,0.047c-0.172,0.031-0.291,0.066-0.356,0.105c-0.021,0.012-0.035,0.039-0.048,0.082
		c0.031,0.117,0.064,0.221,0.101,0.311l0.574,1.312c0.188,0.434,0.352,0.771,0.491,1.014c0.078,0.176,0.132,0.293,0.158,0.352
		c0.367-0.648,0.646-1.264,0.832-1.846l-0.264-0.557c-0.109-0.242-0.223-0.463-0.34-0.662c-0.07-0.02-0.146-0.039-0.229-0.059
		c-0.145-0.035-0.276-0.072-0.397-0.111v-0.328c0.288,0.004,0.484,0.013,0.591,0.026c0.175,0.018,0.437,0.026,0.783,0.026
		c0.172,0,0.382-0.005,0.632-0.015c0.249-0.01,0.4-0.015,0.456-0.015h0.286l-0.013,0.334c-0.043,0.004-0.141,0.014-0.293,0.029
		c-0.151,0.015-0.287,0.041-0.403,0.076c0.194,0.484,0.323,0.783,0.387,0.896l0.07,0.129l0.626,1.371l0.217,0.469l0.229-0.504
		c0.188-0.41,0.301-0.66,0.335-0.75c0.113-0.293,0.181-0.461,0.199-0.504c0.185-0.387,0.275-0.674,0.275-0.861
		c0-0.051-0.041-0.104-0.123-0.158c-0.023-0.016-0.168-0.064-0.435-0.146c-0.188-0.023-0.313-0.047-0.381-0.07l0.029-0.305
		c0.059-0.008,0.106-0.012,0.146-0.012c0.031,0,0.208,0.013,0.53,0.038c0.322,0.025,0.511,0.038,0.565,0.038
		c0.147,0,0.375-0.016,0.68-0.047c0.133-0.012,0.242-0.018,0.328-0.018v0.17c0,0.031-0.002,0.092-0.006,0.182
		c-0.383,0.113-0.623,0.205-0.722,0.275c-0.022,0.016-0.049,0.053-0.075,0.111l-0.893,2.016c-0.152,0.32-0.411,0.93-0.773,1.828
		c-0.053,0.121-0.092,0.215-0.118,0.281h-0.438l-1.002-2.232l-0.104-0.229c-0.031-0.07-0.068-0.143-0.111-0.217l-0.053,0.094
		l-0.703,1.453c-0.105,0.227-0.204,0.424-0.296,0.592c-0.092,0.168-0.173,0.342-0.243,0.521l-0.205,0.006l-0.315-0.006L98.2,59.546
		l-0.99-2.133c-0.062-0.113-0.121-0.191-0.176-0.234c-0.095-0.07-0.2-0.116-0.319-0.138s-0.194-0.046-0.226-0.073
		c-0.005-0.074-0.007-0.131-0.007-0.17C96.484,56.745,96.488,56.692,96.496,56.642z"/>
	<path fill="none" stroke="#176533" stroke-width="0.25" stroke-miterlimit="10" d="M110.172,60.298l0.135,0.088
		c0.035,0.027,0.057,0.062,0.064,0.1l0.006,0.029c-0.094,0.348-0.217,0.587-0.369,0.718c-0.152,0.131-0.342,0.196-0.568,0.196
		c-0.229,0-0.429-0.063-0.595-0.19c-0.166-0.127-0.317-0.351-0.453-0.671c-0.169,0.297-0.405,0.521-0.71,0.671
		c-0.305,0.15-0.678,0.226-1.119,0.226c-0.405,0-0.705-0.085-0.896-0.255c-0.191-0.17-0.287-0.394-0.287-0.671
		c0-0.129,0.028-0.26,0.085-0.393s0.147-0.265,0.274-0.396c0.128-0.131,0.331-0.274,0.612-0.431c0.043-0.023,0.191-0.09,0.445-0.199
		l1.459-0.586c0.012-0.148,0.018-0.299,0.018-0.451c0-0.527-0.063-0.887-0.192-1.078c-0.078-0.117-0.215-0.176-0.41-0.176
		s-0.375,0.037-0.539,0.111c-0.164,0.074-0.283,0.17-0.357,0.287c-0.055,0.086-0.102,0.248-0.141,0.486
		c-0.027,0.172-0.053,0.271-0.076,0.299c-0.059,0.074-0.165,0.142-0.319,0.202c-0.153,0.06-0.259,0.104-0.312,0.132
		c-0.211,0.102-0.379,0.152-0.504,0.152c-0.055-0.047-0.082-0.113-0.082-0.199c0-0.223,0.047-0.414,0.141-0.574
		c0.142-0.227,0.354-0.446,0.637-0.659c0.282-0.213,0.548-0.362,0.794-0.448c0.336-0.109,0.745-0.164,1.229-0.164
		c0.312,0,0.581,0.058,0.806,0.173c0.226,0.115,0.382,0.286,0.47,0.513s0.132,0.635,0.132,1.225l-0.012,0.967l0.012,0.709v0.182
		c0,0.164,0.021,0.276,0.065,0.337c0.045,0.061,0.102,0.091,0.171,0.091c0.042,0,0.077-0.012,0.108-0.035l0.176-0.275
		L110.172,60.298z M108.25,58.938c-0.224,0.074-0.475,0.198-0.753,0.372c-0.279,0.174-0.475,0.349-0.583,0.524
		c-0.078,0.129-0.117,0.287-0.117,0.475c0,0.168,0.051,0.307,0.152,0.416c0.101,0.109,0.219,0.164,0.352,0.164
		c0.219,0,0.404-0.062,0.557-0.188c0.207-0.168,0.328-0.302,0.363-0.401c0.035-0.099,0.053-0.382,0.053-0.847
		C108.273,59.282,108.266,59.11,108.25,58.938z"/>
	<path fill="none" stroke="#176533" stroke-width="0.25" stroke-miterlimit="10" d="M110.846,56.956
		c0.461-0.195,0.794-0.386,0.999-0.574c0.205-0.187,0.425-0.491,0.659-0.913h0.328c0.035,0.102,0.053,0.209,0.053,0.322
		c0,0.203-0.002,0.361-0.006,0.475l-0.019,0.346c0,0.02,0.002,0.064,0.007,0.135l0.135,0.006c0.02,0,0.203-0.008,0.551-0.023
		c0.027,0,0.174-0.004,0.439-0.012c0.022,0.104,0.034,0.197,0.034,0.278c0,0.089-0.014,0.194-0.041,0.313
		c-0.129,0.023-0.227,0.035-0.293,0.035c-0.03,0-0.094-0.008-0.188-0.023H113.2l-0.105-0.006l-0.281,0.018l-0.012,2.238
		c-0.004,0.434,0.005,0.704,0.026,0.812c0.021,0.108,0.066,0.21,0.138,0.308c0.09,0.043,0.188,0.064,0.299,0.064
		c0.105,0,0.185-0.01,0.234-0.029s0.137-0.076,0.258-0.169c0.022-0.02,0.061-0.047,0.111-0.082c0.094,0.074,0.17,0.148,0.229,0.222
		l0.023,0.07c-0.138,0.215-0.329,0.384-0.577,0.507s-0.514,0.185-0.794,0.185c-0.363,0-0.658-0.115-0.886-0.345
		c-0.227-0.23-0.34-0.587-0.34-1.071l0.023-1.03v-1.667l-0.182-0.012l-0.423,0.012l-0.075-0.029
		c-0.023-0.035-0.035-0.067-0.035-0.099C110.834,57.194,110.838,57.107,110.846,56.956z"/>
	<path fill="none" stroke="#176533" stroke-width="0.25" stroke-miterlimit="10" d="M114.754,58.29
		c0.102-0.332,0.19-0.553,0.27-0.663c0.22-0.321,0.452-0.571,0.7-0.751s0.472-0.299,0.671-0.358
		c0.258-0.074,0.467-0.111,0.627-0.111c0.367,0,0.664,0.028,0.892,0.085c0.227,0.057,0.416,0.138,0.567,0.243
		c0.22,0.152,0.396,0.307,0.527,0.462c0.133,0.156,0.241,0.34,0.325,0.55c0.084,0.211,0.13,0.466,0.138,0.767l-0.65-0.011
		c-0.18,0-0.573-0.017-1.184-0.051c-0.227-0.02-0.383-0.029-0.469-0.029c-0.027,0-0.238,0.004-0.633,0.012h-0.505
		c-0.008,0.055-0.012,0.102-0.012,0.141c0,0.208,0.025,0.426,0.076,0.655s0.127,0.431,0.229,0.605
		c0.103,0.174,0.229,0.324,0.379,0.449c0.149,0.125,0.306,0.215,0.466,0.27l0.34,0.112c0.301,0,0.502-0.01,0.604-0.029
		c0.188-0.039,0.354-0.089,0.495-0.149c0.143-0.06,0.315-0.163,0.52-0.308c0.141,0.102,0.258,0.193,0.352,0.275
		c-0.344,0.379-0.7,0.653-1.068,0.823c-0.369,0.17-0.782,0.255-1.239,0.255c-0.31,0-0.562-0.027-0.756-0.082
		c-0.263-0.07-0.498-0.178-0.709-0.323s-0.394-0.325-0.545-0.54c-0.152-0.215-0.267-0.436-0.341-0.663
		c-0.098-0.297-0.146-0.536-0.146-0.715C114.672,58.871,114.699,58.564,114.754,58.29z M118.158,58.042
		c-0.005-0.22-0.048-0.43-0.13-0.63c-0.082-0.2-0.209-0.356-0.381-0.468c-0.172-0.112-0.346-0.168-0.521-0.168
		c-0.262,0-0.498,0.115-0.709,0.346s-0.33,0.543-0.357,0.938l1.336,0.012c0.086,0,0.207-0.006,0.363-0.018
		c0.113-0.011,0.193-0.016,0.24-0.016C118.035,58.038,118.088,58.039,118.158,58.042z"/>
	<path fill="none" stroke="#176533" stroke-width="0.25" stroke-miterlimit="10" d="M120.104,61.104
		c0.051-0.044,0.117-0.077,0.199-0.097c0.199-0.043,0.389-0.121,0.568-0.234c0.034-0.094,0.053-0.41,0.053-0.948
		c0-0.986-0.021-1.653-0.064-2c-0.008-0.062-0.039-0.117-0.094-0.164c-0.098-0.05-0.229-0.095-0.397-0.134
		c-0.078-0.02-0.125-0.062-0.142-0.129l-0.018-0.217c0.289-0.039,0.551-0.138,0.785-0.296c0.233-0.158,0.409-0.319,0.526-0.483
		c0.062-0.09,0.117-0.158,0.164-0.205l0.41-0.012c0.021,0.09,0.029,0.164,0.029,0.223c0,0.043-0.002,0.096-0.006,0.158
		c-0.005,0.137-0.007,0.25-0.007,0.34c0,0.043,0.002,0.205,0.007,0.486c0.159-0.273,0.276-0.457,0.352-0.551
		c0.035-0.043,0.139-0.139,0.311-0.287c0.134-0.098,0.283-0.146,0.451-0.146c0.207,0,0.388,0.07,0.539,0.211
		c0.152,0.141,0.229,0.302,0.229,0.485s-0.059,0.349-0.173,0.495c-0.115,0.146-0.27,0.22-0.46,0.22c-0.168,0-0.345-0.07-0.527-0.211
		c-0.109-0.086-0.197-0.129-0.264-0.129l-0.041,0.006c-0.082,0.027-0.156,0.101-0.224,0.222c-0.108,0.195-0.164,0.397-0.164,0.607
		l0.013,0.158c0.016,0.288,0.026,0.963,0.034,2.026c0.013,0.097,0.05,0.195,0.111,0.292c0.07,0.055,0.143,0.094,0.214,0.117
		c0.072,0.023,0.198,0.043,0.378,0.059c0.181,0.016,0.289,0.041,0.328,0.074s0.06,0.088,0.06,0.163c0,0.044-0.013,0.101-0.035,0.172
		h-0.551l-1.119-0.053c-0.281,0-0.537,0.012-0.769,0.035h-0.1c-0.027,0-0.23,0.01-0.609,0.029c-0.012-0.063-0.018-0.113-0.018-0.145
		C120.085,61.209,120.092,61.164,120.104,61.104z"/>
</g>
<g>
	<path fill="none" stroke="#176533" stroke-width="0.25" stroke-miterlimit="10" d="M188.045,61.399l-0.006-0.328
		c0.062-0.031,0.202-0.077,0.419-0.138s0.337-0.104,0.359-0.132c0.043-0.043,0.064-0.104,0.064-0.182V60.49
		c0.016-0.363,0.022-0.566,0.022-0.609c0-0.035-0.002-0.084-0.006-0.146l-0.006-0.07l0.006-0.076v-0.053l-0.035-1.008l-0.006-1.125
		l-0.012-0.111c-0.07,0-0.174-0.004-0.311-0.012h-0.369c-0.023-0.003-0.058-0.009-0.101-0.019c-0.004-0.106-0.006-0.191-0.006-0.254
		c0-0.11,0.027-0.199,0.082-0.266c0.117,0,0.349-0.014,0.691-0.041c0.012-0.465,0.087-0.901,0.226-1.31
		c0.139-0.409,0.313-0.735,0.524-0.981l0.151-0.17c0.259-0.219,0.495-0.372,0.712-0.46c0.218-0.088,0.475-0.132,0.771-0.132
		c0.289,0,0.528,0.047,0.718,0.141c0.19,0.094,0.32,0.214,0.394,0.36c0.072,0.146,0.107,0.282,0.107,0.407
		c0,0.156-0.063,0.3-0.192,0.431c-0.129,0.131-0.271,0.196-0.429,0.196c-0.116,0-0.231-0.039-0.346-0.117
		c-0.078-0.059-0.173-0.181-0.284-0.366c-0.11-0.185-0.198-0.304-0.261-0.354c-0.062-0.047-0.146-0.07-0.246-0.07
		c-0.121,0-0.227,0.047-0.316,0.141c-0.089,0.094-0.151,0.229-0.188,0.404c-0.036,0.175-0.053,0.527-0.053,1.055l-0.006,0.645
		l0.006,0.17l0.109,0.006l0.693-0.018c0.035,0,0.089,0.006,0.163,0.018c0.055,0.047,0.082,0.086,0.082,0.117l-0.012,0.111v0.158
		c0,0.023-0.007,0.068-0.019,0.135c-0.035,0.02-0.076,0.029-0.123,0.029h-0.052l-0.444,0.012c-0.072,0-0.13-0.004-0.169-0.012
		h-0.053c-0.039,0-0.097,0.009-0.175,0.026l-0.004,0.287c0,0.028,0.001,0.07,0.004,0.129c0.005,0.223,0.008,0.375,0.008,0.457
		l-0.004,0.861l0.01,0.626l-0.006,0.503c-0.008,0.355,0.027,0.57,0.104,0.644c0.113,0.113,0.349,0.189,0.705,0.229
		c0.066,0.004,0.126,0.018,0.182,0.041c0.016,0.094,0.022,0.154,0.022,0.182c0,0.043-0.008,0.104-0.022,0.182h-0.421
		c-0.035,0-0.265-0.014-0.686-0.041l-0.314-0.023c-0.306,0-0.54,0.007-0.708,0.021C188.908,61.378,188.591,61.389,188.045,61.399z"
		/>
	<path fill="none" stroke="#176533" stroke-width="0.25" stroke-miterlimit="10" d="M196.546,57.128
		c0.25,0.242,0.438,0.521,0.561,0.835s0.186,0.61,0.186,0.888c0,0.523-0.08,0.945-0.24,1.266c-0.243,0.484-0.569,0.842-0.979,1.072
		s-0.888,0.346-1.432,0.346c-0.61,0-1.127-0.137-1.552-0.41c-0.424-0.273-0.729-0.584-0.909-0.932s-0.271-0.779-0.271-1.295
		c0-0.262,0.043-0.524,0.129-0.788c0.086-0.264,0.204-0.493,0.354-0.688c0.151-0.195,0.316-0.359,0.496-0.492
		c0.262-0.188,0.525-0.321,0.789-0.401c0.264-0.08,0.584-0.12,0.959-0.12C195.451,56.407,196.089,56.647,196.546,57.128z
		 M193.342,59.153c0.035,0.485,0.061,0.765,0.076,0.839c0.051,0.262,0.131,0.487,0.24,0.675c0.073,0.121,0.196,0.229,0.368,0.323
		c0.173,0.094,0.377,0.141,0.615,0.141c0.285,0,0.525-0.091,0.721-0.273s0.337-0.466,0.423-0.854
		c0.055-0.254,0.082-0.671,0.082-1.25c0-0.712-0.117-1.215-0.353-1.511s-0.543-0.443-0.926-0.443c-0.301,0-0.55,0.084-0.747,0.252
		s-0.335,0.417-0.413,0.745C193.379,58.008,193.35,58.46,193.342,59.153z"/>
	<path fill="none" stroke="#176533" stroke-width="0.25" stroke-miterlimit="10" d="M197.947,61.104
		c0.052-0.044,0.117-0.077,0.199-0.097c0.199-0.043,0.39-0.121,0.568-0.234c0.035-0.094,0.053-0.41,0.053-0.948
		c0-0.986-0.021-1.653-0.063-2c-0.009-0.062-0.039-0.117-0.095-0.164c-0.098-0.05-0.229-0.095-0.397-0.134
		c-0.078-0.02-0.125-0.062-0.142-0.129l-0.018-0.217c0.289-0.039,0.551-0.138,0.785-0.296c0.233-0.158,0.41-0.319,0.526-0.483
		c0.062-0.09,0.117-0.158,0.164-0.205l0.41-0.012c0.021,0.09,0.029,0.164,0.029,0.223c0,0.043-0.002,0.096-0.006,0.158
		c-0.004,0.137-0.006,0.25-0.006,0.34c0,0.043,0.002,0.205,0.006,0.486c0.16-0.273,0.276-0.457,0.352-0.551
		c0.035-0.043,0.14-0.139,0.312-0.287c0.133-0.098,0.283-0.146,0.451-0.146c0.207,0,0.387,0.07,0.539,0.211
		c0.151,0.141,0.229,0.303,0.229,0.486s-0.058,0.349-0.173,0.495s-0.27,0.22-0.46,0.22c-0.168,0-0.344-0.07-0.527-0.211
		c-0.108-0.086-0.197-0.129-0.264-0.129l-0.041,0.006c-0.082,0.027-0.156,0.101-0.224,0.222c-0.108,0.195-0.163,0.397-0.163,0.607
		l0.012,0.158c0.016,0.288,0.026,0.963,0.035,2.026c0.012,0.097,0.049,0.195,0.11,0.292c0.07,0.055,0.143,0.094,0.214,0.117
		c0.072,0.023,0.198,0.043,0.379,0.059c0.18,0.016,0.288,0.041,0.327,0.074s0.06,0.088,0.06,0.163c0,0.044-0.012,0.101-0.035,0.172
		h-0.551l-1.119-0.053c-0.281,0-0.537,0.012-0.769,0.035h-0.1c-0.027,0-0.229,0.01-0.609,0.029
		c-0.012-0.063-0.018-0.113-0.018-0.145C197.928,61.21,197.936,61.164,197.947,61.104z"/>
	<path fill="none" stroke="#176533" stroke-width="0.25" stroke-miterlimit="10" d="M202.148,61.06
		c0.07-0.035,0.142-0.059,0.211-0.07c0.07-0.011,0.121-0.021,0.152-0.029c0.227-0.023,0.357-0.043,0.393-0.059
		c0.027-0.082,0.046-0.21,0.054-0.386l0.035-2.474v-0.333l0.006-0.251v-1.679c0-0.397-0.015-0.684-0.041-0.86
		c-0.004-0.042-0.019-0.107-0.041-0.193c-0.078-0.066-0.154-0.112-0.229-0.138c-0.075-0.026-0.229-0.052-0.469-0.079
		c-0.004-0.051-0.006-0.09-0.006-0.117c0-0.043,0.004-0.105,0.012-0.188c0.152-0.051,0.58-0.17,1.285-0.357
		c0.195-0.055,0.368-0.115,0.521-0.182l0.239,0.012l0.012,2.597c0,0.02-0.006,0.145-0.018,0.375
		c-0.004,0.082-0.006,0.244-0.006,0.485l-0.012,0.877v0.837c0.194-0.117,0.601-0.379,1.216-0.785
		c0.212-0.141,0.448-0.316,0.711-0.527c0.108-0.085,0.188-0.154,0.239-0.208c-0.062-0.028-0.122-0.05-0.182-0.066
		c-0.147-0.036-0.325-0.096-0.532-0.18c-0.004-0.054-0.006-0.094-0.006-0.121c0-0.039,0.006-0.098,0.019-0.178l0.433-0.006
		c0.035,0,0.136,0.005,0.301,0.015c0.166,0.01,0.333,0.015,0.5,0.015c0.138,0,0.328-0.009,0.576-0.026
		c0.247-0.018,0.4-0.026,0.459-0.026c0.062,0,0.156,0.004,0.28,0.012c0.004,0.043,0.006,0.074,0.006,0.094
		c0,0.039-0.008,0.094-0.022,0.164l-0.462,0.149c-0.254,0.075-0.446,0.151-0.578,0.226c-0.325,0.183-0.872,0.535-1.644,1.055
		c0.094,0.098,0.191,0.196,0.293,0.293l0.152,0.141l0.434,0.435l0.955,0.963l0.551,0.552c0.082,0.057,0.243,0.139,0.485,0.246
		c0.004,0.111,0.006,0.177,0.006,0.197c0,0.032-0.002,0.08-0.006,0.143c-0.043,0-0.17-0.01-0.38-0.029
		c-0.121-0.016-0.228-0.023-0.315-0.023c-0.812,0-1.503,0.01-2.075,0.029c0-0.06-0.005-0.105-0.013-0.137l-0.006-0.089
		c0-0.027,0.01-0.071,0.029-0.131c0.098-0.033,0.229-0.057,0.392-0.072c0.066-0.003,0.14-0.011,0.217-0.022
		c-0.059-0.105-0.131-0.203-0.217-0.293l-1.524-1.621l-0.319,0.173v1.225c0,0.035,0.004,0.1,0.012,0.193l0.006,0.217
		c0.078,0.053,0.14,0.087,0.183,0.102c0.065,0.023,0.19,0.044,0.375,0.062c0.051,0.003,0.098,0.011,0.141,0.022v0.151l0.012,0.109
		c0,0.02-0.006,0.052-0.018,0.097l-0.041,0.018c-0.359-0.013-0.645-0.028-0.855-0.046c-0.112-0.008-0.202-0.013-0.27-0.013
		c-0.035,0-0.121,0.002-0.258,0.006h-0.334l-0.504,0.042l-0.152-0.005l-0.346,0.016c-0.017-0.066-0.023-0.127-0.023-0.182
		C202.143,61.181,202.145,61.126,202.148,61.06z"/>
	<path fill="none" stroke="#176533" stroke-width="0.25" stroke-miterlimit="10" d="M208.869,59.759
		c0.116-0.023,0.202-0.035,0.258-0.035c0.026,0,0.067,0.002,0.123,0.006l0.053,0.059c0.211,0.371,0.35,0.596,0.416,0.674
		c0.137,0.16,0.271,0.289,0.404,0.387c0.09,0.062,0.229,0.127,0.422,0.193c0.129,0.047,0.266,0.07,0.41,0.07
		c0.246,0,0.457-0.079,0.633-0.237s0.264-0.329,0.264-0.513c0-0.125-0.033-0.231-0.1-0.319c-0.067-0.088-0.199-0.175-0.398-0.261
		c-0.098-0.043-0.343-0.113-0.734-0.211c-0.393-0.098-0.631-0.162-0.712-0.193c-0.185-0.07-0.348-0.168-0.489-0.293
		c-0.143-0.125-0.251-0.266-0.325-0.422c-0.102-0.223-0.152-0.414-0.152-0.574c0-0.297,0.043-0.54,0.129-0.729
		s0.207-0.356,0.363-0.501c0.113-0.109,0.284-0.209,0.513-0.299c0.229-0.09,0.475-0.135,0.735-0.135
		c0.371,0,0.697,0.025,0.979,0.076c0.281,0.051,0.52,0.127,0.715,0.229c0.022,0.09,0.057,0.297,0.1,0.621
		c0.043,0.324,0.064,0.516,0.064,0.574c0,0.027-0.006,0.057-0.019,0.088c-0.102,0.031-0.186,0.047-0.252,0.047
		c-0.039,0-0.096-0.004-0.17-0.012c-0.035-0.055-0.082-0.137-0.141-0.246c-0.188-0.348-0.38-0.593-0.577-0.735
		s-0.425-0.214-0.683-0.214c-0.271,0-0.496,0.078-0.681,0.234c-0.133,0.113-0.199,0.268-0.199,0.463c0,0.129,0.069,0.26,0.208,0.393
		c0.136,0.137,0.372,0.24,0.714,0.311c0.513,0.113,0.891,0.227,1.134,0.34c0.352,0.164,0.6,0.357,0.742,0.58
		c0.144,0.223,0.215,0.48,0.215,0.773c0,0.453-0.171,0.831-0.514,1.134c-0.342,0.303-0.841,0.454-1.497,0.454
		c-0.086,0-0.311-0.02-0.674-0.059c-0.164-0.02-0.356-0.059-0.58-0.117c-0.055-0.016-0.196-0.072-0.428-0.17
		c-0.043-0.023-0.073-0.052-0.091-0.085c-0.019-0.033-0.044-0.196-0.079-0.489C208.906,60.138,208.873,59.853,208.869,59.759z"/>
</g>
</svg>
