  0
SECTION
  2
HEADER
  9
$ACADVER
  1
AC1014
  9
$ACADMAINTVER
 70
     9
  9
$DWGCODEPAGE
  3
ASCII
  9
$INSBASE
 10
0.0
 20
0.0
 30
0.0
  9
$EXTMIN
 10
1.000000000000000E+20
 20
1.000000000000000E+20
 30
1.000000000000000E+20
  9
$EXTMAX
 10
-1.000000000000000E+20
 20
-1.000000000000000E+20
 30
-1.000000000000000E+20
  9
$LIMMIN
 10
0.0
 20
0.0
  9
$LIMMAX
 10
12.0
 20
9.0
  9
$ORTHOMODE
 70
     0
  9
$REGENMODE
 70
     1
  9
$FILLMODE
 70
     1
  9
$QTEXTMODE
 70
     0
  9
$MIRRTEXT
 70
     1
  9
$DRAGMODE
 70
     2
  9
$LTSCALE
 40
1.0
  9
$OSMODE
 70
    37
  9
$ATTMODE
 70
     1
  9
$TEXTSIZE
 40
0.2
  9
$TRACEWID
 40
0.05
  9
$TEXTSTYLE
  7
STANDARD
  9
$CLAYER
  8
0
  9
$CELTYPE
  6
BYLAYER
  9
$CECOLOR
 62
   256
  9
$CELTSCALE
 40
1.0
  9
$DELOBJ
 70
     1
  9
$DISPSILH
 70
     0
  9
$DIMSCALE
 40
1.0
  9
$DIMASZ
 40
0.18
  9
$DIMEXO
 40
0.0625
  9
$DIMDLI
 40
0.38
  9
$DIMRND
 40
0.0
  9
$DIMDLE
 40
0.0
  9
$DIMEXE
 40
0.18
  9
$DIMTP
 40
0.0
  9
$DIMTM
 40
0.0
  9
$DIMTXT
 40
0.18
  9
$DIMCEN
 40
0.09
  9
$DIMTSZ
 40
0.0
  9
$DIMTOL
 70
     0
  9
$DIMLIM
 70
     0
  9
$DIMTIH
 70
     1
  9
$DIMTOH
 70
     1
  9
$DIMSE1
 70
     0
  9
$DIMSE2
 70
     0
  9
$DIMTAD
 70
     0
  9
$DIMZIN
 70
     0
  9
$DIMBLK
  1

  9
$DIMASO
 70
     1
  9
$DIMSHO
 70
     1
  9
$DIMPOST
  1

  9
$DIMAPOST
  1

  9
$DIMALT
 70
     0
  9
$DIMALTD
 70
     2
  9
$DIMALTF
 40
25.4
  9
$DIMLFAC
 40
1.0
  9
$DIMTOFL
 70
     0
  9
$DIMTVP
 40
0.0
  9
$DIMTIX
 70
     0
  9
$DIMSOXD
 70
     0
  9
$DIMSAH
 70
     0
  9
$DIMBLK1
  1

  9
$DIMBLK2
  1

  9
$DIMSTYLE
  2
STANDARD
  9
$DIMCLRD
 70
     0
  9
$DIMCLRE
 70
     0
  9
$DIMCLRT
 70
     0
  9
$DIMTFAC
 40
1.0
  9
$DIMGAP
 40
0.09
  9
$DIMJUST
 70
     0
  9
$DIMSD1
 70
     0
  9
$DIMSD2
 70
     0
  9
$DIMTOLJ
 70
     1
  9
$DIMTZIN
 70
     0
  9
$DIMALTZ
 70
     0
  9
$DIMALTTZ
 70
     0
  9
$DIMFIT
 70
     3
  9
$DIMUPT
 70
     0
  9
$DIMUNIT
 70
     2
  9
$DIMDEC
 70
     4
  9
$DIMTDEC
 70
     4
  9
$DIMALTU
 70
     2
  9
$DIMALTTD
 70
     2
  9
$DIMTXSTY
  7
STANDARD
  9
$DIMAUNIT
 70
     0
  9
$LUNITS
 70
     2
  9
$LUPREC
 70
     4
  9
$SKETCHINC
 40
0.1
  9
$FILLETRAD
 40
0.5
  9
$AUNITS
 70
     0
  9
$AUPREC
 70
     0
  9
$MENU
  1
.
  9
$ELEVATION
 40
0.0
  9
$PELEVATION
 40
0.0
  9
$THICKNESS
 40
0.0
  9
$LIMCHECK
 70
     0
  9
$CHAMFERA
 40
0.5
  9
$CHAMFERB
 40
0.5
  9
$CHAMFERC
 40
1.0
  9
$CHAMFERD
 40
0.0
  9
$SKPOLY
 70
     0
  9
$TDCREATE
 40
2457157.597546296
  9
$TDUPDATE
 40
2457157.597546308
  9
$TDINDWG
 40
0.0000000116
  9
$TDUSRTIMER
 40
0.0000000116
  9
$USRTIMER
 70
     1
  9
$ANGBASE
 50
0.0
  9
$ANGDIR
 70
     0
  9
$PDMODE
 70
     0
  9
$PDSIZE
 40
0.0
  9
$PLINEWID
 40
0.0
  9
$COORDS
 70
     1
  9
$SPLFRAME
 70
     0
  9
$SPLINETYPE
 70
     6
  9
$SPLINESEGS
 70
     8
  9
$ATTDIA
 70
     0
  9
$ATTREQ
 70
     1
  9
$HANDLING
 70
     1
  9
$HANDSEED
  5
34D
  9
$SURFTAB1
 70
     6
  9
$SURFTAB2
 70
     6
  9
$SURFTYPE
 70
     6
  9
$SURFU
 70
     6
  9
$SURFV
 70
     6
  9
$UCSNAME
  2

  9
$UCSORG
 10
0.0
 20
0.0
 30
0.0
  9
$UCSXDIR
 10
1.0
 20
0.0
 30
0.0
  9
$UCSYDIR
 10
0.0
 20
1.0
 30
0.0
  9
$PUCSNAME
  2

  9
$PUCSORG
 10
0.0
 20
0.0
 30
0.0
  9
$PUCSXDIR
 10
1.0
 20
0.0
 30
0.0
  9
$PUCSYDIR
 10
0.0
 20
1.0
 30
0.0
  9
$USERI1
 70
     0
  9
$USERI2
 70
     0
  9
$USERI3
 70
     0
  9
$USERI4
 70
     0
  9
$USERI5
 70
     0
  9
$USERR1
 40
0.0
  9
$USERR2
 40
0.0
  9
$USERR3
 40
0.0
  9
$USERR4
 40
0.0
  9
$USERR5
 40
0.0
  9
$WORLDVIEW
 70
     1
  9
$SHADEDGE
 70
     3
  9
$SHADEDIF
 70
    70
  9
$TILEMODE
 70
     1
  9
$MAXACTVP
 70
    64
  9
$PINSBASE
 10
0.0
 20
0.0
 30
0.0
  9
$PLIMCHECK
 70
     0
  9
$PEXTMIN
 10
1.000000000000000E+20
 20
1.000000000000000E+20
 30
1.000000000000000E+20
  9
$PEXTMAX
 10
-1.000000000000000E+20
 20
-1.000000000000000E+20
 30
-1.000000000000000E+20
  9
$PLIMMIN
 10
0.0
 20
0.0
  9
$PLIMMAX
 10
12.0
 20
9.0
  9
$UNITMODE
 70
     0
  9
$VISRETAIN
 70
     1
  9
$PLINEGEN
 70
     0
  9
$PSLTSCALE
 70
     1
  9
$TREEDEPTH
 70
  3020
  9
$PICKSTYLE
 70
     1
  9
$CMLSTYLE
  2
STANDARD
  9
$CMLJUST
 70
     0
  9
$CMLSCALE
 40
1.0
  9
$PROXYGRAPHICS
 70
     1
  9
$MEASUREMENT
 70
     0
  0
ENDSEC
  0
SECTION
  2
CLASSES
  0
CLASS
  1
ACDBDICTIONARYWDFLT
  2
AcDbDictionaryWithDefault
  3
ObjectDBX Classes
 90
        0
280
     0
281
     0
  0
CLASS
  1
VISUALSTYLE
  2
AcDbVisualStyle
  3
ObjectDBX Classes
 90
     4095
280
     0
281
     0
  0
CLASS
  1
XRECORD
  2
AcDbXrecord
  3
AutoCAD 2000
 90
        0
280
     0
281
     0
  0
CLASS
  1
LWPOLYLINE
  2
AcDbPolyline
  3
AutoCAD 2000
 90
        0
280
     0
281
     1
  0
CLASS
  1
HATCH
  2
AcDbHatch
  3
AutoCAD 2000
 90
        0
280
     0
281
     1
  0
CLASS
  1
ACDBPLACEHOLDER
  2
AcDbPlaceHolder
  3
ObjectDBX Classes
 90
        0
280
     0
281
     0
  0
CLASS
  1
LAYOUT
  2
AcDbLayout
  3
ObjectDBX Classes
 90
        0
280
     0
281
     0
  0
ENDSEC
  0
SECTION
  2
TABLES
  0
TABLE
  2
VPORT
  5
8
330
0
100
AcDbSymbolTable
 70
     1
  0
VPORT
  5
29
330
8
100
AcDbSymbolTableRecord
100
AcDbViewportTableRecord
  2
*ACTIVE
 70
     0
 10
0.0
 20
0.0
 11
1.0
 21
1.0
 12
0.0
 22
0.0
 13
0.0
 23
0.0
 14
0.5
 24
0.5
 15
0.5
 25
0.5
 16
0.0
 26
0.0
 36
1.0
 17
163.9879451906356
 27
137.4221073594414
 37
0.0
 40
325.153666297949
 41
1.008679662497596
 42
50.0
 43
0.0
 44
0.0
 50
0.0
 51
0.0
 71
     0
 72
   100
 73
     1
 74
     3
 75
     0
 76
     0
 77
     0
 78
     0
  0
ENDTAB
  0
TABLE
  2
LTYPE
  5
5
330
0
100
AcDbSymbolTable
 70
     1
  0
LTYPE
  5
14
330
5
100
AcDbSymbolTableRecord
100
AcDbLinetypeTableRecord
  2
BYBLOCK
 70
     0
  3

 72
    65
 73
     0
 40
0.0
  0
LTYPE
  5
15
330
5
100
AcDbSymbolTableRecord
100
AcDbLinetypeTableRecord
  2
BYLAYER
 70
     0
  3

 72
    65
 73
     0
 40
0.0
  0
LTYPE
  5
16
330
5
100
AcDbSymbolTableRecord
100
AcDbLinetypeTableRecord
  2
CONTINUOUS
 70
     0
  3
Solid line
 72
    65
 73
     0
 40
0.0
  0
ENDTAB
  0
TABLE
  2
LAYER
  5
2
330
0
100
AcDbSymbolTable
 70
     2
  0
LAYER
  5
10
330
2
100
AcDbSymbolTableRecord
100
AcDbLayerTableRecord
  2
0
 70
     0
 62
     7
  6
CONTINUOUS
  0
LAYER
  5
3B
330
2
100
AcDbSymbolTableRecord
100
AcDbLayerTableRecord
  2
LAYER_2
 70
     0
 62
     7
  6
CONTINUOUS
  0
ENDTAB
  0
TABLE
  2
STYLE
  5
3
330
0
100
AcDbSymbolTable
 70
     1
  0
STYLE
  5
11
330
3
100
AcDbSymbolTableRecord
100
AcDbTextStyleTableRecord
  2
STANDARD
 70
     0
 40
0.0
 41
1.0
 50
0.0
 71
     0
 42
0.2
  3
txt
  4

  0
ENDTAB
  0
TABLE
  2
VIEW
  5
6
330
0
100
AcDbSymbolTable
 70
     0
  0
ENDTAB
  0
TABLE
  2
UCS
  5
7
330
0
100
AcDbSymbolTable
 70
     0
  0
ENDTAB
  0
TABLE
  2
APPID
  5
9
330
0
100
AcDbSymbolTable
 70
     1
  0
APPID
  5
12
330
9
100
AcDbSymbolTableRecord
100
AcDbRegAppTableRecord
  2
ACAD
 70
     0
  0
ENDTAB
  0
TABLE
  2
DIMSTYLE
  5
A
330
0
100
AcDbSymbolTable
 70
     1
  0
DIMSTYLE
105
27
330
A
100
AcDbSymbolTableRecord
100
AcDbDimStyleTableRecord
  2
STANDARD
 70
     0
  3

  4

  5

  6

  7

 40
1.0
 41
0.18
 42
0.0625
 43
0.38
 44
0.18
 45
0.0
 46
0.0
 47
0.0
 48
0.0
140
0.18
141
0.09
142
0.0
143
25.4
144
1.0
145
0.0
146
1.0
147
0.09
 71
     0
 72
     0
 73
     1
 74
     1
 75
     0
 76
     0
 77
     0
 78
     0
170
     0
171
     2
172
     0
173
     0
174
     0
175
     0
176
     0
177
     0
178
     0
270
     2
271
     4
272
     4
273
     2
274
     2
340
11
275
     0
280
     0
281
     0
282
     0
283
     1
284
     0
285
     0
286
     0
287
     3
288
     0
  0
ENDTAB
  0
TABLE
  2
BLOCK_RECORD
  5
1
330
0
100
AcDbSymbolTable
 70
     7
  0
BLOCK_RECORD
  5
1F
330
1
100
AcDbSymbolTableRecord
100
AcDbBlockTableRecord
  2
*MODEL_SPACE
  0
BLOCK_RECORD
  5
1B
330
1
100
AcDbSymbolTableRecord
100
AcDbBlockTableRecord
  2
*PAPER_SPACE
  0
BLOCK_RECORD
  5
3C
330
1
100
AcDbSymbolTableRecord
100
AcDbBlockTableRecord
  2
BLOCK_2
  0
BLOCK_RECORD
  5
5D
330
1
100
AcDbSymbolTableRecord
100
AcDbBlockTableRecord
  2
BLOCK_3
  0
BLOCK_RECORD
  5
7E
330
1
100
AcDbSymbolTableRecord
100
AcDbBlockTableRecord
  2
BLOCK_4
  0
BLOCK_RECORD
  5
9F
330
1
100
AcDbSymbolTableRecord
100
AcDbBlockTableRecord
  2
BLOCK_5
  0
BLOCK_RECORD
  5
176
330
1
100
AcDbSymbolTableRecord
100
AcDbBlockTableRecord
  2
BLOCK_6
  0
BLOCK_RECORD
  5
200
330
1
100
AcDbSymbolTableRecord
100
AcDbBlockTableRecord
  2
BLOCK_7
  0
ENDTAB
  0
ENDSEC
  0
SECTION
  2
BLOCKS
  0
BLOCK
  5
20
330
1F
100
AcDbEntity
  8
0
100
AcDbBlockBegin
  2
*MODEL_SPACE
 70
     0
 71
     0
 10
0.0
 20
0.0
 30
0.0
  3
*MODEL_SPACE
  1

  0
ENDBLK
  5
21
330
1F
100
AcDbEntity
  8
0
100
AcDbBlockEnd
  0
BLOCK
  5
1C
330
1B
100
AcDbEntity
 67
     1
  8
0
100
AcDbBlockBegin
  2
*PAPER_SPACE
 70
     0
 71
     0
 10
0.0
 20
0.0
 30
0.0
  3
*PAPER_SPACE
  1

  0
ENDBLK
  5
1D
330
1B
100
AcDbEntity
 67
     1
  8
0
100
AcDbBlockEnd
  0
BLOCK
  5
3E
330
3C
100
AcDbEntity
  8
0
100
AcDbBlockBegin
  2
BLOCK_2
 70
     0
 71
     0
 10
0.0
 20
0.0
 30
0.0
  3
BLOCK_2
  1

  0
POLYLINE
  5
40
330
3C
100
AcDbEntity
  8
LAYER_2
 62
     7
100
AcDb2dPolyline
 66
     1
 10
0.0
 20
0.0
 30
0.0
  0
VERTEX
  5
41
330
40
100
AcDbEntity
  8
LAYER_2
 62
     7
100
AcDbVertex
100
AcDb2dVertex
 10
45.13835984436564
 20
262.2205152592717
 30
0.0
  0
VERTEX
  5
42
330
40
100
AcDbEntity
  8
LAYER_2
 62
     7
100
AcDbVertex
100
AcDb2dVertex
 10
17.13832781653201
 20
262.2205152592717
 30
0.0
  0
VERTEX
  5
43
330
40
100
AcDbEntity
  8
LAYER_2
 62
     7
100
AcDbVertex
100
AcDb2dVertex
 10
17.13832781653201
 20
281.2205739042063
 30
0.0
  0
VERTEX
  5
44
330
40
100
AcDbEntity
  8
LAYER_2
 62
     7
100
AcDbVertex
100
AcDb2dVertex
 10
45.13835984436564
 20
281.2205739042063
 30
0.0
  0
VERTEX
  5
45
330
40
100
AcDbEntity
  8
LAYER_2
 62
     7
100
AcDbVertex
100
AcDb2dVertex
 10
45.13835984436564
 20
262.2205152592717
 30
0.0
  0
SEQEND
  5
46
330
40
100
AcDbEntity
  8
LAYER_2
  0
POLYLINE
  5
47
330
3C
100
AcDbEntity
  8
LAYER_2
 62
     7
100
AcDb2dPolyline
 66
     1
 10
0.0
 20
0.0
 30
0.0
  0
VERTEX
  5
48
330
47
100
AcDbEntity
  8
LAYER_2
 62
     7
100
AcDbVertex
100
AcDb2dVertex
 10
37.63838202528304
 20
265.4704482292449
 30
0.0
  0
VERTEX
  5
49
330
47
100
AcDbEntity
  8
LAYER_2
 62
     7
100
AcDbVertex
100
AcDb2dVertex
 10
24.63830563561461
 20
265.4704482292449
 30
0.0
  0
VERTEX
  5
4A
330
47
100
AcDbEntity
  8
LAYER_2
 62
     7
100
AcDbVertex
100
AcDb2dVertex
 10
24.63830563561461
 20
277.9704686793452
 30
0.0
  0
VERTEX
  5
4B
330
47
100
AcDbEntity
  8
LAYER_2
 62
     7
100
AcDbVertex
100
AcDb2dVertex
 10
37.63838202528304
 20
277.9704686793452
 30
0.0
  0
VERTEX
  5
4C
330
47
100
AcDbEntity
  8
LAYER_2
 62
     7
100
AcDbVertex
100
AcDb2dVertex
 10
37.63838202528304
 20
265.4704482292449
 30
0.0
  0
SEQEND
  5
4D
330
47
100
AcDbEntity
  8
LAYER_2
  0
POLYLINE
  5
4E
330
3C
100
AcDbEntity
  8
LAYER_2
 62
     5
100
AcDb2dPolyline
 66
     1
 10
0.0
 20
0.0
 30
0.0
  0
VERTEX
  5
4F
330
4E
100
AcDbEntity
  8
LAYER_2
 62
     5
100
AcDbVertex
100
AcDb2dVertex
 10
24.63830563561461
 20
270.2210657825862
 30
0.0
  0
VERTEX
  5
50
330
4E
100
AcDbEntity
  8
LAYER_2
 62
     5
100
AcDbVertex
100
AcDb2dVertex
 10
17.13832781653201
 20
270.2210657825862
 30
0.0
  0
VERTEX
  5
51
330
4E
100
AcDbEntity
  8
LAYER_2
 62
     5
100
AcDbVertex
100
AcDb2dVertex
 10
17.13832781653201
 20
270.900783570232
 30
0.0
  0
VERTEX
  5
52
330
4E
100
AcDbEntity
  8
LAYER_2
 62
     5
100
AcDbVertex
100
AcDb2dVertex
 10
24.63830563561461
 20
270.900783570232
 30
0.0
  0
VERTEX
  5
53
330
4E
100
AcDbEntity
  8
LAYER_2
 62
     5
100
AcDbVertex
100
AcDb2dVertex
 10
24.63830563561461
 20
270.2210657825862
 30
0.0
  0
SEQEND
  5
54
330
4E
100
AcDbEntity
  8
LAYER_2
  0
POLYLINE
  5
55
330
3C
100
AcDbEntity
  8
LAYER_2
 62
     3
100
AcDb2dPolyline
 66
     1
 10
0.0
 20
0.0
 30
0.0
  0
VERTEX
  5
56
330
55
100
AcDbEntity
  8
LAYER_2
 62
     3
100
AcDbVertex
100
AcDb2dVertex
 10
24.63830563561461
 20
272.5399610834702
 30
0.0
  0
VERTEX
  5
57
330
55
100
AcDbEntity
  8
LAYER_2
 62
     3
100
AcDbVertex
100
AcDb2dVertex
 10
17.13832781653201
 20
272.5399610834702
 30
0.0
  0
VERTEX
  5
58
330
55
100
AcDbEntity
  8
LAYER_2
 62
     3
100
AcDbVertex
100
AcDb2dVertex
 10
17.13832781653201
 20
273.2196788711161
 30
0.0
  0
VERTEX
  5
59
330
55
100
AcDbEntity
  8
LAYER_2
 62
     3
100
AcDbVertex
100
AcDb2dVertex
 10
24.63830563561461
 20
273.2196788711161
 30
0.0
  0
VERTEX
  5
5A
330
55
100
AcDbEntity
  8
LAYER_2
 62
     3
100
AcDbVertex
100
AcDb2dVertex
 10
24.63830563561461
 20
272.5399610834702
 30
0.0
  0
SEQEND
  5
5B
330
55
100
AcDbEntity
  8
LAYER_2
  0
SPLINE
  5
5C
330
3C
100
AcDbEntity
  8
LAYER_2
 62
     5
100
AcDbSpline
210
0.0
220
0.0
230
1.0
 70
    11
 71
     3
 72
    47
 73
    43
 74
     0
 42
0.0000000001
 43
0.0000000001
 40
0.0
 40
0.0
 40
0.0
 40
0.0
 40
1.0
 40
1.0
 40
1.0
 40
2.0
 40
2.0
 40
2.0
 40
3.0
 40
3.0
 40
3.0
 40
4.0
 40
4.0
 40
4.0
 40
5.0
 40
5.0
 40
5.0
 40
6.0
 40
6.0
 40
6.0
 40
7.0
 40
7.0
 40
7.0
 40
8.0
 40
8.0
 40
8.0
 40
9.0
 40
9.0
 40
9.0
 40
10.0
 40
10.0
 40
10.0
 40
11.0
 40
11.0
 40
11.0
 40
12.0
 40
12.0
 40
12.0
 40
13.0
 40
13.0
 40
13.0
 40
14.0
 40
14.0
 40
14.0
 40
14.0
 10
44.74906379771596
 20
274.7630826666829
 30
0.0
 10
44.74906379771596
 20
274.7630826666829
 30
0.0
 10
44.74906379771596
 20
274.4984991588714
 30
0.0
 10
44.74906379771596
 20
274.4984991588714
 30
0.0
 10
44.74906379771596
 20
274.4984991588714
 30
0.0
 10
38.56029018531358
 20
274.4984991588714
 30
0.0
 10
38.56029018531358
 20
274.4984991588714
 30
0.0
 10
38.56029018531358
 20
274.4984991588714
 30
0.0
 10
37.98426984018239
 20
274.6376811082931
 30
0.0
 10
37.63838202528304
 20
274.1362471296217
 30
0.0
 10
37.63838202528304
 20
274.1362471296217
 30
0.0
 10
37.63838202528304
 20
271.764469578153
 30
0.0
 10
37.63838202528304
 20
271.764469578153
 30
0.0
 10
37.63838202528304
 20
271.764469578153
 30
0.0
 10
37.63838202528304
 20
271.6762750755492
 30
0.0
 10
37.63838202528304
 20
271.6762750755492
 30
0.0
 10
37.63838202528304
 20
271.6762750755492
 30
0.0
 10
37.63838202528304
 20
269.3044975240805
 30
0.0
 10
37.63838202528304
 20
269.3044975240805
 30
0.0
 10
37.98426984018239
 20
268.8030635454091
 30
0.0
 10
38.56029018531358
 20
268.9422454948308
 30
0.0
 10
38.56029018531358
 20
268.9422454948308
 30
0.0
 10
38.56029018531358
 20
268.9422454948308
 30
0.0
 10
44.74906379771596
 20
268.9422454948308
 30
0.0
 10
44.74906379771596
 20
268.9422454948308
 30
0.0
 10
44.74906379771596
 20
268.9422454948308
 30
0.0
 10
44.74906379771596
 20
268.6776619870193
 30
0.0
 10
44.74906379771596
 20
268.6776619870193
 30
0.0
 10
44.74906379771596
 20
268.6776619870193
 30
0.0
 10
45.13835984436564
 20
268.6776619870193
 30
0.0
 10
45.13835984436564
 20
268.6776619870193
 30
0.0
 10
45.13835984436564
 20
268.6776619870193
 30
0.0
 10
45.13835984436564
 20
271.6762750755492
 30
0.0
 10
45.13835984436564
 20
271.6762750755492
 30
0.0
 10
45.13835984436564
 20
271.6762750755492
 30
0.0
 10
45.13835984436564
 20
271.764469578153
 30
0.0
 10
45.13835984436564
 20
271.764469578153
 30
0.0
 10
45.13835984436564
 20
271.764469578153
 30
0.0
 10
45.13835984436564
 20
274.7630826666829
 30
0.0
 10
45.13835984436564
 20
274.7630826666829
 30
0.0
 10
45.13835984436564
 20
274.7630826666829
 30
0.0
 10
44.74906379771596
 20
274.7630826666829
 30
0.0
 10
44.74906379771596
 20
274.7630826666829
 30
0.0
  0
ENDBLK
  5
3F
330
3C
100
AcDbEntity
  8
0
100
AcDbBlockEnd
  0
BLOCK
  5
5F
330
5D
100
AcDbEntity
  8
0
100
AcDbBlockBegin
  2
BLOCK_3
 70
     0
 71
     0
 10
0.0
 20
0.0
 30
0.0
  3
BLOCK_3
  1

  0
POLYLINE
  5
61
330
5D
100
AcDbEntity
  8
LAYER_2
 62
     7
100
AcDb2dPolyline
 66
     1
 10
0.0
 20
0.0
 30
0.0
  0
VERTEX
  5
62
330
61
100
AcDbEntity
  8
LAYER_2
 62
     7
100
AcDbVertex
100
AcDb2dVertex
 10
76.34043798333676
 20
262.2203430043838
 30
0.0
  0
VERTEX
  5
63
330
61
100
AcDbEntity
  8
LAYER_2
 62
     7
100
AcDbVertex
100
AcDb2dVertex
 10
48.34040595550312
 20
262.2203430043838
 30
0.0
  0
VERTEX
  5
64
330
61
100
AcDbEntity
  8
LAYER_2
 62
     7
100
AcDbVertex
100
AcDb2dVertex
 10
48.34040595550312
 20
281.2204016493184
 30
0.0
  0
VERTEX
  5
65
330
61
100
AcDbEntity
  8
LAYER_2
 62
     7
100
AcDbVertex
100
AcDb2dVertex
 10
76.34043798333676
 20
281.2204016493184
 30
0.0
  0
VERTEX
  5
66
330
61
100
AcDbEntity
  8
LAYER_2
 62
     7
100
AcDbVertex
100
AcDb2dVertex
 10
76.34043798333676
 20
262.2203430043838
 30
0.0
  0
SEQEND
  5
67
330
61
100
AcDbEntity
  8
LAYER_2
  0
POLYLINE
  5
68
330
5D
100
AcDbEntity
  8
LAYER_2
 62
     7
100
AcDb2dPolyline
 66
     1
 10
0.0
 20
0.0
 30
0.0
  0
VERTEX
  5
69
330
68
100
AcDbEntity
  8
LAYER_2
 62
     7
100
AcDbVertex
100
AcDb2dVertex
 10
68.84046016425415
 20
265.470275974357
 30
0.0
  0
VERTEX
  5
6A
330
68
100
AcDbEntity
  8
LAYER_2
 62
     7
100
AcDbVertex
100
AcDb2dVertex
 10
55.84038377458572
 20
265.470275974357
 30
0.0
  0
VERTEX
  5
6B
330
68
100
AcDbEntity
  8
LAYER_2
 62
     7
100
AcDbVertex
100
AcDb2dVertex
 10
55.84038377458572
 20
277.9702964244573
 30
0.0
  0
VERTEX
  5
6C
330
68
100
AcDbEntity
  8
LAYER_2
 62
     7
100
AcDbVertex
100
AcDb2dVertex
 10
68.84046016425415
 20
277.9702964244573
 30
0.0
  0
VERTEX
  5
6D
330
68
100
AcDbEntity
  8
LAYER_2
 62
     7
100
AcDbVertex
100
AcDb2dVertex
 10
68.84046016425415
 20
265.470275974357
 30
0.0
  0
SEQEND
  5
6E
330
68
100
AcDbEntity
  8
LAYER_2
  0
POLYLINE
  5
6F
330
5D
100
AcDbEntity
  8
LAYER_2
 62
     5
100
AcDb2dPolyline
 66
     1
 10
0.0
 20
0.0
 30
0.0
  0
VERTEX
  5
70
330
6F
100
AcDbEntity
  8
LAYER_2
 62
     5
100
AcDbVertex
100
AcDb2dVertex
 10
55.84038377458572
 20
270.2208935276983
 30
0.0
  0
VERTEX
  5
71
330
6F
100
AcDbEntity
  8
LAYER_2
 62
     5
100
AcDbVertex
100
AcDb2dVertex
 10
48.34040595550312
 20
270.2208935276983
 30
0.0
  0
VERTEX
  5
72
330
6F
100
AcDbEntity
  8
LAYER_2
 62
     5
100
AcDbVertex
100
AcDb2dVertex
 10
48.34040595550312
 20
270.9006113153441
 30
0.0
  0
VERTEX
  5
73
330
6F
100
AcDbEntity
  8
LAYER_2
 62
     5
100
AcDbVertex
100
AcDb2dVertex
 10
55.84038377458572
 20
270.9006113153441
 30
0.0
  0
VERTEX
  5
74
330
6F
100
AcDbEntity
  8
LAYER_2
 62
     5
100
AcDbVertex
100
AcDb2dVertex
 10
55.84038377458572
 20
270.2208935276983
 30
0.0
  0
SEQEND
  5
75
330
6F
100
AcDbEntity
  8
LAYER_2
  0
POLYLINE
  5
76
330
5D
100
AcDbEntity
  8
LAYER_2
 62
     3
100
AcDb2dPolyline
 66
     1
 10
0.0
 20
0.0
 30
0.0
  0
VERTEX
  5
77
330
76
100
AcDbEntity
  8
LAYER_2
 62
     3
100
AcDbVertex
100
AcDb2dVertex
 10
55.84038377458572
 20
272.5397888285823
 30
0.0
  0
VERTEX
  5
78
330
76
100
AcDbEntity
  8
LAYER_2
 62
     3
100
AcDbVertex
100
AcDb2dVertex
 10
48.34040595550312
 20
272.5397888285823
 30
0.0
  0
VERTEX
  5
79
330
76
100
AcDbEntity
  8
LAYER_2
 62
     3
100
AcDbVertex
100
AcDb2dVertex
 10
48.34040595550312
 20
273.2195066162282
 30
0.0
  0
VERTEX
  5
7A
330
76
100
AcDbEntity
  8
LAYER_2
 62
     3
100
AcDbVertex
100
AcDb2dVertex
 10
55.84038377458572
 20
273.2195066162282
 30
0.0
  0
VERTEX
  5
7B
330
76
100
AcDbEntity
  8
LAYER_2
 62
     3
100
AcDbVertex
100
AcDb2dVertex
 10
55.84038377458572
 20
272.5397888285823
 30
0.0
  0
SEQEND
  5
7C
330
76
100
AcDbEntity
  8
LAYER_2
  0
SPLINE
  5
7D
330
5D
100
AcDbEntity
  8
LAYER_2
 62
     5
100
AcDbSpline
210
0.0
220
0.0
230
1.0
 70
    11
 71
     3
 72
    47
 73
    43
 74
     0
 42
0.0000000001
 43
0.0000000001
 40
0.0
 40
0.0
 40
0.0
 40
0.0
 40
1.0
 40
1.0
 40
1.0
 40
2.0
 40
2.0
 40
2.0
 40
3.0
 40
3.0
 40
3.0
 40
4.0
 40
4.0
 40
4.0
 40
5.0
 40
5.0
 40
5.0
 40
6.0
 40
6.0
 40
6.0
 40
7.0
 40
7.0
 40
7.0
 40
8.0
 40
8.0
 40
8.0
 40
9.0
 40
9.0
 40
9.0
 40
10.0
 40
10.0
 40
10.0
 40
11.0
 40
11.0
 40
11.0
 40
12.0
 40
12.0
 40
12.0
 40
13.0
 40
13.0
 40
13.0
 40
14.0
 40
14.0
 40
14.0
 40
14.0
 10
75.95114193668708
 20
274.762910411795
 30
0.0
 10
75.95114193668708
 20
274.762910411795
 30
0.0
 10
75.95114193668708
 20
274.4983269039835
 30
0.0
 10
75.95114193668708
 20
274.4983269039835
 30
0.0
 10
75.95114193668708
 20
274.4983269039835
 30
0.0
 10
69.76236832428471
 20
274.4983269039835
 30
0.0
 10
69.76236832428471
 20
274.4983269039835
 30
0.0
 10
69.76236832428471
 20
274.4983269039835
 30
0.0
 10
69.18634797915351
 20
274.6375088534052
 30
0.0
 10
68.84046016425415
 20
274.1360748747338
 30
0.0
 10
68.84046016425415
 20
274.1360748747338
 30
0.0
 10
68.84046016425415
 20
271.7642973232651
 30
0.0
 10
68.84046016425415
 20
271.7642973232651
 30
0.0
 10
68.84046016425415
 20
271.7642973232651
 30
0.0
 10
68.84046016425415
 20
271.6761028206613
 30
0.0
 10
68.84046016425415
 20
271.6761028206613
 30
0.0
 10
68.84046016425415
 20
271.6761028206613
 30
0.0
 10
68.84046016425415
 20
269.3043252691926
 30
0.0
 10
68.84046016425415
 20
269.3043252691926
 30
0.0
 10
69.18634797915351
 20
268.8028912905212
 30
0.0
 10
69.76236832428471
 20
268.9420732399429
 30
0.0
 10
69.76236832428471
 20
268.9420732399429
 30
0.0
 10
69.76236832428471
 20
268.9420732399429
 30
0.0
 10
75.95114193668708
 20
268.9420732399429
 30
0.0
 10
75.95114193668708
 20
268.9420732399429
 30
0.0
 10
75.95114193668708
 20
268.9420732399429
 30
0.0
 10
75.95114193668708
 20
268.6774897321314
 30
0.0
 10
75.95114193668708
 20
268.6774897321314
 30
0.0
 10
75.95114193668708
 20
268.6774897321314
 30
0.0
 10
76.34043798333676
 20
268.6774897321314
 30
0.0
 10
76.34043798333676
 20
268.6774897321314
 30
0.0
 10
76.34043798333676
 20
268.6774897321314
 30
0.0
 10
76.34043798333676
 20
271.6761028206613
 30
0.0
 10
76.34043798333676
 20
271.6761028206613
 30
0.0
 10
76.34043798333676
 20
271.6761028206613
 30
0.0
 10
76.34043798333676
 20
271.7642973232651
 30
0.0
 10
76.34043798333676
 20
271.7642973232651
 30
0.0
 10
76.34043798333676
 20
271.7642973232651
 30
0.0
 10
76.34043798333676
 20
274.762910411795
 30
0.0
 10
76.34043798333676
 20
274.762910411795
 30
0.0
 10
76.34043798333676
 20
274.762910411795
 30
0.0
 10
75.95114193668708
 20
274.762910411795
 30
0.0
 10
75.95114193668708
 20
274.762910411795
 30
0.0
  0
ENDBLK
  5
60
330
5D
100
AcDbEntity
  8
0
100
AcDbBlockEnd
  0
BLOCK
  5
80
330
7E
100
AcDbEntity
  8
0
100
AcDbBlockBegin
  2
BLOCK_4
 70
     0
 71
     0
 10
0.0
 20
0.0
 30
0.0
  3
BLOCK_4
  1

  0
POLYLINE
  5
82
330
7E
100
AcDbEntity
  8
LAYER_2
 62
     7
100
AcDb2dPolyline
 66
     1
 10
0.0
 20
0.0
 30
0.0
  0
VERTEX
  5
83
330
82
100
AcDbEntity
  8
LAYER_2
 62
     7
100
AcDbVertex
100
AcDb2dVertex
 10
107.4043677022136
 20
262.2205152592717
 30
0.0
  0
VERTEX
  5
84
330
82
100
AcDbEntity
  8
LAYER_2
 62
     7
100
AcDbVertex
100
AcDb2dVertex
 10
79.40433567437998
 20
262.2205152592717
 30
0.0
  0
VERTEX
  5
85
330
82
100
AcDbEntity
  8
LAYER_2
 62
     7
100
AcDbVertex
100
AcDb2dVertex
 10
79.40433567437998
 20
281.2205739042063
 30
0.0
  0
VERTEX
  5
86
330
82
100
AcDbEntity
  8
LAYER_2
 62
     7
100
AcDbVertex
100
AcDb2dVertex
 10
107.4043677022136
 20
281.2205739042063
 30
0.0
  0
VERTEX
  5
87
330
82
100
AcDbEntity
  8
LAYER_2
 62
     7
100
AcDbVertex
100
AcDb2dVertex
 10
107.4043677022136
 20
262.2205152592717
 30
0.0
  0
SEQEND
  5
88
330
82
100
AcDbEntity
  8
LAYER_2
  0
POLYLINE
  5
89
330
7E
100
AcDbEntity
  8
LAYER_2
 62
     7
100
AcDb2dPolyline
 66
     1
 10
0.0
 20
0.0
 30
0.0
  0
VERTEX
  5
8A
330
89
100
AcDbEntity
  8
LAYER_2
 62
     7
100
AcDbVertex
100
AcDb2dVertex
 10
99.904389883131
 20
265.4704482292449
 30
0.0
  0
VERTEX
  5
8B
330
89
100
AcDbEntity
  8
LAYER_2
 62
     7
100
AcDbVertex
100
AcDb2dVertex
 10
86.90431349346257
 20
265.4704482292449
 30
0.0
  0
VERTEX
  5
8C
330
89
100
AcDbEntity
  8
LAYER_2
 62
     7
100
AcDbVertex
100
AcDb2dVertex
 10
86.90431349346257
 20
277.9704686793452
 30
0.0
  0
VERTEX
  5
8D
330
89
100
AcDbEntity
  8
LAYER_2
 62
     7
100
AcDbVertex
100
AcDb2dVertex
 10
99.904389883131
 20
277.9704686793452
 30
0.0
  0
VERTEX
  5
8E
330
89
100
AcDbEntity
  8
LAYER_2
 62
     7
100
AcDbVertex
100
AcDb2dVertex
 10
99.904389883131
 20
265.4704482292449
 30
0.0
  0
SEQEND
  5
8F
330
89
100
AcDbEntity
  8
LAYER_2
  0
POLYLINE
  5
90
330
7E
100
AcDbEntity
  8
LAYER_2
 62
     5
100
AcDb2dPolyline
 66
     1
 10
0.0
 20
0.0
 30
0.0
  0
VERTEX
  5
91
330
90
100
AcDbEntity
  8
LAYER_2
 62
     5
100
AcDbVertex
100
AcDb2dVertex
 10
86.90431349346257
 20
270.2210657825862
 30
0.0
  0
VERTEX
  5
92
330
90
100
AcDbEntity
  8
LAYER_2
 62
     5
100
AcDbVertex
100
AcDb2dVertex
 10
79.40433567437998
 20
270.2210657825862
 30
0.0
  0
VERTEX
  5
93
330
90
100
AcDbEntity
  8
LAYER_2
 62
     5
100
AcDbVertex
100
AcDb2dVertex
 10
79.40433567437998
 20
270.900783570232
 30
0.0
  0
VERTEX
  5
94
330
90
100
AcDbEntity
  8
LAYER_2
 62
     5
100
AcDbVertex
100
AcDb2dVertex
 10
86.90431349346257
 20
270.900783570232
 30
0.0
  0
VERTEX
  5
95
330
90
100
AcDbEntity
  8
LAYER_2
 62
     5
100
AcDbVertex
100
AcDb2dVertex
 10
86.90431349346257
 20
270.2210657825862
 30
0.0
  0
SEQEND
  5
96
330
90
100
AcDbEntity
  8
LAYER_2
  0
POLYLINE
  5
97
330
7E
100
AcDbEntity
  8
LAYER_2
 62
     3
100
AcDb2dPolyline
 66
     1
 10
0.0
 20
0.0
 30
0.0
  0
VERTEX
  5
98
330
97
100
AcDbEntity
  8
LAYER_2
 62
     3
100
AcDbVertex
100
AcDb2dVertex
 10
86.90431349346257
 20
272.5399610834702
 30
0.0
  0
VERTEX
  5
99
330
97
100
AcDbEntity
  8
LAYER_2
 62
     3
100
AcDbVertex
100
AcDb2dVertex
 10
79.40433567437998
 20
272.5399610834702
 30
0.0
  0
VERTEX
  5
9A
330
97
100
AcDbEntity
  8
LAYER_2
 62
     3
100
AcDbVertex
100
AcDb2dVertex
 10
79.40433567437998
 20
273.2196788711161
 30
0.0
  0
VERTEX
  5
9B
330
97
100
AcDbEntity
  8
LAYER_2
 62
     3
100
AcDbVertex
100
AcDb2dVertex
 10
86.90431349346257
 20
273.2196788711161
 30
0.0
  0
VERTEX
  5
9C
330
97
100
AcDbEntity
  8
LAYER_2
 62
     3
100
AcDbVertex
100
AcDb2dVertex
 10
86.90431349346257
 20
272.5399610834702
 30
0.0
  0
SEQEND
  5
9D
330
97
100
AcDbEntity
  8
LAYER_2
  0
SPLINE
  5
9E
330
7E
100
AcDbEntity
  8
LAYER_2
 62
     5
100
AcDbSpline
210
0.0
220
0.0
230
1.0
 70
    11
 71
     3
 72
    47
 73
    43
 74
     0
 42
0.0000000001
 43
0.0000000001
 40
0.0
 40
0.0
 40
0.0
 40
0.0
 40
1.0
 40
1.0
 40
1.0
 40
2.0
 40
2.0
 40
2.0
 40
3.0
 40
3.0
 40
3.0
 40
4.0
 40
4.0
 40
4.0
 40
5.0
 40
5.0
 40
5.0
 40
6.0
 40
6.0
 40
6.0
 40
7.0
 40
7.0
 40
7.0
 40
8.0
 40
8.0
 40
8.0
 40
9.0
 40
9.0
 40
9.0
 40
10.0
 40
10.0
 40
10.0
 40
11.0
 40
11.0
 40
11.0
 40
12.0
 40
12.0
 40
12.0
 40
13.0
 40
13.0
 40
13.0
 40
14.0
 40
14.0
 40
14.0
 40
14.0
 10
107.0150716555639
 20
274.7630826666829
 30
0.0
 10
107.0150716555639
 20
274.7630826666829
 30
0.0
 10
107.0150716555639
 20
274.4984991588714
 30
0.0
 10
107.0150716555639
 20
274.4984991588714
 30
0.0
 10
107.0150716555639
 20
274.4984991588714
 30
0.0
 10
100.8262980431616
 20
274.4984991588714
 30
0.0
 10
100.8262980431616
 20
274.4984991588714
 30
0.0
 10
100.8262980431616
 20
274.4984991588714
 30
0.0
 10
100.2502776980304
 20
274.6376811082931
 30
0.0
 10
99.904389883131
 20
274.1362471296217
 30
0.0
 10
99.904389883131
 20
274.1362471296217
 30
0.0
 10
99.904389883131
 20
271.764469578153
 30
0.0
 10
99.904389883131
 20
271.764469578153
 30
0.0
 10
99.904389883131
 20
271.764469578153
 30
0.0
 10
99.904389883131
 20
271.6762750755492
 30
0.0
 10
99.904389883131
 20
271.6762750755492
 30
0.0
 10
99.904389883131
 20
271.6762750755492
 30
0.0
 10
99.904389883131
 20
269.3044975240805
 30
0.0
 10
99.904389883131
 20
269.3044975240805
 30
0.0
 10
100.2502776980304
 20
268.8030635454091
 30
0.0
 10
100.8262980431616
 20
268.9422454948308
 30
0.0
 10
100.8262980431616
 20
268.9422454948308
 30
0.0
 10
100.8262980431616
 20
268.9422454948308
 30
0.0
 10
107.0150716555639
 20
268.9422454948308
 30
0.0
 10
107.0150716555639
 20
268.9422454948308
 30
0.0
 10
107.0150716555639
 20
268.9422454948308
 30
0.0
 10
107.0150716555639
 20
268.6776619870193
 30
0.0
 10
107.0150716555639
 20
268.6776619870193
 30
0.0
 10
107.0150716555639
 20
268.6776619870193
 30
0.0
 10
107.4043677022136
 20
268.6776619870193
 30
0.0
 10
107.4043677022136
 20
268.6776619870193
 30
0.0
 10
107.4043677022136
 20
268.6776619870193
 30
0.0
 10
107.4043677022136
 20
271.6762750755492
 30
0.0
 10
107.4043677022136
 20
271.6762750755492
 30
0.0
 10
107.4043677022136
 20
271.6762750755492
 30
0.0
 10
107.4043677022136
 20
271.764469578153
 30
0.0
 10
107.4043677022136
 20
271.764469578153
 30
0.0
 10
107.4043677022136
 20
271.764469578153
 30
0.0
 10
107.4043677022136
 20
274.7630826666829
 30
0.0
 10
107.4043677022136
 20
274.7630826666829
 30
0.0
 10
107.4043677022136
 20
274.7630826666829
 30
0.0
 10
107.0150716555639
 20
274.7630826666829
 30
0.0
 10
107.0150716555639
 20
274.7630826666829
 30
0.0
  0
ENDBLK
  5
81
330
7E
100
AcDbEntity
  8
0
100
AcDbBlockEnd
  0
BLOCK
  5
A1
330
9F
100
AcDbEntity
  8
0
100
AcDbBlockBegin
  2
BLOCK_5
 70
     0
 71
     0
 10
0.0
 20
0.0
 30
0.0
  3
BLOCK_5
  1

  0
POLYLINE
  5
A3
330
9F
100
AcDbEntity
  8
LAYER_2
 62
     7
100
AcDb2dPolyline
 66
     1
 10
0.0
 20
0.0
 30
0.0
  0
VERTEX
  5
A4
330
A3
100
AcDbEntity
  8
LAYER_2
 62
     7
100
AcDbVertex
100
AcDb2dVertex
 10
138.6064458411847
 20
262.2203430043838
 30
0.0
  0
VERTEX
  5
A5
330
A3
100
AcDbEntity
  8
LAYER_2
 62
     7
100
AcDbVertex
100
AcDb2dVertex
 10
110.6064138133511
 20
262.2203430043838
 30
0.0
  0
VERTEX
  5
A6
330
A3
100
AcDbEntity
  8
LAYER_2
 62
     7
100
AcDbVertex
100
AcDb2dVertex
 10
110.6064138133511
 20
281.2204016493184
 30
0.0
  0
VERTEX
  5
A7
330
A3
100
AcDbEntity
  8
LAYER_2
 62
     7
100
AcDbVertex
100
AcDb2dVertex
 10
138.6064458411847
 20
281.2204016493184
 30
0.0
  0
VERTEX
  5
A8
330
A3
100
AcDbEntity
  8
LAYER_2
 62
     7
100
AcDbVertex
100
AcDb2dVertex
 10
138.6064458411847
 20
262.2203430043838
 30
0.0
  0
SEQEND
  5
A9
330
A3
100
AcDbEntity
  8
LAYER_2
  0
POLYLINE
  5
AA
330
9F
100
AcDbEntity
  8
LAYER_2
 62
     7
100
AcDb2dPolyline
 66
     1
 10
0.0
 20
0.0
 30
0.0
  0
VERTEX
  5
AB
330
AA
100
AcDbEntity
  8
LAYER_2
 62
     7
100
AcDbVertex
100
AcDb2dVertex
 10
131.1064680221021
 20
265.470275974357
 30
0.0
  0
VERTEX
  5
AC
330
AA
100
AcDbEntity
  8
LAYER_2
 62
     7
100
AcDbVertex
100
AcDb2dVertex
 10
118.1063916324337
 20
265.470275974357
 30
0.0
  0
VERTEX
  5
AD
330
AA
100
AcDbEntity
  8
LAYER_2
 62
     7
100
AcDbVertex
100
AcDb2dVertex
 10
118.1063916324337
 20
277.9702964244573
 30
0.0
  0
VERTEX
  5
AE
330
AA
100
AcDbEntity
  8
LAYER_2
 62
     7
100
AcDbVertex
100
AcDb2dVertex
 10
131.1064680221021
 20
277.9702964244573
 30
0.0
  0
VERTEX
  5
AF
330
AA
100
AcDbEntity
  8
LAYER_2
 62
     7
100
AcDbVertex
100
AcDb2dVertex
 10
131.1064680221021
 20
265.470275974357
 30
0.0
  0
SEQEND
  5
B0
330
AA
100
AcDbEntity
  8
LAYER_2
  0
POLYLINE
  5
B1
330
9F
100
AcDbEntity
  8
LAYER_2
 62
     5
100
AcDb2dPolyline
 66
     1
 10
0.0
 20
0.0
 30
0.0
  0
VERTEX
  5
B2
330
B1
100
AcDbEntity
  8
LAYER_2
 62
     5
100
AcDbVertex
100
AcDb2dVertex
 10
118.1063916324337
 20
270.2208935276983
 30
0.0
  0
VERTEX
  5
B3
330
B1
100
AcDbEntity
  8
LAYER_2
 62
     5
100
AcDbVertex
100
AcDb2dVertex
 10
110.6064138133511
 20
270.2208935276983
 30
0.0
  0
VERTEX
  5
B4
330
B1
100
AcDbEntity
  8
LAYER_2
 62
     5
100
AcDbVertex
100
AcDb2dVertex
 10
110.6064138133511
 20
270.9006113153441
 30
0.0
  0
VERTEX
  5
B5
330
B1
100
AcDbEntity
  8
LAYER_2
 62
     5
100
AcDbVertex
100
AcDb2dVertex
 10
118.1063916324337
 20
270.9006113153441
 30
0.0
  0
VERTEX
  5
B6
330
B1
100
AcDbEntity
  8
LAYER_2
 62
     5
100
AcDbVertex
100
AcDb2dVertex
 10
118.1063916324337
 20
270.2208935276983
 30
0.0
  0
SEQEND
  5
B7
330
B1
100
AcDbEntity
  8
LAYER_2
  0
POLYLINE
  5
B8
330
9F
100
AcDbEntity
  8
LAYER_2
 62
     3
100
AcDb2dPolyline
 66
     1
 10
0.0
 20
0.0
 30
0.0
  0
VERTEX
  5
B9
330
B8
100
AcDbEntity
  8
LAYER_2
 62
     3
100
AcDbVertex
100
AcDb2dVertex
 10
118.1063916324337
 20
272.5397888285823
 30
0.0
  0
VERTEX
  5
BA
330
B8
100
AcDbEntity
  8
LAYER_2
 62
     3
100
AcDbVertex
100
AcDb2dVertex
 10
110.6064138133511
 20
272.5397888285823
 30
0.0
  0
VERTEX
  5
BB
330
B8
100
AcDbEntity
  8
LAYER_2
 62
     3
100
AcDbVertex
100
AcDb2dVertex
 10
110.6064138133511
 20
273.2195066162282
 30
0.0
  0
VERTEX
  5
BC
330
B8
100
AcDbEntity
  8
LAYER_2
 62
     3
100
AcDbVertex
100
AcDb2dVertex
 10
118.1063916324337
 20
273.2195066162282
 30
0.0
  0
VERTEX
  5
BD
330
B8
100
AcDbEntity
  8
LAYER_2
 62
     3
100
AcDbVertex
100
AcDb2dVertex
 10
118.1063916324337
 20
272.5397888285823
 30
0.0
  0
SEQEND
  5
BE
330
B8
100
AcDbEntity
  8
LAYER_2
  0
SPLINE
  5
BF
330
9F
100
AcDbEntity
  8
LAYER_2
 62
     5
100
AcDbSpline
210
0.0
220
0.0
230
1.0
 70
    11
 71
     3
 72
    47
 73
    43
 74
     0
 42
0.0000000001
 43
0.0000000001
 40
0.0
 40
0.0
 40
0.0
 40
0.0
 40
1.0
 40
1.0
 40
1.0
 40
2.0
 40
2.0
 40
2.0
 40
3.0
 40
3.0
 40
3.0
 40
4.0
 40
4.0
 40
4.0
 40
5.0
 40
5.0
 40
5.0
 40
6.0
 40
6.0
 40
6.0
 40
7.0
 40
7.0
 40
7.0
 40
8.0
 40
8.0
 40
8.0
 40
9.0
 40
9.0
 40
9.0
 40
10.0
 40
10.0
 40
10.0
 40
11.0
 40
11.0
 40
11.0
 40
12.0
 40
12.0
 40
12.0
 40
13.0
 40
13.0
 40
13.0
 40
14.0
 40
14.0
 40
14.0
 40
14.0
 10
138.217149794535
 20
274.762910411795
 30
0.0
 10
138.217149794535
 20
274.762910411795
 30
0.0
 10
138.217149794535
 20
274.4983269039835
 30
0.0
 10
138.217149794535
 20
274.4983269039835
 30
0.0
 10
138.217149794535
 20
274.4983269039835
 30
0.0
 10
132.0283761821327
 20
274.4983269039835
 30
0.0
 10
132.0283761821327
 20
274.4983269039835
 30
0.0
 10
132.0283761821327
 20
274.4983269039835
 30
0.0
 10
131.4523558370015
 20
274.6375088534052
 30
0.0
 10
131.1064680221021
 20
274.1360748747338
 30
0.0
 10
131.1064680221021
 20
274.1360748747338
 30
0.0
 10
131.1064680221021
 20
271.7642973232651
 30
0.0
 10
131.1064680221021
 20
271.7642973232651
 30
0.0
 10
131.1064680221021
 20
271.7642973232651
 30
0.0
 10
131.1064680221021
 20
271.6761028206613
 30
0.0
 10
131.1064680221021
 20
271.6761028206613
 30
0.0
 10
131.1064680221021
 20
271.6761028206613
 30
0.0
 10
131.1064680221021
 20
269.3043252691926
 30
0.0
 10
131.1064680221021
 20
269.3043252691926
 30
0.0
 10
131.4523558370015
 20
268.8028912905212
 30
0.0
 10
132.0283761821327
 20
268.9420732399429
 30
0.0
 10
132.0283761821327
 20
268.9420732399429
 30
0.0
 10
132.0283761821327
 20
268.9420732399429
 30
0.0
 10
138.217149794535
 20
268.9420732399429
 30
0.0
 10
138.217149794535
 20
268.9420732399429
 30
0.0
 10
138.217149794535
 20
268.9420732399429
 30
0.0
 10
138.217149794535
 20
268.6774897321314
 30
0.0
 10
138.217149794535
 20
268.6774897321314
 30
0.0
 10
138.217149794535
 20
268.6774897321314
 30
0.0
 10
138.6064458411847
 20
268.6774897321314
 30
0.0
 10
138.6064458411847
 20
268.6774897321314
 30
0.0
 10
138.6064458411847
 20
268.6774897321314
 30
0.0
 10
138.6064458411847
 20
271.6761028206613
 30
0.0
 10
138.6064458411847
 20
271.6761028206613
 30
0.0
 10
138.6064458411847
 20
271.6761028206613
 30
0.0
 10
138.6064458411847
 20
271.7642973232651
 30
0.0
 10
138.6064458411847
 20
271.7642973232651
 30
0.0
 10
138.6064458411847
 20
271.7642973232651
 30
0.0
 10
138.6064458411847
 20
274.762910411795
 30
0.0
 10
138.6064458411847
 20
274.762910411795
 30
0.0
 10
138.6064458411847
 20
274.762910411795
 30
0.0
 10
138.217149794535
 20
274.762910411795
 30
0.0
 10
138.217149794535
 20
274.762910411795
 30
0.0
  0
ENDBLK
  5
A2
330
9F
100
AcDbEntity
  8
0
100
AcDbBlockEnd
  0
BLOCK
  5
178
330
176
100
AcDbEntity
  8
0
100
AcDbBlockBegin
  2
BLOCK_6
 70
     0
 71
     0
 10
0.0
 20
0.0
 30
0.0
  3
BLOCK_6
  1

  0
POLYLINE
  5
17A
330
176
100
AcDbEntity
  8
LAYER_2
 62
     7
100
AcDb2dPolyline
 66
     1
 10
0.0
 20
0.0
 30
0.0
  0
VERTEX
  5
17B
330
17A
100
AcDbEntity
  8
LAYER_2
 62
     7
100
AcDbVertex
100
AcDb2dVertex
 10
170.6758273407227
 20
262.2205152592717
 30
0.0
  0
VERTEX
  5
17C
330
17A
100
AcDbEntity
  8
LAYER_2
 62
     7
100
AcDbVertex
100
AcDb2dVertex
 10
142.6757953128891
 20
262.2205152592717
 30
0.0
  0
VERTEX
  5
17D
330
17A
100
AcDbEntity
  8
LAYER_2
 62
     7
100
AcDbVertex
100
AcDb2dVertex
 10
142.6757953128891
 20
281.2205739042063
 30
0.0
  0
VERTEX
  5
17E
330
17A
100
AcDbEntity
  8
LAYER_2
 62
     7
100
AcDbVertex
100
AcDb2dVertex
 10
170.6758273407227
 20
281.2205739042063
 30
0.0
  0
VERTEX
  5
17F
330
17A
100
AcDbEntity
  8
LAYER_2
 62
     7
100
AcDbVertex
100
AcDb2dVertex
 10
170.6758273407227
 20
262.2205152592717
 30
0.0
  0
SEQEND
  5
180
330
17A
100
AcDbEntity
  8
LAYER_2
  0
POLYLINE
  5
181
330
176
100
AcDbEntity
  8
LAYER_2
 62
     7
100
AcDb2dPolyline
 66
     1
 10
0.0
 20
0.0
 30
0.0
  0
VERTEX
  5
182
330
181
100
AcDbEntity
  8
LAYER_2
 62
     7
100
AcDbVertex
100
AcDb2dVertex
 10
163.1758495216401
 20
265.4704482292449
 30
0.0
  0
VERTEX
  5
183
330
181
100
AcDbEntity
  8
LAYER_2
 62
     7
100
AcDbVertex
100
AcDb2dVertex
 10
150.1757731319717
 20
265.4704482292449
 30
0.0
  0
VERTEX
  5
184
330
181
100
AcDbEntity
  8
LAYER_2
 62
     7
100
AcDbVertex
100
AcDb2dVertex
 10
150.1757731319717
 20
277.9704686793452
 30
0.0
  0
VERTEX
  5
185
330
181
100
AcDbEntity
  8
LAYER_2
 62
     7
100
AcDbVertex
100
AcDb2dVertex
 10
163.1758495216401
 20
277.9704686793452
 30
0.0
  0
VERTEX
  5
186
330
181
100
AcDbEntity
  8
LAYER_2
 62
     7
100
AcDbVertex
100
AcDb2dVertex
 10
163.1758495216401
 20
265.4704482292449
 30
0.0
  0
SEQEND
  5
187
330
181
100
AcDbEntity
  8
LAYER_2
  0
POLYLINE
  5
188
330
176
100
AcDbEntity
  8
LAYER_2
 62
     5
100
AcDb2dPolyline
 66
     1
 10
0.0
 20
0.0
 30
0.0
  0
VERTEX
  5
189
330
188
100
AcDbEntity
  8
LAYER_2
 62
     5
100
AcDbVertex
100
AcDb2dVertex
 10
150.1757731319717
 20
270.2210657825862
 30
0.0
  0
VERTEX
  5
18A
330
188
100
AcDbEntity
  8
LAYER_2
 62
     5
100
AcDbVertex
100
AcDb2dVertex
 10
142.6757953128891
 20
270.2210657825862
 30
0.0
  0
VERTEX
  5
18B
330
188
100
AcDbEntity
  8
LAYER_2
 62
     5
100
AcDbVertex
100
AcDb2dVertex
 10
142.6757953128891
 20
270.900783570232
 30
0.0
  0
VERTEX
  5
18C
330
188
100
AcDbEntity
  8
LAYER_2
 62
     5
100
AcDbVertex
100
AcDb2dVertex
 10
150.1757731319717
 20
270.900783570232
 30
0.0
  0
VERTEX
  5
18D
330
188
100
AcDbEntity
  8
LAYER_2
 62
     5
100
AcDbVertex
100
AcDb2dVertex
 10
150.1757731319717
 20
270.2210657825862
 30
0.0
  0
SEQEND
  5
18E
330
188
100
AcDbEntity
  8
LAYER_2
  0
POLYLINE
  5
18F
330
176
100
AcDbEntity
  8
LAYER_2
 62
     3
100
AcDb2dPolyline
 66
     1
 10
0.0
 20
0.0
 30
0.0
  0
VERTEX
  5
190
330
18F
100
AcDbEntity
  8
LAYER_2
 62
     3
100
AcDbVertex
100
AcDb2dVertex
 10
150.1757731319717
 20
272.5399610834702
 30
0.0
  0
VERTEX
  5
191
330
18F
100
AcDbEntity
  8
LAYER_2
 62
     3
100
AcDbVertex
100
AcDb2dVertex
 10
142.6757953128891
 20
272.5399610834702
 30
0.0
  0
VERTEX
  5
192
330
18F
100
AcDbEntity
  8
LAYER_2
 62
     3
100
AcDbVertex
100
AcDb2dVertex
 10
142.6757953128891
 20
273.2196788711161
 30
0.0
  0
VERTEX
  5
193
330
18F
100
AcDbEntity
  8
LAYER_2
 62
     3
100
AcDbVertex
100
AcDb2dVertex
 10
150.1757731319717
 20
273.2196788711161
 30
0.0
  0
VERTEX
  5
194
330
18F
100
AcDbEntity
  8
LAYER_2
 62
     3
100
AcDbVertex
100
AcDb2dVertex
 10
150.1757731319717
 20
272.5399610834702
 30
0.0
  0
SEQEND
  5
195
330
18F
100
AcDbEntity
  8
LAYER_2
  0
SPLINE
  5
196
330
176
100
AcDbEntity
  8
LAYER_2
 62
     5
100
AcDbSpline
210
0.0
220
0.0
230
1.0
 70
    11
 71
     3
 72
    47
 73
    43
 74
     0
 42
0.0000000001
 43
0.0000000001
 40
0.0
 40
0.0
 40
0.0
 40
0.0
 40
1.0
 40
1.0
 40
1.0
 40
2.0
 40
2.0
 40
2.0
 40
3.0
 40
3.0
 40
3.0
 40
4.0
 40
4.0
 40
4.0
 40
5.0
 40
5.0
 40
5.0
 40
6.0
 40
6.0
 40
6.0
 40
7.0
 40
7.0
 40
7.0
 40
8.0
 40
8.0
 40
8.0
 40
9.0
 40
9.0
 40
9.0
 40
10.0
 40
10.0
 40
10.0
 40
11.0
 40
11.0
 40
11.0
 40
12.0
 40
12.0
 40
12.0
 40
13.0
 40
13.0
 40
13.0
 40
14.0
 40
14.0
 40
14.0
 40
14.0
 10
170.286531294073
 20
274.7630826666829
 30
0.0
 10
170.286531294073
 20
274.7630826666829
 30
0.0
 10
170.286531294073
 20
274.4984991588714
 30
0.0
 10
170.286531294073
 20
274.4984991588714
 30
0.0
 10
170.286531294073
 20
274.4984991588714
 30
0.0
 10
164.0977576816706
 20
274.4984991588714
 30
0.0
 10
164.0977576816706
 20
274.4984991588714
 30
0.0
 10
164.0977576816706
 20
274.4984991588714
 30
0.0
 10
163.5217373365394
 20
274.6376811082931
 30
0.0
 10
163.1758495216401
 20
274.1362471296217
 30
0.0
 10
163.1758495216401
 20
274.1362471296217
 30
0.0
 10
163.1758495216401
 20
271.764469578153
 30
0.0
 10
163.1758495216401
 20
271.764469578153
 30
0.0
 10
163.1758495216401
 20
271.764469578153
 30
0.0
 10
163.1758495216401
 20
271.6762750755492
 30
0.0
 10
163.1758495216401
 20
271.6762750755492
 30
0.0
 10
163.1758495216401
 20
271.6762750755492
 30
0.0
 10
163.1758495216401
 20
269.3044975240805
 30
0.0
 10
163.1758495216401
 20
269.3044975240805
 30
0.0
 10
163.5217373365394
 20
268.8030635454091
 30
0.0
 10
164.0977576816706
 20
268.9422454948308
 30
0.0
 10
164.0977576816706
 20
268.9422454948308
 30
0.0
 10
164.0977576816706
 20
268.9422454948308
 30
0.0
 10
170.286531294073
 20
268.9422454948308
 30
0.0
 10
170.286531294073
 20
268.9422454948308
 30
0.0
 10
170.286531294073
 20
268.9422454948308
 30
0.0
 10
170.286531294073
 20
268.6776619870193
 30
0.0
 10
170.286531294073
 20
268.6776619870193
 30
0.0
 10
170.286531294073
 20
268.6776619870193
 30
0.0
 10
170.6758273407227
 20
268.6776619870193
 30
0.0
 10
170.6758273407227
 20
268.6776619870193
 30
0.0
 10
170.6758273407227
 20
268.6776619870193
 30
0.0
 10
170.6758273407227
 20
271.6762750755492
 30
0.0
 10
170.6758273407227
 20
271.6762750755492
 30
0.0
 10
170.6758273407227
 20
271.6762750755492
 30
0.0
 10
170.6758273407227
 20
271.764469578153
 30
0.0
 10
170.6758273407227
 20
271.764469578153
 30
0.0
 10
170.6758273407227
 20
271.764469578153
 30
0.0
 10
170.6758273407227
 20
274.7630826666829
 30
0.0
 10
170.6758273407227
 20
274.7630826666829
 30
0.0
 10
170.6758273407227
 20
274.7630826666829
 30
0.0
 10
170.286531294073
 20
274.7630826666829
 30
0.0
 10
170.286531294073
 20
274.7630826666829
 30
0.0
  0
ENDBLK
  5
179
330
176
100
AcDbEntity
  8
0
100
AcDbBlockEnd
  0
BLOCK
  5
202
330
200
100
AcDbEntity
  8
0
100
AcDbBlockBegin
  2
BLOCK_7
 70
     0
 71
     0
 10
0.0
 20
0.0
 30
0.0
  3
BLOCK_7
  1

  0
POLYLINE
  5
204
330
200
100
AcDbEntity
  8
LAYER_2
 62
     4
100
AcDb2dPolyline
 66
     1
 10
0.0
 20
0.0
 30
0.0
  0
VERTEX
  5
205
330
204
100
AcDbEntity
  8
LAYER_2
 62
     4
100
AcDbVertex
100
AcDb2dVertex
 10
36.90698777126777
 20
134.0935400331428
 30
0.0
  0
VERTEX
  5
206
330
204
100
AcDbEntity
  8
LAYER_2
 62
     4
100
AcDbVertex
100
AcDb2dVertex
 10
36.90698777126777
 20
139.0448345308853
 30
0.0
  0
VERTEX
  5
207
330
204
100
AcDbEntity
  8
LAYER_2
 62
     4
100
AcDbVertex
100
AcDb2dVertex
 10
41.85811001412241
 20
139.0448345308853
 30
0.0
  0
VERTEX
  5
208
330
204
100
AcDbEntity
  8
LAYER_2
 62
     4
100
AcDbVertex
100
AcDb2dVertex
 10
41.85811001412241
 20
134.0935400331428
 30
0.0
  0
VERTEX
  5
209
330
204
100
AcDbEntity
  8
LAYER_2
 62
     4
100
AcDbVertex
100
AcDb2dVertex
 10
36.90698777126777
 20
134.0935400331428
 30
0.0
  0
SEQEND
  5
20A
330
204
100
AcDbEntity
  8
LAYER_2
  0
POLYLINE
  5
20B
330
200
100
AcDbEntity
  8
LAYER_2
 62
     4
100
AcDb2dPolyline
 66
     1
 10
0.0
 20
0.0
 30
0.0
  0
VERTEX
  5
20C
330
20B
100
AcDbEntity
  8
LAYER_2
 62
     4
100
AcDbVertex
100
AcDb2dVertex
 10
36.90698777126777
 20
114.2890510617242
 30
0.0
  0
VERTEX
  5
20D
330
20B
100
AcDbEntity
  8
LAYER_2
 62
     4
100
AcDbVertex
100
AcDb2dVertex
 10
36.90698777126777
 20
119.240001049691
 30
0.0
  0
VERTEX
  5
20E
330
20B
100
AcDbEntity
  8
LAYER_2
 62
     4
100
AcDbVertex
100
AcDb2dVertex
 10
41.85811001412241
 20
119.240001049691
 30
0.0
  0
VERTEX
  5
20F
330
20B
100
AcDbEntity
  8
LAYER_2
 62
     4
100
AcDbVertex
100
AcDb2dVertex
 10
41.85811001412241
 20
114.2890510617242
 30
0.0
  0
VERTEX
  5
210
330
20B
100
AcDbEntity
  8
LAYER_2
 62
     4
100
AcDbVertex
100
AcDb2dVertex
 10
36.90698777126777
 20
114.2890510617242
 30
0.0
  0
SEQEND
  5
211
330
20B
100
AcDbEntity
  8
LAYER_2
  0
POLYLINE
  5
212
330
200
100
AcDbEntity
  8
LAYER_2
 62
     4
100
AcDb2dPolyline
 66
     1
 10
0.0
 20
0.0
 30
0.0
  0
VERTEX
  5
213
330
212
100
AcDbEntity
  8
LAYER_2
 62
     4
100
AcDbVertex
100
AcDb2dVertex
 10
41.85811001412241
 20
139.0448345308853
 30
0.0
  0
VERTEX
  5
214
330
212
100
AcDbEntity
  8
LAYER_2
 62
     4
100
AcDbVertex
100
AcDb2dVertex
 10
41.85811001412241
 20
143.9957845188521
 30
0.0
  0
VERTEX
  5
215
330
212
100
AcDbEntity
  8
LAYER_2
 62
     4
100
AcDbVertex
100
AcDb2dVertex
 10
61.66277124042887
 20
143.9957845188521
 30
0.0
  0
VERTEX
  5
216
330
212
100
AcDbEntity
  8
LAYER_2
 62
     4
100
AcDbVertex
100
AcDb2dVertex
 10
61.66277124042887
 20
139.0448345308853
 30
0.0
  0
VERTEX
  5
217
330
212
100
AcDbEntity
  8
LAYER_2
 62
     4
100
AcDbVertex
100
AcDb2dVertex
 10
41.85811001412241
 20
139.0448345308853
 30
0.0
  0
SEQEND
  5
218
330
212
100
AcDbEntity
  8
LAYER_2
  0
POLYLINE
  5
219
330
200
100
AcDbEntity
  8
LAYER_2
 62
     4
100
AcDb2dPolyline
 66
     1
 10
0.0
 20
0.0
 30
0.0
  0
VERTEX
  5
21A
330
219
100
AcDbEntity
  8
LAYER_2
 62
     4
100
AcDbVertex
100
AcDb2dVertex
 10
41.85811001412241
 20
129.1422455354003
 30
0.0
  0
VERTEX
  5
21B
330
219
100
AcDbEntity
  8
LAYER_2
 62
     4
100
AcDbVertex
100
AcDb2dVertex
 10
41.85811001412241
 20
134.0935400331428
 30
0.0
  0
VERTEX
  5
21C
330
219
100
AcDbEntity
  8
LAYER_2
 62
     4
100
AcDbVertex
100
AcDb2dVertex
 10
56.71164899757423
 20
134.0935400331428
 30
0.0
  0
VERTEX
  5
21D
330
219
100
AcDbEntity
  8
LAYER_2
 62
     4
100
AcDbVertex
100
AcDb2dVertex
 10
56.71164899757423
 20
129.1422455354003
 30
0.0
  0
VERTEX
  5
21E
330
219
100
AcDbEntity
  8
LAYER_2
 62
     4
100
AcDbVertex
100
AcDb2dVertex
 10
41.85811001412241
 20
129.1422455354003
 30
0.0
  0
SEQEND
  5
21F
330
219
100
AcDbEntity
  8
LAYER_2
  0
POLYLINE
  5
220
330
200
100
AcDbEntity
  8
LAYER_2
 62
     4
100
AcDb2dPolyline
 66
     1
 10
0.0
 20
0.0
 30
0.0
  0
VERTEX
  5
221
330
220
100
AcDbEntity
  8
LAYER_2
 62
     4
100
AcDbVertex
100
AcDb2dVertex
 10
41.85811001412241
 20
109.3377565639817
 30
0.0
  0
VERTEX
  5
222
330
220
100
AcDbEntity
  8
LAYER_2
 62
     4
100
AcDbVertex
100
AcDb2dVertex
 10
41.85811001412241
 20
114.2890510617242
 30
0.0
  0
VERTEX
  5
223
330
220
100
AcDbEntity
  8
LAYER_2
 62
     4
100
AcDbVertex
100
AcDb2dVertex
 10
56.71164899757423
 20
114.2890510617242
 30
0.0
  0
VERTEX
  5
224
330
220
100
AcDbEntity
  8
LAYER_2
 62
     4
100
AcDbVertex
100
AcDb2dVertex
 10
56.71164899757423
 20
109.3377565639817
 30
0.0
  0
VERTEX
  5
225
330
220
100
AcDbEntity
  8
LAYER_2
 62
     4
100
AcDbVertex
100
AcDb2dVertex
 10
41.85811001412241
 20
109.3377565639817
 30
0.0
  0
SEQEND
  5
226
330
220
100
AcDbEntity
  8
LAYER_2
  0
POLYLINE
  5
227
330
200
100
AcDbEntity
  8
LAYER_2
 62
     4
100
AcDb2dPolyline
 66
     1
 10
0.0
 20
0.0
 30
0.0
  0
VERTEX
  5
228
330
227
100
AcDbEntity
  8
LAYER_2
 62
     4
100
AcDbVertex
100
AcDb2dVertex
 10
56.71164899757423
 20
114.2890510617242
 30
0.0
  0
VERTEX
  5
229
330
227
100
AcDbEntity
  8
LAYER_2
 62
     4
100
AcDbVertex
100
AcDb2dVertex
 10
56.71164899757423
 20
129.1422455354003
 30
0.0
  0
VERTEX
  5
22A
330
227
100
AcDbEntity
  8
LAYER_2
 62
     4
100
AcDbVertex
100
AcDb2dVertex
 10
61.66277124042887
 20
129.1422455354003
 30
0.0
  0
VERTEX
  5
22B
330
227
100
AcDbEntity
  8
LAYER_2
 62
     4
100
AcDbVertex
100
AcDb2dVertex
 10
61.66277124042887
 20
114.2890510617242
 30
0.0
  0
VERTEX
  5
22C
330
227
100
AcDbEntity
  8
LAYER_2
 62
     4
100
AcDbVertex
100
AcDb2dVertex
 10
56.71164899757423
 20
114.2890510617242
 30
0.0
  0
SEQEND
  5
22D
330
227
100
AcDbEntity
  8
LAYER_2
  0
POLYLINE
  5
22E
330
200
100
AcDbEntity
  8
LAYER_2
 62
     4
100
AcDb2dPolyline
 66
     1
 10
0.0
 20
0.0
 30
0.0
  0
VERTEX
  5
22F
330
22E
100
AcDbEntity
  8
LAYER_2
 62
     4
100
AcDbVertex
100
AcDb2dVertex
 10
64.63347903711924
 20
109.3377565639817
 30
0.0
  0
VERTEX
  5
230
330
22E
100
AcDbEntity
  8
LAYER_2
 62
     4
100
AcDbVertex
100
AcDb2dVertex
 10
64.63347903711924
 20
143.9957845188521
 30
0.0
  0
VERTEX
  5
231
330
22E
100
AcDbEntity
  8
LAYER_2
 62
     4
100
AcDbVertex
100
AcDb2dVertex
 10
69.58460127997388
 20
143.9957845188521
 30
0.0
  0
VERTEX
  5
232
330
22E
100
AcDbEntity
  8
LAYER_2
 62
     4
100
AcDbVertex
100
AcDb2dVertex
 10
69.58460127997388
 20
129.1422455354003
 30
0.0
  0
VERTEX
  5
233
330
22E
100
AcDbEntity
  8
LAYER_2
 62
     4
100
AcDbVertex
100
AcDb2dVertex
 10
74.53572352282852
 20
129.1422455354003
 30
0.0
  0
VERTEX
  5
234
330
22E
100
AcDbEntity
  8
LAYER_2
 62
     4
100
AcDbVertex
100
AcDb2dVertex
 10
74.53572352282852
 20
124.1912955474335
 30
0.0
  0
VERTEX
  5
235
330
22E
100
AcDbEntity
  8
LAYER_2
 62
     4
100
AcDbVertex
100
AcDb2dVertex
 10
69.58460127997388
 20
124.1912955474335
 30
0.0
  0
VERTEX
  5
236
330
22E
100
AcDbEntity
  8
LAYER_2
 62
     4
100
AcDbVertex
100
AcDb2dVertex
 10
69.58460127997388
 20
109.3377565639817
 30
0.0
  0
VERTEX
  5
237
330
22E
100
AcDbEntity
  8
LAYER_2
 62
     4
100
AcDbVertex
100
AcDb2dVertex
 10
64.63347903711924
 20
109.3377565639817
 30
0.0
  0
SEQEND
  5
238
330
22E
100
AcDbEntity
  8
LAYER_2
  0
POLYLINE
  5
239
330
200
100
AcDbEntity
  8
LAYER_2
 62
     4
100
AcDb2dPolyline
 66
     1
 10
0.0
 20
0.0
 30
0.0
  0
VERTEX
  5
23A
330
239
100
AcDbEntity
  8
LAYER_2
 62
     4
100
AcDbVertex
100
AcDb2dVertex
 10
74.53572352282852
 20
129.1422455354003
 30
0.0
  0
VERTEX
  5
23B
330
239
100
AcDbEntity
  8
LAYER_2
 62
     4
100
AcDbVertex
100
AcDb2dVertex
 10
74.53572352282852
 20
134.0935400331428
 30
0.0
  0
VERTEX
  5
23C
330
239
100
AcDbEntity
  8
LAYER_2
 62
     4
100
AcDbVertex
100
AcDb2dVertex
 10
84.4381402634257
 20
134.0935400331428
 30
0.0
  0
VERTEX
  5
23D
330
239
100
AcDbEntity
  8
LAYER_2
 62
     4
100
AcDbVertex
100
AcDb2dVertex
 10
84.4381402634257
 20
129.1422455354003
 30
0.0
  0
VERTEX
  5
23E
330
239
100
AcDbEntity
  8
LAYER_2
 62
     4
100
AcDbVertex
100
AcDb2dVertex
 10
74.53572352282852
 20
129.1422455354003
 30
0.0
  0
SEQEND
  5
23F
330
239
100
AcDbEntity
  8
LAYER_2
  0
POLYLINE
  5
240
330
200
100
AcDbEntity
  8
LAYER_2
 62
     4
100
AcDb2dPolyline
 66
     1
 10
0.0
 20
0.0
 30
0.0
  0
VERTEX
  5
241
330
240
100
AcDbEntity
  8
LAYER_2
 62
     4
100
AcDbVertex
100
AcDb2dVertex
 10
84.4381402634257
 20
109.3377565639817
 30
0.0
  0
VERTEX
  5
242
330
240
100
AcDbEntity
  8
LAYER_2
 62
     4
100
AcDbVertex
100
AcDb2dVertex
 10
84.4381402634257
 20
129.1422455354003
 30
0.0
  0
VERTEX
  5
243
330
240
100
AcDbEntity
  8
LAYER_2
 62
     4
100
AcDbVertex
100
AcDb2dVertex
 10
89.38926250628033
 20
129.1422455354003
 30
0.0
  0
VERTEX
  5
244
330
240
100
AcDbEntity
  8
LAYER_2
 62
     4
100
AcDbVertex
100
AcDb2dVertex
 10
89.38926250628033
 20
109.3377565639817
 30
0.0
  0
VERTEX
  5
245
330
240
100
AcDbEntity
  8
LAYER_2
 62
     4
100
AcDbVertex
100
AcDb2dVertex
 10
84.4381402634257
 20
109.3377565639817
 30
0.0
  0
SEQEND
  5
246
330
240
100
AcDbEntity
  8
LAYER_2
  0
POLYLINE
  5
247
330
200
100
AcDbEntity
  8
LAYER_2
 62
     4
100
AcDb2dPolyline
 66
     1
 10
0.0
 20
0.0
 30
0.0
  0
VERTEX
  5
248
330
247
100
AcDbEntity
  8
LAYER_2
 62
     4
100
AcDbVertex
100
AcDb2dVertex
 10
92.35997030297071
 20
109.3377565639817
 30
0.0
  0
VERTEX
  5
249
330
247
100
AcDbEntity
  8
LAYER_2
 62
     4
100
AcDbVertex
100
AcDb2dVertex
 10
92.35997030297071
 20
134.0935400331428
 30
0.0
  0
VERTEX
  5
24A
330
247
100
AcDbEntity
  8
LAYER_2
 62
     4
100
AcDbVertex
100
AcDb2dVertex
 10
97.31109254582535
 20
134.0935400331428
 30
0.0
  0
VERTEX
  5
24B
330
247
100
AcDbEntity
  8
LAYER_2
 62
     4
100
AcDbVertex
100
AcDb2dVertex
 10
97.31109254582535
 20
129.1422455354003
 30
0.0
  0
VERTEX
  5
24C
330
247
100
AcDbEntity
  8
LAYER_2
 62
     4
100
AcDbVertex
100
AcDb2dVertex
 10
102.26221478868
 20
129.1422455354003
 30
0.0
  0
VERTEX
  5
24D
330
247
100
AcDbEntity
  8
LAYER_2
 62
     4
100
AcDbVertex
100
AcDb2dVertex
 10
102.26221478868
 20
124.1912955474335
 30
0.0
  0
VERTEX
  5
24E
330
247
100
AcDbEntity
  8
LAYER_2
 62
     4
100
AcDbVertex
100
AcDb2dVertex
 10
97.31109254582535
 20
124.1912955474335
 30
0.0
  0
VERTEX
  5
24F
330
247
100
AcDbEntity
  8
LAYER_2
 62
     4
100
AcDbVertex
100
AcDb2dVertex
 10
97.31109254582535
 20
109.3377565639817
 30
0.0
  0
VERTEX
  5
250
330
247
100
AcDbEntity
  8
LAYER_2
 62
     4
100
AcDbVertex
100
AcDb2dVertex
 10
92.35997030297071
 20
109.3377565639817
 30
0.0
  0
SEQEND
  5
251
330
247
100
AcDbEntity
  8
LAYER_2
  0
POLYLINE
  5
252
330
200
100
AcDbEntity
  8
LAYER_2
 62
     4
100
AcDb2dPolyline
 66
     1
 10
0.0
 20
0.0
 30
0.0
  0
VERTEX
  5
253
330
252
100
AcDbEntity
  8
LAYER_2
 62
     4
100
AcDbVertex
100
AcDb2dVertex
 10
102.26221478868
 20
129.1422455354003
 30
0.0
  0
VERTEX
  5
254
330
252
100
AcDbEntity
  8
LAYER_2
 62
     4
100
AcDbVertex
100
AcDb2dVertex
 10
102.26221478868
 20
134.0935400331428
 30
0.0
  0
VERTEX
  5
255
330
252
100
AcDbEntity
  8
LAYER_2
 62
     4
100
AcDbVertex
100
AcDb2dVertex
 10
112.1646315292772
 20
134.0935400331428
 30
0.0
  0
VERTEX
  5
256
330
252
100
AcDbEntity
  8
LAYER_2
 62
     4
100
AcDbVertex
100
AcDb2dVertex
 10
112.1646315292772
 20
129.1422455354003
 30
0.0
  0
VERTEX
  5
257
330
252
100
AcDbEntity
  8
LAYER_2
 62
     4
100
AcDbVertex
100
AcDb2dVertex
 10
102.26221478868
 20
129.1422455354003
 30
0.0
  0
SEQEND
  5
258
330
252
100
AcDbEntity
  8
LAYER_2
  0
POLYLINE
  5
259
330
200
100
AcDbEntity
  8
LAYER_2
 62
     4
100
AcDb2dPolyline
 66
     1
 10
0.0
 20
0.0
 30
0.0
  0
VERTEX
  5
25A
330
259
100
AcDbEntity
  8
LAYER_2
 62
     4
100
AcDbVertex
100
AcDb2dVertex
 10
112.1646315292772
 20
124.1912955474335
 30
0.0
  0
VERTEX
  5
25B
330
259
100
AcDbEntity
  8
LAYER_2
 62
     4
100
AcDbVertex
100
AcDb2dVertex
 10
112.1646315292772
 20
129.1422455354003
 30
0.0
  0
VERTEX
  5
25C
330
259
100
AcDbEntity
  8
LAYER_2
 62
     4
100
AcDbVertex
100
AcDb2dVertex
 10
117.1157537721318
 20
129.1422455354003
 30
0.0
  0
VERTEX
  5
25D
330
259
100
AcDbEntity
  8
LAYER_2
 62
     4
100
AcDbVertex
100
AcDb2dVertex
 10
117.1157537721318
 20
124.1912955474335
 30
0.0
  0
VERTEX
  5
25E
330
259
100
AcDbEntity
  8
LAYER_2
 62
     4
100
AcDbVertex
100
AcDb2dVertex
 10
112.1646315292772
 20
124.1912955474335
 30
0.0
  0
SEQEND
  5
25F
330
259
100
AcDbEntity
  8
LAYER_2
  0
POLYLINE
  5
260
330
200
100
AcDbEntity
  8
LAYER_2
 62
     4
100
AcDb2dPolyline
 66
     1
 10
0.0
 20
0.0
 30
0.0
  0
VERTEX
  5
261
330
260
100
AcDbEntity
  8
LAYER_2
 62
     4
100
AcDbVertex
100
AcDb2dVertex
 10
120.0864615688222
 20
139.0448345308853
 30
0.0
  0
VERTEX
  5
262
330
260
100
AcDbEntity
  8
LAYER_2
 62
     4
100
AcDbVertex
100
AcDb2dVertex
 10
120.0864615688222
 20
143.9957845188521
 30
0.0
  0
VERTEX
  5
263
330
260
100
AcDbEntity
  8
LAYER_2
 62
     4
100
AcDbVertex
100
AcDb2dVertex
 10
125.0375838116768
 20
143.9957845188521
 30
0.0
  0
VERTEX
  5
264
330
260
100
AcDbEntity
  8
LAYER_2
 62
     4
100
AcDbVertex
100
AcDb2dVertex
 10
125.0375838116768
 20
139.0448345308853
 30
0.0
  0
VERTEX
  5
265
330
260
100
AcDbEntity
  8
LAYER_2
 62
     4
100
AcDbVertex
100
AcDb2dVertex
 10
120.0864615688222
 20
139.0448345308853
 30
0.0
  0
SEQEND
  5
266
330
260
100
AcDbEntity
  8
LAYER_2
  0
POLYLINE
  5
267
330
200
100
AcDbEntity
  8
LAYER_2
 62
     4
100
AcDb2dPolyline
 66
     1
 10
0.0
 20
0.0
 30
0.0
  0
VERTEX
  5
268
330
267
100
AcDbEntity
  8
LAYER_2
 62
     4
100
AcDbVertex
100
AcDb2dVertex
 10
120.0864615688222
 20
109.3377565639817
 30
0.0
  0
VERTEX
  5
269
330
267
100
AcDbEntity
  8
LAYER_2
 62
     4
100
AcDbVertex
100
AcDb2dVertex
 10
120.0864615688222
 20
134.0935400331428
 30
0.0
  0
VERTEX
  5
26A
330
267
100
AcDbEntity
  8
LAYER_2
 62
     4
100
AcDbVertex
100
AcDb2dVertex
 10
125.0375838116768
 20
134.0935400331428
 30
0.0
  0
VERTEX
  5
26B
330
267
100
AcDbEntity
  8
LAYER_2
 62
     4
100
AcDbVertex
100
AcDb2dVertex
 10
125.0375838116768
 20
109.3377565639817
 30
0.0
  0
VERTEX
  5
26C
330
267
100
AcDbEntity
  8
LAYER_2
 62
     4
100
AcDbVertex
100
AcDb2dVertex
 10
120.0864615688222
 20
109.3377565639817
 30
0.0
  0
SEQEND
  5
26D
330
267
100
AcDbEntity
  8
LAYER_2
  0
POLYLINE
  5
26E
330
200
100
AcDbEntity
  8
LAYER_2
 62
     4
100
AcDb2dPolyline
 66
     1
 10
0.0
 20
0.0
 30
0.0
  0
VERTEX
  5
26F
330
26E
100
AcDbEntity
  8
LAYER_2
 62
     4
100
AcDbVertex
100
AcDb2dVertex
 10
128.0084638632551
 20
109.3377565639817
 30
0.0
  0
VERTEX
  5
270
330
26E
100
AcDbEntity
  8
LAYER_2
 62
     4
100
AcDbVertex
100
AcDb2dVertex
 10
128.0084638632551
 20
134.0935400331428
 30
0.0
  0
VERTEX
  5
271
330
26E
100
AcDbEntity
  8
LAYER_2
 62
     4
100
AcDbVertex
100
AcDb2dVertex
 10
137.9107083489644
 20
134.0935400331428
 30
0.0
  0
VERTEX
  5
272
330
26E
100
AcDbEntity
  8
LAYER_2
 62
     4
100
AcDbVertex
100
AcDb2dVertex
 10
137.9107083489644
 20
129.1422455354003
 30
0.0
  0
VERTEX
  5
273
330
26E
100
AcDbEntity
  8
LAYER_2
 62
     4
100
AcDbVertex
100
AcDb2dVertex
 10
132.9595861061097
 20
129.1422455354003
 30
0.0
  0
VERTEX
  5
274
330
26E
100
AcDbEntity
  8
LAYER_2
 62
     4
100
AcDbVertex
100
AcDb2dVertex
 10
132.9595861061097
 20
109.3377565639817
 30
0.0
  0
VERTEX
  5
275
330
26E
100
AcDbEntity
  8
LAYER_2
 62
     4
100
AcDbVertex
100
AcDb2dVertex
 10
128.0084638632551
 20
109.3377565639817
 30
0.0
  0
SEQEND
  5
276
330
26E
100
AcDbEntity
  8
LAYER_2
  0
POLYLINE
  5
277
330
200
100
AcDbEntity
  8
LAYER_2
 62
     4
100
AcDb2dPolyline
 66
     1
 10
0.0
 20
0.0
 30
0.0
  0
VERTEX
  5
278
330
277
100
AcDbEntity
  8
LAYER_2
 62
     4
100
AcDbVertex
100
AcDb2dVertex
 10
137.9107083489644
 20
119.240001049691
 30
0.0
  0
VERTEX
  5
279
330
277
100
AcDbEntity
  8
LAYER_2
 62
     4
100
AcDbVertex
100
AcDb2dVertex
 10
137.9107083489644
 20
129.1422455354003
 30
0.0
  0
VERTEX
  5
27A
330
277
100
AcDbEntity
  8
LAYER_2
 62
     4
100
AcDbVertex
100
AcDb2dVertex
 10
142.8620028467069
 20
129.1422455354003
 30
0.0
  0
VERTEX
  5
27B
330
277
100
AcDbEntity
  8
LAYER_2
 62
     4
100
AcDbVertex
100
AcDb2dVertex
 10
142.8620028467069
 20
119.240001049691
 30
0.0
  0
VERTEX
  5
27C
330
277
100
AcDbEntity
  8
LAYER_2
 62
     4
100
AcDbVertex
100
AcDb2dVertex
 10
137.9107083489644
 20
119.240001049691
 30
0.0
  0
SEQEND
  5
27D
330
277
100
AcDbEntity
  8
LAYER_2
  0
POLYLINE
  5
27E
330
200
100
AcDbEntity
  8
LAYER_2
 62
     4
100
AcDb2dPolyline
 66
     1
 10
0.0
 20
0.0
 30
0.0
  0
VERTEX
  5
27F
330
27E
100
AcDbEntity
  8
LAYER_2
 62
     4
100
AcDbVertex
100
AcDb2dVertex
 10
142.8620028467069
 20
129.1422455354003
 30
0.0
  0
VERTEX
  5
280
330
27E
100
AcDbEntity
  8
LAYER_2
 62
     4
100
AcDbVertex
100
AcDb2dVertex
 10
142.8620028467069
 20
134.0935400331428
 30
0.0
  0
VERTEX
  5
281
330
27E
100
AcDbEntity
  8
LAYER_2
 62
     4
100
AcDbVertex
100
AcDb2dVertex
 10
147.8131250895615
 20
134.0935400331428
 30
0.0
  0
VERTEX
  5
282
330
27E
100
AcDbEntity
  8
LAYER_2
 62
     4
100
AcDbVertex
100
AcDb2dVertex
 10
147.8131250895615
 20
129.1422455354003
 30
0.0
  0
VERTEX
  5
283
330
27E
100
AcDbEntity
  8
LAYER_2
 62
     4
100
AcDbVertex
100
AcDb2dVertex
 10
142.8620028467069
 20
129.1422455354003
 30
0.0
  0
SEQEND
  5
284
330
27E
100
AcDbEntity
  8
LAYER_2
  0
POLYLINE
  5
285
330
200
100
AcDbEntity
  8
LAYER_2
 62
     4
100
AcDb2dPolyline
 66
     1
 10
0.0
 20
0.0
 30
0.0
  0
VERTEX
  5
286
330
285
100
AcDbEntity
  8
LAYER_2
 62
     4
100
AcDbVertex
100
AcDb2dVertex
 10
147.8131250895615
 20
109.3377565639817
 30
0.0
  0
VERTEX
  5
287
330
285
100
AcDbEntity
  8
LAYER_2
 62
     4
100
AcDbVertex
100
AcDb2dVertex
 10
147.8131250895615
 20
129.1422455354003
 30
0.0
  0
VERTEX
  5
288
330
285
100
AcDbEntity
  8
LAYER_2
 62
     4
100
AcDbVertex
100
AcDb2dVertex
 10
152.7644195873041
 20
129.1422455354003
 30
0.0
  0
VERTEX
  5
289
330
285
100
AcDbEntity
  8
LAYER_2
 62
     4
100
AcDbVertex
100
AcDb2dVertex
 10
152.7644195873041
 20
109.3377565639817
 30
0.0
  0
VERTEX
  5
28A
330
285
100
AcDbEntity
  8
LAYER_2
 62
     4
100
AcDbVertex
100
AcDb2dVertex
 10
147.8131250895615
 20
109.3377565639817
 30
0.0
  0
SEQEND
  5
28B
330
285
100
AcDbEntity
  8
LAYER_2
  0
POLYLINE
  5
28C
330
200
100
AcDbEntity
  8
LAYER_2
 62
     4
100
AcDb2dPolyline
 66
     1
 10
0.0
 20
0.0
 30
0.0
  0
VERTEX
  5
28D
330
28C
100
AcDbEntity
  8
LAYER_2
 62
     4
100
AcDbVertex
100
AcDb2dVertex
 10
155.7347828742186
 20
104.3864620662392
 30
0.0
  0
VERTEX
  5
28E
330
28C
100
AcDbEntity
  8
LAYER_2
 62
     4
100
AcDbVertex
100
AcDb2dVertex
 10
155.7347828742186
 20
134.0935400331428
 30
0.0
  0
VERTEX
  5
28F
330
28C
100
AcDbEntity
  8
LAYER_2
 62
     4
100
AcDbVertex
100
AcDb2dVertex
 10
160.686421881737
 20
134.0935400331428
 30
0.0
  0
VERTEX
  5
290
330
28C
100
AcDbEntity
  8
LAYER_2
 62
     4
100
AcDbVertex
100
AcDb2dVertex
 10
160.686421881737
 20
129.1422455354003
 30
0.0
  0
VERTEX
  5
291
330
28C
100
AcDbEntity
  8
LAYER_2
 62
     4
100
AcDbVertex
100
AcDb2dVertex
 10
165.6370273599279
 20
129.1422455354003
 30
0.0
  0
VERTEX
  5
292
330
28C
100
AcDbEntity
  8
LAYER_2
 62
     4
100
AcDbVertex
100
AcDb2dVertex
 10
165.6370273599279
 20
124.1912955474335
 30
0.0
  0
VERTEX
  5
293
330
28C
100
AcDbEntity
  8
LAYER_2
 62
     4
100
AcDbVertex
100
AcDb2dVertex
 10
160.686421881737
 20
124.1912955474335
 30
0.0
  0
VERTEX
  5
294
330
28C
100
AcDbEntity
  8
LAYER_2
 62
     4
100
AcDbVertex
100
AcDb2dVertex
 10
160.686421881737
 20
119.240001049691
 30
0.0
  0
VERTEX
  5
295
330
28C
100
AcDbEntity
  8
LAYER_2
 62
     4
100
AcDbVertex
100
AcDb2dVertex
 10
175.539616355413
 20
119.240001049691
 30
0.0
  0
VERTEX
  5
296
330
28C
100
AcDbEntity
  8
LAYER_2
 62
     4
100
AcDbVertex
100
AcDb2dVertex
 10
175.539616355413
 20
114.2890510617242
 30
0.0
  0
VERTEX
  5
297
330
28C
100
AcDbEntity
  8
LAYER_2
 62
     4
100
AcDbVertex
100
AcDb2dVertex
 10
160.686421881737
 20
114.2890510617242
 30
0.0
  0
VERTEX
  5
298
330
28C
100
AcDbEntity
  8
LAYER_2
 62
     4
100
AcDbVertex
100
AcDb2dVertex
 10
160.686421881737
 20
104.3864620662392
 30
0.0
  0
VERTEX
  5
299
330
28C
100
AcDbEntity
  8
LAYER_2
 62
     4
100
AcDbVertex
100
AcDb2dVertex
 10
155.7347828742186
 20
104.3864620662392
 30
0.0
  0
SEQEND
  5
29A
330
28C
100
AcDbEntity
  8
LAYER_2
  0
POLYLINE
  5
29B
330
200
100
AcDbEntity
  8
LAYER_2
 62
     4
100
AcDb2dPolyline
 66
     1
 10
0.0
 20
0.0
 30
0.0
  0
VERTEX
  5
29C
330
29B
100
AcDbEntity
  8
LAYER_2
 62
     4
100
AcDbVertex
100
AcDb2dVertex
 10
165.6370273599279
 20
129.1422455354003
 30
0.0
  0
VERTEX
  5
29D
330
29B
100
AcDbEntity
  8
LAYER_2
 62
     4
100
AcDbVertex
100
AcDb2dVertex
 10
165.6370273599279
 20
134.0935400331428
 30
0.0
  0
VERTEX
  5
29E
330
29B
100
AcDbEntity
  8
LAYER_2
 62
     4
100
AcDbVertex
100
AcDb2dVertex
 10
175.539616355413
 20
134.0935400331428
 30
0.0
  0
VERTEX
  5
29F
330
29B
100
AcDbEntity
  8
LAYER_2
 62
     4
100
AcDbVertex
100
AcDb2dVertex
 10
175.539616355413
 20
129.1422455354003
 30
0.0
  0
VERTEX
  5
2A0
330
29B
100
AcDbEntity
  8
LAYER_2
 62
     4
100
AcDbVertex
100
AcDb2dVertex
 10
165.6370273599279
 20
129.1422455354003
 30
0.0
  0
SEQEND
  5
2A1
330
29B
100
AcDbEntity
  8
LAYER_2
  0
POLYLINE
  5
2A2
330
200
100
AcDbEntity
  8
LAYER_2
 62
     4
100
AcDb2dPolyline
 66
     1
 10
0.0
 20
0.0
 30
0.0
  0
VERTEX
  5
2A3
330
2A2
100
AcDbEntity
  8
LAYER_2
 62
     4
100
AcDbVertex
100
AcDb2dVertex
 10
175.539616355413
 20
119.240001049691
 30
0.0
  0
VERTEX
  5
2A4
330
2A2
100
AcDbEntity
  8
LAYER_2
 62
     4
100
AcDbVertex
100
AcDb2dVertex
 10
175.539616355413
 20
129.1422455354003
 30
0.0
  0
VERTEX
  5
2A5
330
2A2
100
AcDbEntity
  8
LAYER_2
 62
     4
100
AcDbVertex
100
AcDb2dVertex
 10
180.4909108531555
 20
129.1422455354003
 30
0.0
  0
VERTEX
  5
2A6
330
2A2
100
AcDbEntity
  8
LAYER_2
 62
     4
100
AcDbVertex
100
AcDb2dVertex
 10
180.4909108531555
 20
119.240001049691
 30
0.0
  0
VERTEX
  5
2A7
330
2A2
100
AcDbEntity
  8
LAYER_2
 62
     4
100
AcDbVertex
100
AcDb2dVertex
 10
175.539616355413
 20
119.240001049691
 30
0.0
  0
SEQEND
  5
2A8
330
2A2
100
AcDbEntity
  8
LAYER_2
  0
POLYLINE
  5
2A9
330
200
100
AcDbEntity
  8
LAYER_2
 62
     4
100
AcDb2dPolyline
 66
     1
 10
0.0
 20
0.0
 30
0.0
  0
VERTEX
  5
2AA
330
2A9
100
AcDbEntity
  8
LAYER_2
 62
     4
100
AcDbVertex
100
AcDb2dVertex
 10
183.4612741400701
 20
114.2890510617242
 30
0.0
  0
VERTEX
  5
2AB
330
2A9
100
AcDbEntity
  8
LAYER_2
 62
     4
100
AcDbVertex
100
AcDb2dVertex
 10
183.4612741400701
 20
139.0448345308853
 30
0.0
  0
VERTEX
  5
2AC
330
2A9
100
AcDbEntity
  8
LAYER_2
 62
     4
100
AcDbVertex
100
AcDb2dVertex
 10
188.4125686378127
 20
139.0448345308853
 30
0.0
  0
VERTEX
  5
2AD
330
2A9
100
AcDbEntity
  8
LAYER_2
 62
     4
100
AcDbVertex
100
AcDb2dVertex
 10
188.4125686378127
 20
114.2890510617242
 30
0.0
  0
VERTEX
  5
2AE
330
2A9
100
AcDbEntity
  8
LAYER_2
 62
     4
100
AcDbVertex
100
AcDb2dVertex
 10
183.4612741400701
 20
114.2890510617242
 30
0.0
  0
SEQEND
  5
2AF
330
2A9
100
AcDbEntity
  8
LAYER_2
  0
POLYLINE
  5
2B0
330
200
100
AcDbEntity
  8
LAYER_2
 62
     4
100
AcDb2dPolyline
 66
     1
 10
0.0
 20
0.0
 30
0.0
  0
VERTEX
  5
2B1
330
2B0
100
AcDbEntity
  8
LAYER_2
 62
     4
100
AcDbVertex
100
AcDb2dVertex
 10
188.4125686378127
 20
139.0448345308853
 30
0.0
  0
VERTEX
  5
2B2
330
2B0
100
AcDbEntity
  8
LAYER_2
 62
     4
100
AcDbVertex
100
AcDb2dVertex
 10
188.4125686378127
 20
143.9957845188521
 30
0.0
  0
VERTEX
  5
2B3
330
2B0
100
AcDbEntity
  8
LAYER_2
 62
     4
100
AcDbVertex
100
AcDb2dVertex
 10
203.2657631114887
 20
143.9957845188521
 30
0.0
  0
VERTEX
  5
2B4
330
2B0
100
AcDbEntity
  8
LAYER_2
 62
     4
100
AcDbVertex
100
AcDb2dVertex
 10
203.2657631114887
 20
139.0448345308853
 30
0.0
  0
VERTEX
  5
2B5
330
2B0
100
AcDbEntity
  8
LAYER_2
 62
     4
100
AcDbVertex
100
AcDb2dVertex
 10
188.4125686378127
 20
139.0448345308853
 30
0.0
  0
SEQEND
  5
2B6
330
2B0
100
AcDbEntity
  8
LAYER_2
  0
POLYLINE
  5
2B7
330
200
100
AcDbEntity
  8
LAYER_2
 62
     4
100
AcDb2dPolyline
 66
     1
 10
0.0
 20
0.0
 30
0.0
  0
VERTEX
  5
2B8
330
2B7
100
AcDbEntity
  8
LAYER_2
 62
     4
100
AcDbVertex
100
AcDb2dVertex
 10
188.4125686378127
 20
109.3377565639817
 30
0.0
  0
VERTEX
  5
2B9
330
2B7
100
AcDbEntity
  8
LAYER_2
 62
     4
100
AcDbVertex
100
AcDb2dVertex
 10
188.4125686378127
 20
114.2890510617242
 30
0.0
  0
VERTEX
  5
2BA
330
2B7
100
AcDbEntity
  8
LAYER_2
 62
     4
100
AcDbVertex
100
AcDb2dVertex
 10
203.2657631114887
 20
114.2890510617242
 30
0.0
  0
VERTEX
  5
2BB
330
2B7
100
AcDbEntity
  8
LAYER_2
 62
     4
100
AcDbVertex
100
AcDb2dVertex
 10
203.2657631114887
 20
109.3377565639817
 30
0.0
  0
VERTEX
  5
2BC
330
2B7
100
AcDbEntity
  8
LAYER_2
 62
     4
100
AcDbVertex
100
AcDb2dVertex
 10
188.4125686378127
 20
109.3377565639817
 30
0.0
  0
SEQEND
  5
2BD
330
2B7
100
AcDbEntity
  8
LAYER_2
  0
POLYLINE
  5
2BE
330
200
100
AcDbEntity
  8
LAYER_2
 62
     4
100
AcDb2dPolyline
 66
     1
 10
0.0
 20
0.0
 30
0.0
  0
VERTEX
  5
2BF
330
2BE
100
AcDbEntity
  8
LAYER_2
 62
     4
100
AcDbVertex
100
AcDb2dVertex
 10
203.2657631114887
 20
134.0935400331428
 30
0.0
  0
VERTEX
  5
2C0
330
2BE
100
AcDbEntity
  8
LAYER_2
 62
     4
100
AcDbVertex
100
AcDb2dVertex
 10
203.2657631114887
 20
139.0448345308853
 30
0.0
  0
VERTEX
  5
2C1
330
2BE
100
AcDbEntity
  8
LAYER_2
 62
     4
100
AcDbVertex
100
AcDb2dVertex
 10
208.2170576092312
 20
139.0448345308853
 30
0.0
  0
VERTEX
  5
2C2
330
2BE
100
AcDbEntity
  8
LAYER_2
 62
     4
100
AcDbVertex
100
AcDb2dVertex
 10
208.2170576092312
 20
134.0935400331428
 30
0.0
  0
VERTEX
  5
2C3
330
2BE
100
AcDbEntity
  8
LAYER_2
 62
     4
100
AcDbVertex
100
AcDb2dVertex
 10
203.2657631114887
 20
134.0935400331428
 30
0.0
  0
SEQEND
  5
2C4
330
2BE
100
AcDbEntity
  8
LAYER_2
  0
POLYLINE
  5
2C5
330
200
100
AcDbEntity
  8
LAYER_2
 62
     4
100
AcDb2dPolyline
 66
     1
 10
0.0
 20
0.0
 30
0.0
  0
VERTEX
  5
2C6
330
2C5
100
AcDbEntity
  8
LAYER_2
 62
     4
100
AcDbVertex
100
AcDb2dVertex
 10
203.2657631114887
 20
114.2890510617242
 30
0.0
  0
VERTEX
  5
2C7
330
2C5
100
AcDbEntity
  8
LAYER_2
 62
     4
100
AcDbVertex
100
AcDb2dVertex
 10
203.2657631114887
 20
119.240001049691
 30
0.0
  0
VERTEX
  5
2C8
330
2C5
100
AcDbEntity
  8
LAYER_2
 62
     4
100
AcDbVertex
100
AcDb2dVertex
 10
208.2170576092312
 20
119.240001049691
 30
0.0
  0
VERTEX
  5
2C9
330
2C5
100
AcDbEntity
  8
LAYER_2
 62
     4
100
AcDbVertex
100
AcDb2dVertex
 10
208.2170576092312
 20
114.2890510617242
 30
0.0
  0
VERTEX
  5
2CA
330
2C5
100
AcDbEntity
  8
LAYER_2
 62
     4
100
AcDbVertex
100
AcDb2dVertex
 10
203.2657631114887
 20
114.2890510617242
 30
0.0
  0
SEQEND
  5
2CB
330
2C5
100
AcDbEntity
  8
LAYER_2
  0
POLYLINE
  5
2CC
330
200
100
AcDbEntity
  8
LAYER_2
 62
     4
100
AcDb2dPolyline
 66
     1
 10
0.0
 20
0.0
 30
0.0
  0
VERTEX
  5
2CD
330
2CC
100
AcDbEntity
  8
LAYER_2
 62
     4
100
AcDbVertex
100
AcDb2dVertex
 10
211.1877654059216
 20
109.3377565639817
 30
0.0
  0
VERTEX
  5
2CE
330
2CC
100
AcDbEntity
  8
LAYER_2
 62
     4
100
AcDbVertex
100
AcDb2dVertex
 10
211.1877654059216
 20
134.0935400331428
 30
0.0
  0
VERTEX
  5
2CF
330
2CC
100
AcDbEntity
  8
LAYER_2
 62
     4
100
AcDbVertex
100
AcDb2dVertex
 10
216.1390599036641
 20
134.0935400331428
 30
0.0
  0
VERTEX
  5
2D0
330
2CC
100
AcDbEntity
  8
LAYER_2
 62
     4
100
AcDbVertex
100
AcDb2dVertex
 10
216.1390599036641
 20
129.1422455354003
 30
0.0
  0
VERTEX
  5
2D1
330
2CC
100
AcDbEntity
  8
LAYER_2
 62
     4
100
AcDbVertex
100
AcDb2dVertex
 10
221.0900098916308
 20
129.1422455354003
 30
0.0
  0
VERTEX
  5
2D2
330
2CC
100
AcDbEntity
  8
LAYER_2
 62
     4
100
AcDbVertex
100
AcDb2dVertex
 10
221.0900098916308
 20
124.1912955474335
 30
0.0
  0
VERTEX
  5
2D3
330
2CC
100
AcDbEntity
  8
LAYER_2
 62
     4
100
AcDbVertex
100
AcDb2dVertex
 10
216.1390599036641
 20
124.1912955474335
 30
0.0
  0
VERTEX
  5
2D4
330
2CC
100
AcDbEntity
  8
LAYER_2
 62
     4
100
AcDbVertex
100
AcDb2dVertex
 10
216.1390599036641
 20
109.3377565639817
 30
0.0
  0
VERTEX
  5
2D5
330
2CC
100
AcDbEntity
  8
LAYER_2
 62
     4
100
AcDbVertex
100
AcDb2dVertex
 10
211.1877654059216
 20
109.3377565639817
 30
0.0
  0
SEQEND
  5
2D6
330
2CC
100
AcDbEntity
  8
LAYER_2
  0
POLYLINE
  5
2D7
330
200
100
AcDbEntity
  8
LAYER_2
 62
     4
100
AcDb2dPolyline
 66
     1
 10
0.0
 20
0.0
 30
0.0
  0
VERTEX
  5
2D8
330
2D7
100
AcDbEntity
  8
LAYER_2
 62
     4
100
AcDbVertex
100
AcDb2dVertex
 10
221.0900098916308
 20
129.1422455354003
 30
0.0
  0
VERTEX
  5
2D9
330
2D7
100
AcDbEntity
  8
LAYER_2
 62
     4
100
AcDbVertex
100
AcDb2dVertex
 10
221.0900098916308
 20
134.0935400331428
 30
0.0
  0
VERTEX
  5
2DA
330
2D7
100
AcDbEntity
  8
LAYER_2
 62
     4
100
AcDbVertex
100
AcDb2dVertex
 10
230.9922543773401
 20
134.0935400331428
 30
0.0
  0
VERTEX
  5
2DB
330
2D7
100
AcDbEntity
  8
LAYER_2
 62
     4
100
AcDbVertex
100
AcDb2dVertex
 10
230.9922543773401
 20
129.1422455354003
 30
0.0
  0
VERTEX
  5
2DC
330
2D7
100
AcDbEntity
  8
LAYER_2
 62
     4
100
AcDbVertex
100
AcDb2dVertex
 10
221.0900098916308
 20
129.1422455354003
 30
0.0
  0
SEQEND
  5
2DD
330
2D7
100
AcDbEntity
  8
LAYER_2
  0
POLYLINE
  5
2DE
330
200
100
AcDbEntity
  8
LAYER_2
 62
     4
100
AcDb2dPolyline
 66
     1
 10
0.0
 20
0.0
 30
0.0
  0
VERTEX
  5
2DF
330
2DE
100
AcDbEntity
  8
LAYER_2
 62
     4
100
AcDbVertex
100
AcDb2dVertex
 10
230.9922543773401
 20
124.1912955474335
 30
0.0
  0
VERTEX
  5
2E0
330
2DE
100
AcDbEntity
  8
LAYER_2
 62
     4
100
AcDbVertex
100
AcDb2dVertex
 10
230.9922543773401
 20
129.1422455354003
 30
0.0
  0
VERTEX
  5
2E1
330
2DE
100
AcDbEntity
  8
LAYER_2
 62
     4
100
AcDbVertex
100
AcDb2dVertex
 10
235.9435488750827
 20
129.1422455354003
 30
0.0
  0
VERTEX
  5
2E2
330
2DE
100
AcDbEntity
  8
LAYER_2
 62
     4
100
AcDbVertex
100
AcDb2dVertex
 10
235.9435488750827
 20
124.1912955474335
 30
0.0
  0
VERTEX
  5
2E3
330
2DE
100
AcDbEntity
  8
LAYER_2
 62
     4
100
AcDbVertex
100
AcDb2dVertex
 10
230.9922543773401
 20
124.1912955474335
 30
0.0
  0
SEQEND
  5
2E4
330
2DE
100
AcDbEntity
  8
LAYER_2
  0
POLYLINE
  5
2E5
330
200
100
AcDbEntity
  8
LAYER_2
 62
     4
100
AcDb2dPolyline
 66
     1
 10
0.0
 20
0.0
 30
0.0
  0
VERTEX
  5
2E6
330
2E5
100
AcDbEntity
  8
LAYER_2
 62
     4
100
AcDbVertex
100
AcDb2dVertex
 10
238.9146011815488
 20
114.2890510617242
 30
0.0
  0
VERTEX
  5
2E7
330
2E5
100
AcDbEntity
  8
LAYER_2
 62
     4
100
AcDbVertex
100
AcDb2dVertex
 10
238.9146011815488
 20
119.240001049691
 30
0.0
  0
VERTEX
  5
2E8
330
2E5
100
AcDbEntity
  8
LAYER_2
 62
     4
100
AcDbVertex
100
AcDb2dVertex
 10
243.8658956792914
 20
119.240001049691
 30
0.0
  0
VERTEX
  5
2E9
330
2E5
100
AcDbEntity
  8
LAYER_2
 62
     4
100
AcDbVertex
100
AcDb2dVertex
 10
243.8658956792914
 20
114.2890510617242
 30
0.0
  0
VERTEX
  5
2EA
330
2E5
100
AcDbEntity
  8
LAYER_2
 62
     4
100
AcDbVertex
100
AcDb2dVertex
 10
238.9146011815488
 20
114.2890510617242
 30
0.0
  0
SEQEND
  5
2EB
330
2E5
100
AcDbEntity
  8
LAYER_2
  0
POLYLINE
  5
2EC
330
200
100
AcDbEntity
  8
LAYER_2
 62
     4
100
AcDb2dPolyline
 66
     1
 10
0.0
 20
0.0
 30
0.0
  0
VERTEX
  5
2ED
330
2EC
100
AcDbEntity
  8
LAYER_2
 62
     4
100
AcDbVertex
100
AcDb2dVertex
 10
243.8658956792914
 20
129.1422455354003
 30
0.0
  0
VERTEX
  5
2EE
330
2EC
100
AcDbEntity
  8
LAYER_2
 62
     4
100
AcDbVertex
100
AcDb2dVertex
 10
243.8658956792914
 20
134.0935400331428
 30
0.0
  0
VERTEX
  5
2EF
330
2EC
100
AcDbEntity
  8
LAYER_2
 62
     4
100
AcDbVertex
100
AcDb2dVertex
 10
258.7190901529674
 20
134.0935400331428
 30
0.0
  0
VERTEX
  5
2F0
330
2EC
100
AcDbEntity
  8
LAYER_2
 62
     4
100
AcDbVertex
100
AcDb2dVertex
 10
258.7190901529674
 20
129.1422455354003
 30
0.0
  0
VERTEX
  5
2F1
330
2EC
100
AcDbEntity
  8
LAYER_2
 62
     4
100
AcDbVertex
100
AcDb2dVertex
 10
243.8658956792914
 20
129.1422455354003
 30
0.0
  0
SEQEND
  5
2F2
330
2EC
100
AcDbEntity
  8
LAYER_2
  0
POLYLINE
  5
2F3
330
200
100
AcDbEntity
  8
LAYER_2
 62
     4
100
AcDb2dPolyline
 66
     1
 10
0.0
 20
0.0
 30
0.0
  0
VERTEX
  5
2F4
330
2F3
100
AcDbEntity
  8
LAYER_2
 62
     4
100
AcDbVertex
100
AcDb2dVertex
 10
243.8658956792914
 20
109.3377565639817
 30
0.0
  0
VERTEX
  5
2F5
330
2F3
100
AcDbEntity
  8
LAYER_2
 62
     4
100
AcDbVertex
100
AcDb2dVertex
 10
243.8658956792914
 20
114.2890510617242
 30
0.0
  0
VERTEX
  5
2F6
330
2F3
100
AcDbEntity
  8
LAYER_2
 62
     4
100
AcDbVertex
100
AcDb2dVertex
 10
258.7190901529674
 20
114.2890510617242
 30
0.0
  0
VERTEX
  5
2F7
330
2F3
100
AcDbEntity
  8
LAYER_2
 62
     4
100
AcDbVertex
100
AcDb2dVertex
 10
258.7190901529674
 20
119.240001049691
 30
0.0
  0
VERTEX
  5
2F8
330
2F3
100
AcDbEntity
  8
LAYER_2
 62
     4
100
AcDbVertex
100
AcDb2dVertex
 10
243.8658956792914
 20
119.240001049691
 30
0.0
  0
VERTEX
  5
2F9
330
2F3
100
AcDbEntity
  8
LAYER_2
 62
     4
100
AcDbVertex
100
AcDb2dVertex
 10
243.8658956792914
 20
124.1912955474335
 30
0.0
  0
VERTEX
  5
2FA
330
2F3
100
AcDbEntity
  8
LAYER_2
 62
     4
100
AcDbVertex
100
AcDb2dVertex
 10
258.7190901529674
 20
124.1912955474335
 30
0.0
  0
VERTEX
  5
2FB
330
2F3
100
AcDbEntity
  8
LAYER_2
 62
     4
100
AcDbVertex
100
AcDb2dVertex
 10
258.7190901529674
 20
129.1422455354003
 30
0.0
  0
VERTEX
  5
2FC
330
2F3
100
AcDbEntity
  8
LAYER_2
 62
     4
100
AcDbVertex
100
AcDb2dVertex
 10
263.6703846507099
 20
129.1422455354003
 30
0.0
  0
VERTEX
  5
2FD
330
2F3
100
AcDbEntity
  8
LAYER_2
 62
     4
100
AcDbVertex
100
AcDb2dVertex
 10
263.6703846507099
 20
109.3377565639817
 30
0.0
  0
VERTEX
  5
2FE
330
2F3
100
AcDbEntity
  8
LAYER_2
 62
     4
100
AcDbVertex
100
AcDb2dVertex
 10
243.8658956792914
 20
109.3377565639817
 30
0.0
  0
SEQEND
  5
2FF
330
2F3
100
AcDbEntity
  8
LAYER_2
  0
POLYLINE
  5
300
330
200
100
AcDbEntity
  8
LAYER_2
 62
     4
100
AcDb2dPolyline
 66
     1
 10
0.0
 20
0.0
 30
0.0
  0
VERTEX
  5
301
330
300
100
AcDbEntity
  8
LAYER_2
 62
     4
100
AcDbVertex
100
AcDb2dVertex
 10
271.5923869451428
 20
109.3377565639817
 30
0.0
  0
VERTEX
  5
302
330
300
100
AcDbEntity
  8
LAYER_2
 62
     4
100
AcDbVertex
100
AcDb2dVertex
 10
271.5923869451428
 20
129.1422455354003
 30
0.0
  0
VERTEX
  5
303
330
300
100
AcDbEntity
  8
LAYER_2
 62
     4
100
AcDbVertex
100
AcDb2dVertex
 10
266.6410924474003
 20
129.1422455354003
 30
0.0
  0
VERTEX
  5
304
330
300
100
AcDbEntity
  8
LAYER_2
 62
     4
100
AcDbVertex
100
AcDb2dVertex
 10
266.6410924474003
 20
134.0935400331428
 30
0.0
  0
VERTEX
  5
305
330
300
100
AcDbEntity
  8
LAYER_2
 62
     4
100
AcDbVertex
100
AcDb2dVertex
 10
271.5923869451428
 20
134.0935400331428
 30
0.0
  0
VERTEX
  5
306
330
300
100
AcDbEntity
  8
LAYER_2
 62
     4
100
AcDbVertex
100
AcDb2dVertex
 10
271.5923869451428
 20
139.0448345308853
 30
0.0
  0
VERTEX
  5
307
330
300
100
AcDbEntity
  8
LAYER_2
 62
     4
100
AcDbVertex
100
AcDb2dVertex
 10
276.5433369331096
 20
139.0448345308853
 30
0.0
  0
VERTEX
  5
308
330
300
100
AcDbEntity
  8
LAYER_2
 62
     4
100
AcDbVertex
100
AcDb2dVertex
 10
276.5433369331096
 20
134.0935400331428
 30
0.0
  0
VERTEX
  5
309
330
300
100
AcDbEntity
  8
LAYER_2
 62
     4
100
AcDbVertex
100
AcDb2dVertex
 10
286.4455814188188
 20
134.0935400331428
 30
0.0
  0
VERTEX
  5
30A
330
300
100
AcDbEntity
  8
LAYER_2
 62
     4
100
AcDbVertex
100
AcDb2dVertex
 10
286.4455814188188
 20
129.1422455354003
 30
0.0
  0
VERTEX
  5
30B
330
300
100
AcDbEntity
  8
LAYER_2
 62
     4
100
AcDbVertex
100
AcDb2dVertex
 10
276.5433369331096
 20
129.1422455354003
 30
0.0
  0
VERTEX
  5
30C
330
300
100
AcDbEntity
  8
LAYER_2
 62
     4
100
AcDbVertex
100
AcDb2dVertex
 10
276.5433369331096
 20
109.3377565639817
 30
0.0
  0
VERTEX
  5
30D
330
300
100
AcDbEntity
  8
LAYER_2
 62
     4
100
AcDbVertex
100
AcDb2dVertex
 10
271.5923869451428
 20
109.3377565639817
 30
0.0
  0
SEQEND
  5
30E
330
300
100
AcDbEntity
  8
LAYER_2
  0
POLYLINE
  5
30F
330
200
100
AcDbEntity
  8
LAYER_2
 62
     4
100
AcDb2dPolyline
 66
     1
 10
0.0
 20
0.0
 30
0.0
  0
VERTEX
  5
310
330
30F
100
AcDbEntity
  8
LAYER_2
 62
     4
100
AcDbVertex
100
AcDb2dVertex
 10
276.5433369331096
 20
139.0448345308853
 30
0.0
  0
VERTEX
  5
311
330
30F
100
AcDbEntity
  8
LAYER_2
 62
     4
100
AcDbVertex
100
AcDb2dVertex
 10
276.5433369331096
 20
143.9957845188521
 30
0.0
  0
VERTEX
  5
312
330
30F
100
AcDbEntity
  8
LAYER_2
 62
     4
100
AcDbVertex
100
AcDb2dVertex
 10
286.4455814188188
 20
143.9957845188521
 30
0.0
  0
VERTEX
  5
313
330
30F
100
AcDbEntity
  8
LAYER_2
 62
     4
100
AcDbVertex
100
AcDb2dVertex
 10
286.4455814188188
 20
139.0448345308853
 30
0.0
  0
VERTEX
  5
314
330
30F
100
AcDbEntity
  8
LAYER_2
 62
     4
100
AcDbVertex
100
AcDb2dVertex
 10
276.5433369331096
 20
139.0448345308853
 30
0.0
  0
SEQEND
  5
315
330
30F
100
AcDbEntity
  8
LAYER_2
  0
POLYLINE
  5
316
330
200
100
AcDbEntity
  8
LAYER_2
 62
     4
100
AcDb2dPolyline
 66
     1
 10
0.0
 20
0.0
 30
0.0
  0
VERTEX
  5
317
330
316
100
AcDbEntity
  8
LAYER_2
 62
     4
100
AcDbVertex
100
AcDb2dVertex
 10
294.3675837132517
 20
114.2890510617242
 30
0.0
  0
VERTEX
  5
318
330
316
100
AcDbEntity
  8
LAYER_2
 62
     4
100
AcDbVertex
100
AcDb2dVertex
 10
294.3675837132517
 20
129.1422455354003
 30
0.0
  0
VERTEX
  5
319
330
316
100
AcDbEntity
  8
LAYER_2
 62
     4
100
AcDbVertex
100
AcDb2dVertex
 10
289.4162892155092
 20
129.1422455354003
 30
0.0
  0
VERTEX
  5
31A
330
316
100
AcDbEntity
  8
LAYER_2
 62
     4
100
AcDbVertex
100
AcDb2dVertex
 10
289.4162892155092
 20
134.0935400331428
 30
0.0
  0
VERTEX
  5
31B
330
316
100
AcDbEntity
  8
LAYER_2
 62
     4
100
AcDbVertex
100
AcDb2dVertex
 10
294.3675837132517
 20
134.0935400331428
 30
0.0
  0
VERTEX
  5
31C
330
316
100
AcDbEntity
  8
LAYER_2
 62
     4
100
AcDbVertex
100
AcDb2dVertex
 10
294.3675837132517
 20
143.9957845188521
 30
0.0
  0
VERTEX
  5
31D
330
316
100
AcDbEntity
  8
LAYER_2
 62
     4
100
AcDbVertex
100
AcDb2dVertex
 10
299.3185337012185
 20
143.9957845188521
 30
0.0
  0
VERTEX
  5
31E
330
316
100
AcDbEntity
  8
LAYER_2
 62
     4
100
AcDbVertex
100
AcDb2dVertex
 10
299.3185337012185
 20
134.0935400331428
 30
0.0
  0
VERTEX
  5
31F
330
316
100
AcDbEntity
  8
LAYER_2
 62
     4
100
AcDbVertex
100
AcDb2dVertex
 10
304.269828198961
 20
134.0935400331428
 30
0.0
  0
VERTEX
  5
320
330
316
100
AcDbEntity
  8
LAYER_2
 62
     4
100
AcDbVertex
100
AcDb2dVertex
 10
304.269828198961
 20
129.1422455354003
 30
0.0
  0
VERTEX
  5
321
330
316
100
AcDbEntity
  8
LAYER_2
 62
     4
100
AcDbVertex
100
AcDb2dVertex
 10
299.3185337012185
 20
129.1422455354003
 30
0.0
  0
VERTEX
  5
322
330
316
100
AcDbEntity
  8
LAYER_2
 62
     4
100
AcDbVertex
100
AcDb2dVertex
 10
299.3185337012185
 20
114.2890510617242
 30
0.0
  0
VERTEX
  5
323
330
316
100
AcDbEntity
  8
LAYER_2
 62
     4
100
AcDbVertex
100
AcDb2dVertex
 10
294.3675837132517
 20
114.2890510617242
 30
0.0
  0
SEQEND
  5
324
330
316
100
AcDbEntity
  8
LAYER_2
  0
POLYLINE
  5
325
330
200
100
AcDbEntity
  8
LAYER_2
 62
     4
100
AcDb2dPolyline
 66
     1
 10
0.0
 20
0.0
 30
0.0
  0
VERTEX
  5
326
330
325
100
AcDbEntity
  8
LAYER_2
 62
     4
100
AcDbVertex
100
AcDb2dVertex
 10
299.3185337012185
 20
109.3377565639817
 30
0.0
  0
VERTEX
  5
327
330
325
100
AcDbEntity
  8
LAYER_2
 62
     4
100
AcDbVertex
100
AcDb2dVertex
 10
299.3185337012185
 20
114.2890510617242
 30
0.0
  0
VERTEX
  5
328
330
325
100
AcDbEntity
  8
LAYER_2
 62
     4
100
AcDbVertex
100
AcDb2dVertex
 10
304.269828198961
 20
114.2890510617242
 30
0.0
  0
VERTEX
  5
329
330
325
100
AcDbEntity
  8
LAYER_2
 62
     4
100
AcDbVertex
100
AcDb2dVertex
 10
304.269828198961
 20
109.3377565639817
 30
0.0
  0
VERTEX
  5
32A
330
325
100
AcDbEntity
  8
LAYER_2
 62
     4
100
AcDbVertex
100
AcDb2dVertex
 10
299.3185337012185
 20
109.3377565639817
 30
0.0
  0
SEQEND
  5
32B
330
325
100
AcDbEntity
  8
LAYER_2
  0
ENDBLK
  5
203
330
200
100
AcDbEntity
  8
0
100
AcDbBlockEnd
  0
ENDSEC
  0
SECTION
  2
ENTITIES
  0
INSERT
  5
3D
330
1F
100
AcDbEntity
  8
LAYER_2
100
AcDbBlockReference
  2
BLOCK_2
 10
0.0
 20
0.0
 30
0.0
  0
INSERT
  5
5E
330
1F
100
AcDbEntity
  8
LAYER_2
100
AcDbBlockReference
  2
BLOCK_3
 10
0.0
 20
0.0
 30
0.0
  0
INSERT
  5
7F
330
1F
100
AcDbEntity
  8
LAYER_2
100
AcDbBlockReference
  2
BLOCK_4
 10
0.0
 20
0.0
 30
0.0
  0
INSERT
  5
A0
330
1F
100
AcDbEntity
  8
LAYER_2
100
AcDbBlockReference
  2
BLOCK_5
 10
0.0
 20
0.0
 30
0.0
  0
POLYLINE
  5
C0
330
1F
100
AcDbEntity
  8
LAYER_2
 62
     7
100
AcDb2dPolyline
 66
     1
 10
0.0
 20
0.0
 30
0.0
  0
VERTEX
  5
C1
330
C0
100
AcDbEntity
  8
LAYER_2
 62
     7
100
AcDbVertex
100
AcDb2dVertex
 10
137.0055089130599
 20
238.6484673797463
 30
0.0
  0
VERTEX
  5
C2
330
C0
100
AcDbEntity
  8
LAYER_2
 62
     7
100
AcDbVertex
100
AcDb2dVertex
 10
109.0054768852263
 20
238.6484673797463
 30
0.0
  0
VERTEX
  5
C3
330
C0
100
AcDbEntity
  8
LAYER_2
 62
     7
100
AcDbVertex
100
AcDb2dVertex
 10
109.0054768852263
 20
257.6485260246808
 30
0.0
  0
VERTEX
  5
C4
330
C0
100
AcDbEntity
  8
LAYER_2
 62
     7
100
AcDbVertex
100
AcDb2dVertex
 10
137.0055089130599
 20
257.6485260246808
 30
0.0
  0
VERTEX
  5
C5
330
C0
100
AcDbEntity
  8
LAYER_2
 62
     7
100
AcDbVertex
100
AcDb2dVertex
 10
137.0055089130599
 20
238.6484673797463
 30
0.0
  0
SEQEND
  5
C6
330
C0
100
AcDbEntity
  8
LAYER_2
  0
POLYLINE
  5
C7
330
1F
100
AcDbEntity
  8
LAYER_2
 62
     7
100
AcDb2dPolyline
 66
     1
 10
0.0
 20
0.0
 30
0.0
  0
VERTEX
  5
C8
330
C7
100
AcDbEntity
  8
LAYER_2
 62
     7
100
AcDbVertex
100
AcDb2dVertex
 10
129.5055310939773
 20
241.8984003497195
 30
0.0
  0
VERTEX
  5
C9
330
C7
100
AcDbEntity
  8
LAYER_2
 62
     7
100
AcDbVertex
100
AcDb2dVertex
 10
116.5054547043089
 20
241.8984003497195
 30
0.0
  0
VERTEX
  5
CA
330
C7
100
AcDbEntity
  8
LAYER_2
 62
     7
100
AcDbVertex
100
AcDb2dVertex
 10
116.5054547043089
 20
254.3984207998197
 30
0.0
  0
VERTEX
  5
CB
330
C7
100
AcDbEntity
  8
LAYER_2
 62
     7
100
AcDbVertex
100
AcDb2dVertex
 10
129.5055310939773
 20
254.3984207998197
 30
0.0
  0
VERTEX
  5
CC
330
C7
100
AcDbEntity
  8
LAYER_2
 62
     7
100
AcDbVertex
100
AcDb2dVertex
 10
129.5055310939773
 20
241.8984003497195
 30
0.0
  0
SEQEND
  5
CD
330
C7
100
AcDbEntity
  8
LAYER_2
  0
POLYLINE
  5
CE
330
1F
100
AcDbEntity
  8
LAYER_2
 62
     7
100
AcDb2dPolyline
 66
     1
 10
0.0
 20
0.0
 30
0.0
  0
VERTEX
  5
CF
330
CE
100
AcDbEntity
  8
LAYER_2
 62
     7
100
AcDbVertex
100
AcDb2dVertex
 10
45.13835984436564
 20
238.6484673797463
 30
0.0
  0
VERTEX
  5
D0
330
CE
100
AcDbEntity
  8
LAYER_2
 62
     7
100
AcDbVertex
100
AcDb2dVertex
 10
17.13832781653201
 20
238.6484673797463
 30
0.0
  0
VERTEX
  5
D1
330
CE
100
AcDbEntity
  8
LAYER_2
 62
     7
100
AcDbVertex
100
AcDb2dVertex
 10
17.13832781653201
 20
257.6485260246808
 30
0.0
  0
VERTEX
  5
D2
330
CE
100
AcDbEntity
  8
LAYER_2
 62
     7
100
AcDbVertex
100
AcDb2dVertex
 10
45.13835984436564
 20
257.6485260246808
 30
0.0
  0
VERTEX
  5
D3
330
CE
100
AcDbEntity
  8
LAYER_2
 62
     7
100
AcDbVertex
100
AcDb2dVertex
 10
45.13835984436564
 20
238.6484673797463
 30
0.0
  0
SEQEND
  5
D4
330
CE
100
AcDbEntity
  8
LAYER_2
  0
POLYLINE
  5
D5
330
1F
100
AcDbEntity
  8
LAYER_2
 62
     7
100
AcDb2dPolyline
 66
     1
 10
0.0
 20
0.0
 30
0.0
  0
VERTEX
  5
D6
330
D5
100
AcDbEntity
  8
LAYER_2
 62
     7
100
AcDbVertex
100
AcDb2dVertex
 10
37.63838202528304
 20
241.8984003497195
 30
0.0
  0
VERTEX
  5
D7
330
D5
100
AcDbEntity
  8
LAYER_2
 62
     7
100
AcDbVertex
100
AcDb2dVertex
 10
24.63830563561461
 20
241.8984003497195
 30
0.0
  0
VERTEX
  5
D8
330
D5
100
AcDbEntity
  8
LAYER_2
 62
     7
100
AcDbVertex
100
AcDb2dVertex
 10
24.63830563561461
 20
254.3984207998197
 30
0.0
  0
VERTEX
  5
D9
330
D5
100
AcDbEntity
  8
LAYER_2
 62
     7
100
AcDbVertex
100
AcDb2dVertex
 10
37.63838202528304
 20
254.3984207998197
 30
0.0
  0
VERTEX
  5
DA
330
D5
100
AcDbEntity
  8
LAYER_2
 62
     7
100
AcDbVertex
100
AcDb2dVertex
 10
37.63838202528304
 20
241.8984003497195
 30
0.0
  0
SEQEND
  5
DB
330
D5
100
AcDbEntity
  8
LAYER_2
  0
POLYLINE
  5
DC
330
1F
100
AcDbEntity
  8
LAYER_2
 62
     7
100
AcDb2dPolyline
 66
     1
 10
0.0
 20
0.0
 30
0.0
  0
VERTEX
  5
DD
330
DC
100
AcDbEntity
  8
LAYER_2
 62
     7
100
AcDbVertex
100
AcDb2dVertex
 10
76.34043798333676
 20
238.6484673797463
 30
0.0
  0
VERTEX
  5
DE
330
DC
100
AcDbEntity
  8
LAYER_2
 62
     7
100
AcDbVertex
100
AcDb2dVertex
 10
48.34040595550312
 20
238.6484673797463
 30
0.0
  0
VERTEX
  5
DF
330
DC
100
AcDbEntity
  8
LAYER_2
 62
     7
100
AcDbVertex
100
AcDb2dVertex
 10
48.34040595550312
 20
257.6485260246808
 30
0.0
  0
VERTEX
  5
E0
330
DC
100
AcDbEntity
  8
LAYER_2
 62
     7
100
AcDbVertex
100
AcDb2dVertex
 10
76.34043798333676
 20
257.6485260246808
 30
0.0
  0
VERTEX
  5
E1
330
DC
100
AcDbEntity
  8
LAYER_2
 62
     7
100
AcDbVertex
100
AcDb2dVertex
 10
76.34043798333676
 20
238.6484673797463
 30
0.0
  0
SEQEND
  5
E2
330
DC
100
AcDbEntity
  8
LAYER_2
  0
POLYLINE
  5
E3
330
1F
100
AcDbEntity
  8
LAYER_2
 62
     7
100
AcDb2dPolyline
 66
     1
 10
0.0
 20
0.0
 30
0.0
  0
VERTEX
  5
E4
330
E3
100
AcDbEntity
  8
LAYER_2
 62
     7
100
AcDbVertex
100
AcDb2dVertex
 10
68.84046016425415
 20
241.8984003497195
 30
0.0
  0
VERTEX
  5
E5
330
E3
100
AcDbEntity
  8
LAYER_2
 62
     7
100
AcDbVertex
100
AcDb2dVertex
 10
55.84038377458572
 20
241.8984003497195
 30
0.0
  0
VERTEX
  5
E6
330
E3
100
AcDbEntity
  8
LAYER_2
 62
     7
100
AcDbVertex
100
AcDb2dVertex
 10
55.84038377458572
 20
254.3984207998197
 30
0.0
  0
VERTEX
  5
E7
330
E3
100
AcDbEntity
  8
LAYER_2
 62
     7
100
AcDbVertex
100
AcDb2dVertex
 10
68.84046016425415
 20
254.3984207998197
 30
0.0
  0
VERTEX
  5
E8
330
E3
100
AcDbEntity
  8
LAYER_2
 62
     7
100
AcDbVertex
100
AcDb2dVertex
 10
68.84046016425415
 20
241.8984003497195
 30
0.0
  0
SEQEND
  5
E9
330
E3
100
AcDbEntity
  8
LAYER_2
  0
POLYLINE
  5
EA
330
1F
100
AcDbEntity
  8
LAYER_2
 62
     7
100
AcDb2dPolyline
 66
     1
 10
0.0
 20
0.0
 30
0.0
  0
VERTEX
  5
EB
330
EA
100
AcDbEntity
  8
LAYER_2
 62
     7
100
AcDbVertex
100
AcDb2dVertex
 10
107.4238325045461
 20
238.6482951248584
 30
0.0
  0
VERTEX
  5
EC
330
EA
100
AcDbEntity
  8
LAYER_2
 62
     7
100
AcDbVertex
100
AcDb2dVertex
 10
79.42380047671246
 20
238.6482951248584
 30
0.0
  0
VERTEX
  5
ED
330
EA
100
AcDbEntity
  8
LAYER_2
 62
     7
100
AcDbVertex
100
AcDb2dVertex
 10
79.42380047671246
 20
257.6483537697929
 30
0.0
  0
VERTEX
  5
EE
330
EA
100
AcDbEntity
  8
LAYER_2
 62
     7
100
AcDbVertex
100
AcDb2dVertex
 10
107.4238325045461
 20
257.6483537697929
 30
0.0
  0
VERTEX
  5
EF
330
EA
100
AcDbEntity
  8
LAYER_2
 62
     7
100
AcDbVertex
100
AcDb2dVertex
 10
107.4238325045461
 20
238.6482951248584
 30
0.0
  0
SEQEND
  5
F0
330
EA
100
AcDbEntity
  8
LAYER_2
  0
POLYLINE
  5
F1
330
1F
100
AcDbEntity
  8
LAYER_2
 62
     7
100
AcDb2dPolyline
 66
     1
 10
0.0
 20
0.0
 30
0.0
  0
VERTEX
  5
F2
330
F1
100
AcDbEntity
  8
LAYER_2
 62
     7
100
AcDbVertex
100
AcDb2dVertex
 10
99.92385468546348
 20
241.8982280948316
 30
0.0
  0
VERTEX
  5
F3
330
F1
100
AcDbEntity
  8
LAYER_2
 62
     7
100
AcDbVertex
100
AcDb2dVertex
 10
86.92377829579506
 20
241.8982280948316
 30
0.0
  0
VERTEX
  5
F4
330
F1
100
AcDbEntity
  8
LAYER_2
 62
     7
100
AcDbVertex
100
AcDb2dVertex
 10
86.92377829579506
 20
254.3982485449318
 30
0.0
  0
VERTEX
  5
F5
330
F1
100
AcDbEntity
  8
LAYER_2
 62
     7
100
AcDbVertex
100
AcDb2dVertex
 10
99.92385468546348
 20
254.3982485449318
 30
0.0
  0
VERTEX
  5
F6
330
F1
100
AcDbEntity
  8
LAYER_2
 62
     7
100
AcDbVertex
100
AcDb2dVertex
 10
99.92385468546348
 20
241.8982280948316
 30
0.0
  0
SEQEND
  5
F7
330
F1
100
AcDbEntity
  8
LAYER_2
  0
POLYLINE
  5
F8
330
1F
100
AcDbEntity
  8
LAYER_2
 62
     7
100
AcDb2dPolyline
 66
     1
 10
0.0
 20
0.0
 30
0.0
  0
VERTEX
  5
F9
330
F8
100
AcDbEntity
  8
LAYER_2
 62
     7
100
AcDbVertex
100
AcDb2dVertex
 10
136.2741146590446
 20
217.8345647652449
 30
0.0
  0
VERTEX
  5
FA
330
F8
100
AcDbEntity
  8
LAYER_2
 62
     7
100
AcDbVertex
100
AcDb2dVertex
 10
108.274082631211
 20
217.8345647652449
 30
0.0
  0
VERTEX
  5
FB
330
F8
100
AcDbEntity
  8
LAYER_2
 62
     7
100
AcDbVertex
100
AcDb2dVertex
 10
108.274082631211
 20
236.8346234101795
 30
0.0
  0
VERTEX
  5
FC
330
F8
100
AcDbEntity
  8
LAYER_2
 62
     7
100
AcDbVertex
100
AcDb2dVertex
 10
136.2741146590446
 20
236.8346234101795
 30
0.0
  0
VERTEX
  5
FD
330
F8
100
AcDbEntity
  8
LAYER_2
 62
     7
100
AcDbVertex
100
AcDb2dVertex
 10
136.2741146590446
 20
217.8345647652449
 30
0.0
  0
SEQEND
  5
FE
330
F8
100
AcDbEntity
  8
LAYER_2
  0
POLYLINE
  5
FF
330
1F
100
AcDbEntity
  8
LAYER_2
 62
     7
100
AcDb2dPolyline
 66
     1
 10
0.0
 20
0.0
 30
0.0
  0
VERTEX
  5
100
330
FF
100
AcDbEntity
  8
LAYER_2
 62
     7
100
AcDbVertex
100
AcDb2dVertex
 10
128.7741368399621
 20
221.0844977352181
 30
0.0
  0
VERTEX
  5
101
330
FF
100
AcDbEntity
  8
LAYER_2
 62
     7
100
AcDbVertex
100
AcDb2dVertex
 10
115.7740604502936
 20
221.0844977352181
 30
0.0
  0
VERTEX
  5
102
330
FF
100
AcDbEntity
  8
LAYER_2
 62
     7
100
AcDbVertex
100
AcDb2dVertex
 10
115.7740604502936
 20
233.5845181853184
 30
0.0
  0
VERTEX
  5
103
330
FF
100
AcDbEntity
  8
LAYER_2
 62
     7
100
AcDbVertex
100
AcDb2dVertex
 10
128.7741368399621
 20
233.5845181853184
 30
0.0
  0
VERTEX
  5
104
330
FF
100
AcDbEntity
  8
LAYER_2
 62
     7
100
AcDbVertex
100
AcDb2dVertex
 10
128.7741368399621
 20
221.0844977352181
 30
0.0
  0
SEQEND
  5
105
330
FF
100
AcDbEntity
  8
LAYER_2
  0
POLYLINE
  5
106
330
1F
100
AcDbEntity
  8
LAYER_2
 62
     7
100
AcDb2dPolyline
 66
     1
 10
0.0
 20
0.0
 30
0.0
  0
VERTEX
  5
107
330
106
100
AcDbEntity
  8
LAYER_2
 62
     7
100
AcDbVertex
100
AcDb2dVertex
 10
44.40696559035037
 20
217.8345647652449
 30
0.0
  0
VERTEX
  5
108
330
106
100
AcDbEntity
  8
LAYER_2
 62
     7
100
AcDbVertex
100
AcDb2dVertex
 10
16.40693356251674
 20
217.8345647652449
 30
0.0
  0
VERTEX
  5
109
330
106
100
AcDbEntity
  8
LAYER_2
 62
     7
100
AcDbVertex
100
AcDb2dVertex
 10
16.40693356251674
 20
236.8346234101795
 30
0.0
  0
VERTEX
  5
10A
330
106
100
AcDbEntity
  8
LAYER_2
 62
     7
100
AcDbVertex
100
AcDb2dVertex
 10
44.40696559035037
 20
236.8346234101795
 30
0.0
  0
VERTEX
  5
10B
330
106
100
AcDbEntity
  8
LAYER_2
 62
     7
100
AcDbVertex
100
AcDb2dVertex
 10
44.40696559035037
 20
217.8345647652449
 30
0.0
  0
SEQEND
  5
10C
330
106
100
AcDbEntity
  8
LAYER_2
  0
POLYLINE
  5
10D
330
1F
100
AcDbEntity
  8
LAYER_2
 62
     7
100
AcDb2dPolyline
 66
     1
 10
0.0
 20
0.0
 30
0.0
  0
VERTEX
  5
10E
330
10D
100
AcDbEntity
  8
LAYER_2
 62
     7
100
AcDbVertex
100
AcDb2dVertex
 10
36.90698777126777
 20
221.0844977352181
 30
0.0
  0
VERTEX
  5
10F
330
10D
100
AcDbEntity
  8
LAYER_2
 62
     7
100
AcDbVertex
100
AcDb2dVertex
 10
23.90691138159934
 20
221.0844977352181
 30
0.0
  0
VERTEX
  5
110
330
10D
100
AcDbEntity
  8
LAYER_2
 62
     7
100
AcDbVertex
100
AcDb2dVertex
 10
23.90691138159934
 20
233.5845181853184
 30
0.0
  0
VERTEX
  5
111
330
10D
100
AcDbEntity
  8
LAYER_2
 62
     7
100
AcDbVertex
100
AcDb2dVertex
 10
36.90698777126777
 20
233.5845181853184
 30
0.0
  0
VERTEX
  5
112
330
10D
100
AcDbEntity
  8
LAYER_2
 62
     7
100
AcDbVertex
100
AcDb2dVertex
 10
36.90698777126777
 20
221.0844977352181
 30
0.0
  0
SEQEND
  5
113
330
10D
100
AcDbEntity
  8
LAYER_2
  0
POLYLINE
  5
114
330
1F
100
AcDbEntity
  8
LAYER_2
 62
     7
100
AcDb2dPolyline
 66
     1
 10
0.0
 20
0.0
 30
0.0
  0
VERTEX
  5
115
330
114
100
AcDbEntity
  8
LAYER_2
 62
     7
100
AcDbVertex
100
AcDb2dVertex
 10
75.60904372932148
 20
217.8345647652449
 30
0.0
  0
VERTEX
  5
116
330
114
100
AcDbEntity
  8
LAYER_2
 62
     7
100
AcDbVertex
100
AcDb2dVertex
 10
47.60901170148786
 20
217.8345647652449
 30
0.0
  0
VERTEX
  5
117
330
114
100
AcDbEntity
  8
LAYER_2
 62
     7
100
AcDbVertex
100
AcDb2dVertex
 10
47.60901170148786
 20
236.8346234101795
 30
0.0
  0
VERTEX
  5
118
330
114
100
AcDbEntity
  8
LAYER_2
 62
     7
100
AcDbVertex
100
AcDb2dVertex
 10
75.60904372932148
 20
236.8346234101795
 30
0.0
  0
VERTEX
  5
119
330
114
100
AcDbEntity
  8
LAYER_2
 62
     7
100
AcDbVertex
100
AcDb2dVertex
 10
75.60904372932148
 20
217.8345647652449
 30
0.0
  0
SEQEND
  5
11A
330
114
100
AcDbEntity
  8
LAYER_2
  0
POLYLINE
  5
11B
330
1F
100
AcDbEntity
  8
LAYER_2
 62
     7
100
AcDb2dPolyline
 66
     1
 10
0.0
 20
0.0
 30
0.0
  0
VERTEX
  5
11C
330
11B
100
AcDbEntity
  8
LAYER_2
 62
     7
100
AcDbVertex
100
AcDb2dVertex
 10
68.10906591023888
 20
221.0844977352181
 30
0.0
  0
VERTEX
  5
11D
330
11B
100
AcDbEntity
  8
LAYER_2
 62
     7
100
AcDbVertex
100
AcDb2dVertex
 10
55.10898952057045
 20
221.0844977352181
 30
0.0
  0
VERTEX
  5
11E
330
11B
100
AcDbEntity
  8
LAYER_2
 62
     7
100
AcDbVertex
100
AcDb2dVertex
 10
55.10898952057045
 20
233.5845181853184
 30
0.0
  0
VERTEX
  5
11F
330
11B
100
AcDbEntity
  8
LAYER_2
 62
     7
100
AcDbVertex
100
AcDb2dVertex
 10
68.10906591023888
 20
233.5845181853184
 30
0.0
  0
VERTEX
  5
120
330
11B
100
AcDbEntity
  8
LAYER_2
 62
     7
100
AcDbVertex
100
AcDb2dVertex
 10
68.10906591023888
 20
221.0844977352181
 30
0.0
  0
SEQEND
  5
121
330
11B
100
AcDbEntity
  8
LAYER_2
  0
POLYLINE
  5
122
330
1F
100
AcDbEntity
  8
LAYER_2
 62
     7
100
AcDb2dPolyline
 66
     1
 10
0.0
 20
0.0
 30
0.0
  0
VERTEX
  5
123
330
122
100
AcDbEntity
  8
LAYER_2
 62
     7
100
AcDbVertex
100
AcDb2dVertex
 10
106.6924382505308
 20
217.834392510357
 30
0.0
  0
VERTEX
  5
124
330
122
100
AcDbEntity
  8
LAYER_2
 62
     7
100
AcDbVertex
100
AcDb2dVertex
 10
78.69240622269719
 20
217.834392510357
 30
0.0
  0
VERTEX
  5
125
330
122
100
AcDbEntity
  8
LAYER_2
 62
     7
100
AcDbVertex
100
AcDb2dVertex
 10
78.69240622269719
 20
236.8344511552916
 30
0.0
  0
VERTEX
  5
126
330
122
100
AcDbEntity
  8
LAYER_2
 62
     7
100
AcDbVertex
100
AcDb2dVertex
 10
106.6924382505308
 20
236.8344511552916
 30
0.0
  0
VERTEX
  5
127
330
122
100
AcDbEntity
  8
LAYER_2
 62
     7
100
AcDbVertex
100
AcDb2dVertex
 10
106.6924382505308
 20
217.834392510357
 30
0.0
  0
SEQEND
  5
128
330
122
100
AcDbEntity
  8
LAYER_2
  0
POLYLINE
  5
129
330
1F
100
AcDbEntity
  8
LAYER_2
 62
     7
100
AcDb2dPolyline
 66
     1
 10
0.0
 20
0.0
 30
0.0
  0
VERTEX
  5
12A
330
129
100
AcDbEntity
  8
LAYER_2
 62
     7
100
AcDbVertex
100
AcDb2dVertex
 10
99.19246043144823
 20
221.0843254803302
 30
0.0
  0
VERTEX
  5
12B
330
129
100
AcDbEntity
  8
LAYER_2
 62
     7
100
AcDbVertex
100
AcDb2dVertex
 10
86.19238404177979
 20
221.0843254803302
 30
0.0
  0
VERTEX
  5
12C
330
129
100
AcDbEntity
  8
LAYER_2
 62
     7
100
AcDbVertex
100
AcDb2dVertex
 10
86.19238404177979
 20
233.5843459304305
 30
0.0
  0
VERTEX
  5
12D
330
129
100
AcDbEntity
  8
LAYER_2
 62
     7
100
AcDbVertex
100
AcDb2dVertex
 10
99.19246043144823
 20
233.5843459304305
 30
0.0
  0
VERTEX
  5
12E
330
129
100
AcDbEntity
  8
LAYER_2
 62
     7
100
AcDbVertex
100
AcDb2dVertex
 10
99.19246043144823
 20
221.0843254803302
 30
0.0
  0
SEQEND
  5
12F
330
129
100
AcDbEntity
  8
LAYER_2
  0
POLYLINE
  5
130
330
1F
100
AcDbEntity
  8
LAYER_2
 62
     7
100
AcDb2dPolyline
 66
     1
 10
0.0
 20
0.0
 30
0.0
  0
VERTEX
  5
131
330
130
100
AcDbEntity
  8
LAYER_2
 62
     7
100
AcDbVertex
100
AcDb2dVertex
 10
136.2741146590446
 20
197.3734401611589
 30
0.0
  0
VERTEX
  5
132
330
130
100
AcDbEntity
  8
LAYER_2
 62
     7
100
AcDbVertex
100
AcDb2dVertex
 10
108.274082631211
 20
197.3734401611589
 30
0.0
  0
VERTEX
  5
133
330
130
100
AcDbEntity
  8
LAYER_2
 62
     7
100
AcDbVertex
100
AcDb2dVertex
 10
108.274082631211
 20
216.3734988060934
 30
0.0
  0
VERTEX
  5
134
330
130
100
AcDbEntity
  8
LAYER_2
 62
     7
100
AcDbVertex
100
AcDb2dVertex
 10
136.2741146590446
 20
216.3734988060934
 30
0.0
  0
VERTEX
  5
135
330
130
100
AcDbEntity
  8
LAYER_2
 62
     7
100
AcDbVertex
100
AcDb2dVertex
 10
136.2741146590446
 20
197.3734401611589
 30
0.0
  0
SEQEND
  5
136
330
130
100
AcDbEntity
  8
LAYER_2
  0
POLYLINE
  5
137
330
1F
100
AcDbEntity
  8
LAYER_2
 62
     7
100
AcDb2dPolyline
 66
     1
 10
0.0
 20
0.0
 30
0.0
  0
VERTEX
  5
138
330
137
100
AcDbEntity
  8
LAYER_2
 62
     7
100
AcDbVertex
100
AcDb2dVertex
 10
128.7741368399621
 20
200.623373131132
 30
0.0
  0
VERTEX
  5
139
330
137
100
AcDbEntity
  8
LAYER_2
 62
     7
100
AcDbVertex
100
AcDb2dVertex
 10
115.7740604502936
 20
200.623373131132
 30
0.0
  0
VERTEX
  5
13A
330
137
100
AcDbEntity
  8
LAYER_2
 62
     7
100
AcDbVertex
100
AcDb2dVertex
 10
115.7740604502936
 20
213.1233935812323
 30
0.0
  0
VERTEX
  5
13B
330
137
100
AcDbEntity
  8
LAYER_2
 62
     7
100
AcDbVertex
100
AcDb2dVertex
 10
128.7741368399621
 20
213.1233935812323
 30
0.0
  0
VERTEX
  5
13C
330
137
100
AcDbEntity
  8
LAYER_2
 62
     7
100
AcDbVertex
100
AcDb2dVertex
 10
128.7741368399621
 20
200.623373131132
 30
0.0
  0
SEQEND
  5
13D
330
137
100
AcDbEntity
  8
LAYER_2
  0
POLYLINE
  5
13E
330
1F
100
AcDbEntity
  8
LAYER_2
 62
     7
100
AcDb2dPolyline
 66
     1
 10
0.0
 20
0.0
 30
0.0
  0
VERTEX
  5
13F
330
13E
100
AcDbEntity
  8
LAYER_2
 62
     7
100
AcDbVertex
100
AcDb2dVertex
 10
44.40696559035037
 20
197.3734401611589
 30
0.0
  0
VERTEX
  5
140
330
13E
100
AcDbEntity
  8
LAYER_2
 62
     7
100
AcDbVertex
100
AcDb2dVertex
 10
16.40693356251674
 20
197.3734401611589
 30
0.0
  0
VERTEX
  5
141
330
13E
100
AcDbEntity
  8
LAYER_2
 62
     7
100
AcDbVertex
100
AcDb2dVertex
 10
16.40693356251674
 20
216.3734988060934
 30
0.0
  0
VERTEX
  5
142
330
13E
100
AcDbEntity
  8
LAYER_2
 62
     7
100
AcDbVertex
100
AcDb2dVertex
 10
44.40696559035037
 20
216.3734988060934
 30
0.0
  0
VERTEX
  5
143
330
13E
100
AcDbEntity
  8
LAYER_2
 62
     7
100
AcDbVertex
100
AcDb2dVertex
 10
44.40696559035037
 20
197.3734401611589
 30
0.0
  0
SEQEND
  5
144
330
13E
100
AcDbEntity
  8
LAYER_2
  0
POLYLINE
  5
145
330
1F
100
AcDbEntity
  8
LAYER_2
 62
     7
100
AcDb2dPolyline
 66
     1
 10
0.0
 20
0.0
 30
0.0
  0
VERTEX
  5
146
330
145
100
AcDbEntity
  8
LAYER_2
 62
     7
100
AcDbVertex
100
AcDb2dVertex
 10
36.90698777126777
 20
200.623373131132
 30
0.0
  0
VERTEX
  5
147
330
145
100
AcDbEntity
  8
LAYER_2
 62
     7
100
AcDbVertex
100
AcDb2dVertex
 10
23.90691138159934
 20
200.623373131132
 30
0.0
  0
VERTEX
  5
148
330
145
100
AcDbEntity
  8
LAYER_2
 62
     7
100
AcDbVertex
100
AcDb2dVertex
 10
23.90691138159934
 20
213.1233935812323
 30
0.0
  0
VERTEX
  5
149
330
145
100
AcDbEntity
  8
LAYER_2
 62
     7
100
AcDbVertex
100
AcDb2dVertex
 10
36.90698777126777
 20
213.1233935812323
 30
0.0
  0
VERTEX
  5
14A
330
145
100
AcDbEntity
  8
LAYER_2
 62
     7
100
AcDbVertex
100
AcDb2dVertex
 10
36.90698777126777
 20
200.623373131132
 30
0.0
  0
SEQEND
  5
14B
330
145
100
AcDbEntity
  8
LAYER_2
  0
POLYLINE
  5
14C
330
1F
100
AcDbEntity
  8
LAYER_2
 62
     7
100
AcDb2dPolyline
 66
     1
 10
0.0
 20
0.0
 30
0.0
  0
VERTEX
  5
14D
330
14C
100
AcDbEntity
  8
LAYER_2
 62
     7
100
AcDbVertex
100
AcDb2dVertex
 10
75.60904372932148
 20
197.3734401611589
 30
0.0
  0
VERTEX
  5
14E
330
14C
100
AcDbEntity
  8
LAYER_2
 62
     7
100
AcDbVertex
100
AcDb2dVertex
 10
47.60901170148786
 20
197.3734401611589
 30
0.0
  0
VERTEX
  5
14F
330
14C
100
AcDbEntity
  8
LAYER_2
 62
     7
100
AcDbVertex
100
AcDb2dVertex
 10
47.60901170148786
 20
216.3734988060934
 30
0.0
  0
VERTEX
  5
150
330
14C
100
AcDbEntity
  8
LAYER_2
 62
     7
100
AcDbVertex
100
AcDb2dVertex
 10
75.60904372932148
 20
216.3734988060934
 30
0.0
  0
VERTEX
  5
151
330
14C
100
AcDbEntity
  8
LAYER_2
 62
     7
100
AcDbVertex
100
AcDb2dVertex
 10
75.60904372932148
 20
197.3734401611589
 30
0.0
  0
SEQEND
  5
152
330
14C
100
AcDbEntity
  8
LAYER_2
  0
POLYLINE
  5
153
330
1F
100
AcDbEntity
  8
LAYER_2
 62
     7
100
AcDb2dPolyline
 66
     1
 10
0.0
 20
0.0
 30
0.0
  0
VERTEX
  5
154
330
153
100
AcDbEntity
  8
LAYER_2
 62
     7
100
AcDbVertex
100
AcDb2dVertex
 10
68.10906591023888
 20
200.623373131132
 30
0.0
  0
VERTEX
  5
155
330
153
100
AcDbEntity
  8
LAYER_2
 62
     7
100
AcDbVertex
100
AcDb2dVertex
 10
55.10898952057045
 20
200.623373131132
 30
0.0
  0
VERTEX
  5
156
330
153
100
AcDbEntity
  8
LAYER_2
 62
     7
100
AcDbVertex
100
AcDb2dVertex
 10
55.10898952057045
 20
213.1233935812323
 30
0.0
  0
VERTEX
  5
157
330
153
100
AcDbEntity
  8
LAYER_2
 62
     7
100
AcDbVertex
100
AcDb2dVertex
 10
68.10906591023888
 20
213.1233935812323
 30
0.0
  0
VERTEX
  5
158
330
153
100
AcDbEntity
  8
LAYER_2
 62
     7
100
AcDbVertex
100
AcDb2dVertex
 10
68.10906591023888
 20
200.623373131132
 30
0.0
  0
SEQEND
  5
159
330
153
100
AcDbEntity
  8
LAYER_2
  0
POLYLINE
  5
15A
330
1F
100
AcDbEntity
  8
LAYER_2
 62
     7
100
AcDb2dPolyline
 66
     1
 10
0.0
 20
0.0
 30
0.0
  0
VERTEX
  5
15B
330
15A
100
AcDbEntity
  8
LAYER_2
 62
     7
100
AcDbVertex
100
AcDb2dVertex
 10
106.6924382505308
 20
197.373267906271
 30
0.0
  0
VERTEX
  5
15C
330
15A
100
AcDbEntity
  8
LAYER_2
 62
     7
100
AcDbVertex
100
AcDb2dVertex
 10
78.69240622269719
 20
197.373267906271
 30
0.0
  0
VERTEX
  5
15D
330
15A
100
AcDbEntity
  8
LAYER_2
 62
     7
100
AcDbVertex
100
AcDb2dVertex
 10
78.69240622269719
 20
216.3733265512055
 30
0.0
  0
VERTEX
  5
15E
330
15A
100
AcDbEntity
  8
LAYER_2
 62
     7
100
AcDbVertex
100
AcDb2dVertex
 10
106.6924382505308
 20
216.3733265512055
 30
0.0
  0
VERTEX
  5
15F
330
15A
100
AcDbEntity
  8
LAYER_2
 62
     7
100
AcDbVertex
100
AcDb2dVertex
 10
106.6924382505308
 20
197.373267906271
 30
0.0
  0
SEQEND
  5
160
330
15A
100
AcDbEntity
  8
LAYER_2
  0
POLYLINE
  5
161
330
1F
100
AcDbEntity
  8
LAYER_2
 62
     7
100
AcDb2dPolyline
 66
     1
 10
0.0
 20
0.0
 30
0.0
  0
VERTEX
  5
162
330
161
100
AcDbEntity
  8
LAYER_2
 62
     7
100
AcDbVertex
100
AcDb2dVertex
 10
99.19246043144823
 20
200.6232008762441
 30
0.0
  0
VERTEX
  5
163
330
161
100
AcDbEntity
  8
LAYER_2
 62
     7
100
AcDbVertex
100
AcDb2dVertex
 10
86.19238404177979
 20
200.6232008762441
 30
0.0
  0
VERTEX
  5
164
330
161
100
AcDbEntity
  8
LAYER_2
 62
     7
100
AcDbVertex
100
AcDb2dVertex
 10
86.19238404177979
 20
213.1232213263444
 30
0.0
  0
VERTEX
  5
165
330
161
100
AcDbEntity
  8
LAYER_2
 62
     7
100
AcDbVertex
100
AcDb2dVertex
 10
99.19246043144823
 20
213.1232213263444
 30
0.0
  0
VERTEX
  5
166
330
161
100
AcDbEntity
  8
LAYER_2
 62
     7
100
AcDbVertex
100
AcDb2dVertex
 10
99.19246043144823
 20
200.6232008762441
 30
0.0
  0
SEQEND
  5
167
330
161
100
AcDbEntity
  8
LAYER_2
  0
POLYLINE
  5
168
330
1F
100
AcDbEntity
  8
LAYER_2
 62
     7
100
AcDb2dPolyline
 66
     1
 10
0.0
 20
0.0
 30
0.0
  0
VERTEX
  5
169
330
168
100
AcDbEntity
  8
LAYER_2
 62
     7
100
AcDbVertex
100
AcDb2dVertex
 10
136.2741146590446
 20
175.5012035154117
 30
0.0
  0
VERTEX
  5
16A
330
168
100
AcDbEntity
  8
LAYER_2
 62
     7
100
AcDbVertex
100
AcDb2dVertex
 10
108.274082631211
 20
175.5012035154117
 30
0.0
  0
VERTEX
  5
16B
330
168
100
AcDbEntity
  8
LAYER_2
 62
     7
100
AcDbVertex
100
AcDb2dVertex
 10
108.274082631211
 20
194.5012621603462
 30
0.0
  0
VERTEX
  5
16C
330
168
100
AcDbEntity
  8
LAYER_2
 62
     7
100
AcDbVertex
100
AcDb2dVertex
 10
136.2741146590446
 20
194.5012621603462
 30
0.0
  0
VERTEX
  5
16D
330
168
100
AcDbEntity
  8
LAYER_2
 62
     7
100
AcDbVertex
100
AcDb2dVertex
 10
136.2741146590446
 20
175.5012035154117
 30
0.0
  0
SEQEND
  5
16E
330
168
100
AcDbEntity
  8
LAYER_2
  0
POLYLINE
  5
16F
330
1F
100
AcDbEntity
  8
LAYER_2
 62
     7
100
AcDb2dPolyline
 66
     1
 10
0.0
 20
0.0
 30
0.0
  0
VERTEX
  5
170
330
16F
100
AcDbEntity
  8
LAYER_2
 62
     7
100
AcDbVertex
100
AcDb2dVertex
 10
128.7741368399621
 20
178.7511364853849
 30
0.0
  0
VERTEX
  5
171
330
16F
100
AcDbEntity
  8
LAYER_2
 62
     7
100
AcDbVertex
100
AcDb2dVertex
 10
115.7740604502936
 20
178.7511364853849
 30
0.0
  0
VERTEX
  5
172
330
16F
100
AcDbEntity
  8
LAYER_2
 62
     7
100
AcDbVertex
100
AcDb2dVertex
 10
115.7740604502936
 20
191.2511569354852
 30
0.0
  0
VERTEX
  5
173
330
16F
100
AcDbEntity
  8
LAYER_2
 62
     7
100
AcDbVertex
100
AcDb2dVertex
 10
128.7741368399621
 20
191.2511569354852
 30
0.0
  0
VERTEX
  5
174
330
16F
100
AcDbEntity
  8
LAYER_2
 62
     7
100
AcDbVertex
100
AcDb2dVertex
 10
128.7741368399621
 20
178.7511364853849
 30
0.0
  0
SEQEND
  5
175
330
16F
100
AcDbEntity
  8
LAYER_2
  0
INSERT
  5
177
330
1F
100
AcDbEntity
  8
LAYER_2
100
AcDbBlockReference
  2
BLOCK_6
 10
0.0
 20
0.0
 30
0.0
  0
POLYLINE
  5
197
330
1F
100
AcDbEntity
  8
LAYER_2
 62
     7
100
AcDb2dPolyline
 66
     1
 10
0.0
 20
0.0
 30
0.0
  0
VERTEX
  5
198
330
197
100
AcDbEntity
  8
LAYER_2
 62
     7
100
AcDbVertex
100
AcDb2dVertex
 10
169.0748904125979
 20
238.6486396346342
 30
0.0
  0
VERTEX
  5
199
330
197
100
AcDbEntity
  8
LAYER_2
 62
     7
100
AcDbVertex
100
AcDb2dVertex
 10
141.0748583847643
 20
238.6486396346342
 30
0.0
  0
VERTEX
  5
19A
330
197
100
AcDbEntity
  8
LAYER_2
 62
     7
100
AcDbVertex
100
AcDb2dVertex
 10
141.0748583847643
 20
257.6486982795687
 30
0.0
  0
VERTEX
  5
19B
330
197
100
AcDbEntity
  8
LAYER_2
 62
     7
100
AcDbVertex
100
AcDb2dVertex
 10
169.0748904125979
 20
257.6486982795687
 30
0.0
  0
VERTEX
  5
19C
330
197
100
AcDbEntity
  8
LAYER_2
 62
     7
100
AcDbVertex
100
AcDb2dVertex
 10
169.0748904125979
 20
238.6486396346342
 30
0.0
  0
SEQEND
  5
19D
330
197
100
AcDbEntity
  8
LAYER_2
  0
POLYLINE
  5
19E
330
1F
100
AcDbEntity
  8
LAYER_2
 62
     7
100
AcDb2dPolyline
 66
     1
 10
0.0
 20
0.0
 30
0.0
  0
VERTEX
  5
19F
330
19E
100
AcDbEntity
  8
LAYER_2
 62
     7
100
AcDbVertex
100
AcDb2dVertex
 10
161.5749125935153
 20
241.8985726046074
 30
0.0
  0
VERTEX
  5
1A0
330
19E
100
AcDbEntity
  8
LAYER_2
 62
     7
100
AcDbVertex
100
AcDb2dVertex
 10
148.5748362038469
 20
241.8985726046074
 30
0.0
  0
VERTEX
  5
1A1
330
19E
100
AcDbEntity
  8
LAYER_2
 62
     7
100
AcDbVertex
100
AcDb2dVertex
 10
148.5748362038469
 20
254.3985930547076
 30
0.0
  0
VERTEX
  5
1A2
330
19E
100
AcDbEntity
  8
LAYER_2
 62
     7
100
AcDbVertex
100
AcDb2dVertex
 10
161.5749125935153
 20
254.3985930547076
 30
0.0
  0
VERTEX
  5
1A3
330
19E
100
AcDbEntity
  8
LAYER_2
 62
     7
100
AcDbVertex
100
AcDb2dVertex
 10
161.5749125935153
 20
241.8985726046074
 30
0.0
  0
SEQEND
  5
1A4
330
19E
100
AcDbEntity
  8
LAYER_2
  0
POLYLINE
  5
1A5
330
1F
100
AcDbEntity
  8
LAYER_2
 62
     7
100
AcDb2dPolyline
 66
     1
 10
0.0
 20
0.0
 30
0.0
  0
VERTEX
  5
1A6
330
1A5
100
AcDbEntity
  8
LAYER_2
 62
     7
100
AcDbVertex
100
AcDb2dVertex
 10
168.3434961585826
 20
217.8347370201328
 30
0.0
  0
VERTEX
  5
1A7
330
1A5
100
AcDbEntity
  8
LAYER_2
 62
     7
100
AcDbVertex
100
AcDb2dVertex
 10
140.343464130749
 20
217.8347370201328
 30
0.0
  0
VERTEX
  5
1A8
330
1A5
100
AcDbEntity
  8
LAYER_2
 62
     7
100
AcDbVertex
100
AcDb2dVertex
 10
140.343464130749
 20
236.8347956650674
 30
0.0
  0
VERTEX
  5
1A9
330
1A5
100
AcDbEntity
  8
LAYER_2
 62
     7
100
AcDbVertex
100
AcDb2dVertex
 10
168.3434961585826
 20
236.8347956650674
 30
0.0
  0
VERTEX
  5
1AA
330
1A5
100
AcDbEntity
  8
LAYER_2
 62
     7
100
AcDbVertex
100
AcDb2dVertex
 10
168.3434961585826
 20
217.8347370201328
 30
0.0
  0
SEQEND
  5
1AB
330
1A5
100
AcDbEntity
  8
LAYER_2
  0
POLYLINE
  5
1AC
330
1F
100
AcDbEntity
  8
LAYER_2
 62
     7
100
AcDb2dPolyline
 66
     1
 10
0.0
 20
0.0
 30
0.0
  0
VERTEX
  5
1AD
330
1AC
100
AcDbEntity
  8
LAYER_2
 62
     7
100
AcDbVertex
100
AcDb2dVertex
 10
160.8435183395
 20
221.084669990106
 30
0.0
  0
VERTEX
  5
1AE
330
1AC
100
AcDbEntity
  8
LAYER_2
 62
     7
100
AcDbVertex
100
AcDb2dVertex
 10
147.8434419498316
 20
221.084669990106
 30
0.0
  0
VERTEX
  5
1AF
330
1AC
100
AcDbEntity
  8
LAYER_2
 62
     7
100
AcDbVertex
100
AcDb2dVertex
 10
147.8434419498316
 20
233.5846904402063
 30
0.0
  0
VERTEX
  5
1B0
330
1AC
100
AcDbEntity
  8
LAYER_2
 62
     7
100
AcDbVertex
100
AcDb2dVertex
 10
160.8435183395
 20
233.5846904402063
 30
0.0
  0
VERTEX
  5
1B1
330
1AC
100
AcDbEntity
  8
LAYER_2
 62
     7
100
AcDbVertex
100
AcDb2dVertex
 10
160.8435183395
 20
221.084669990106
 30
0.0
  0
SEQEND
  5
1B2
330
1AC
100
AcDbEntity
  8
LAYER_2
  0
POLYLINE
  5
1B3
330
1F
100
AcDbEntity
  8
LAYER_2
 62
     7
100
AcDb2dPolyline
 66
     1
 10
0.0
 20
0.0
 30
0.0
  0
VERTEX
  5
1B4
330
1B3
100
AcDbEntity
  8
LAYER_2
 62
     7
100
AcDbVertex
100
AcDb2dVertex
 10
168.3434961585826
 20
197.3736124160468
 30
0.0
  0
VERTEX
  5
1B5
330
1B3
100
AcDbEntity
  8
LAYER_2
 62
     7
100
AcDbVertex
100
AcDb2dVertex
 10
140.343464130749
 20
197.3736124160468
 30
0.0
  0
VERTEX
  5
1B6
330
1B3
100
AcDbEntity
  8
LAYER_2
 62
     7
100
AcDbVertex
100
AcDb2dVertex
 10
140.343464130749
 20
216.3736710609813
 30
0.0
  0
VERTEX
  5
1B7
330
1B3
100
AcDbEntity
  8
LAYER_2
 62
     7
100
AcDbVertex
100
AcDb2dVertex
 10
168.3434961585826
 20
216.3736710609813
 30
0.0
  0
VERTEX
  5
1B8
330
1B3
100
AcDbEntity
  8
LAYER_2
 62
     7
100
AcDbVertex
100
AcDb2dVertex
 10
168.3434961585826
 20
197.3736124160468
 30
0.0
  0
SEQEND
  5
1B9
330
1B3
100
AcDbEntity
  8
LAYER_2
  0
POLYLINE
  5
1BA
330
1F
100
AcDbEntity
  8
LAYER_2
 62
     7
100
AcDb2dPolyline
 66
     1
 10
0.0
 20
0.0
 30
0.0
  0
VERTEX
  5
1BB
330
1BA
100
AcDbEntity
  8
LAYER_2
 62
     7
100
AcDbVertex
100
AcDb2dVertex
 10
160.8435183395
 20
200.6235453860199
 30
0.0
  0
VERTEX
  5
1BC
330
1BA
100
AcDbEntity
  8
LAYER_2
 62
     7
100
AcDbVertex
100
AcDb2dVertex
 10
147.8434419498316
 20
200.6235453860199
 30
0.0
  0
VERTEX
  5
1BD
330
1BA
100
AcDbEntity
  8
LAYER_2
 62
     7
100
AcDbVertex
100
AcDb2dVertex
 10
147.8434419498316
 20
213.1235658361202
 30
0.0
  0
VERTEX
  5
1BE
330
1BA
100
AcDbEntity
  8
LAYER_2
 62
     7
100
AcDbVertex
100
AcDb2dVertex
 10
160.8435183395
 20
213.1235658361202
 30
0.0
  0
VERTEX
  5
1BF
330
1BA
100
AcDbEntity
  8
LAYER_2
 62
     7
100
AcDbVertex
100
AcDb2dVertex
 10
160.8435183395
 20
200.6235453860199
 30
0.0
  0
SEQEND
  5
1C0
330
1BA
100
AcDbEntity
  8
LAYER_2
  0
POLYLINE
  5
1C1
330
1F
100
AcDbEntity
  8
LAYER_2
 62
     7
100
AcDb2dPolyline
 66
     1
 10
0.0
 20
0.0
 30
0.0
  0
VERTEX
  5
1C2
330
1C1
100
AcDbEntity
  8
LAYER_2
 62
     7
100
AcDbVertex
100
AcDb2dVertex
 10
168.3434961585826
 20
175.5013757702996
 30
0.0
  0
VERTEX
  5
1C3
330
1C1
100
AcDbEntity
  8
LAYER_2
 62
     7
100
AcDbVertex
100
AcDb2dVertex
 10
140.343464130749
 20
175.5013757702996
 30
0.0
  0
VERTEX
  5
1C4
330
1C1
100
AcDbEntity
  8
LAYER_2
 62
     7
100
AcDbVertex
100
AcDb2dVertex
 10
140.343464130749
 20
194.5014344152341
 30
0.0
  0
VERTEX
  5
1C5
330
1C1
100
AcDbEntity
  8
LAYER_2
 62
     7
100
AcDbVertex
100
AcDb2dVertex
 10
168.3434961585826
 20
194.5014344152341
 30
0.0
  0
VERTEX
  5
1C6
330
1C1
100
AcDbEntity
  8
LAYER_2
 62
     7
100
AcDbVertex
100
AcDb2dVertex
 10
168.3434961585826
 20
175.5013757702996
 30
0.0
  0
SEQEND
  5
1C7
330
1C1
100
AcDbEntity
  8
LAYER_2
  0
POLYLINE
  5
1C8
330
1F
100
AcDbEntity
  8
LAYER_2
 62
     7
100
AcDb2dPolyline
 66
     1
 10
0.0
 20
0.0
 30
0.0
  0
VERTEX
  5
1C9
330
1C8
100
AcDbEntity
  8
LAYER_2
 62
     7
100
AcDbVertex
100
AcDb2dVertex
 10
160.8435183395
 20
178.7513087402728
 30
0.0
  0
VERTEX
  5
1CA
330
1C8
100
AcDbEntity
  8
LAYER_2
 62
     7
100
AcDbVertex
100
AcDb2dVertex
 10
147.8434419498316
 20
178.7513087402728
 30
0.0
  0
VERTEX
  5
1CB
330
1C8
100
AcDbEntity
  8
LAYER_2
 62
     7
100
AcDbVertex
100
AcDb2dVertex
 10
147.8434419498316
 20
191.2513291903731
 30
0.0
  0
VERTEX
  5
1CC
330
1C8
100
AcDbEntity
  8
LAYER_2
 62
     7
100
AcDbVertex
100
AcDb2dVertex
 10
160.8435183395
 20
191.2513291903731
 30
0.0
  0
VERTEX
  5
1CD
330
1C8
100
AcDbEntity
  8
LAYER_2
 62
     7
100
AcDbVertex
100
AcDb2dVertex
 10
160.8435183395
 20
178.7513087402728
 30
0.0
  0
SEQEND
  5
1CE
330
1C8
100
AcDbEntity
  8
LAYER_2
  0
POLYLINE
  5
1CF
330
1F
100
AcDbEntity
  8
LAYER_2
 62
     7
100
AcDb2dPolyline
 66
     1
 10
0.0
 20
0.0
 30
0.0
  0
VERTEX
  5
1D0
330
1CF
100
AcDbEntity
  8
LAYER_2
 62
     7
100
AcDbVertex
100
AcDb2dVertex
 10
44.40696559035037
 20
175.5012035154117
 30
0.0
  0
VERTEX
  5
1D1
330
1CF
100
AcDbEntity
  8
LAYER_2
 62
     7
100
AcDbVertex
100
AcDb2dVertex
 10
16.40693356251674
 20
175.5012035154117
 30
0.0
  0
VERTEX
  5
1D2
330
1CF
100
AcDbEntity
  8
LAYER_2
 62
     7
100
AcDbVertex
100
AcDb2dVertex
 10
16.40693356251674
 20
194.5012621603462
 30
0.0
  0
VERTEX
  5
1D3
330
1CF
100
AcDbEntity
  8
LAYER_2
 62
     7
100
AcDbVertex
100
AcDb2dVertex
 10
44.40696559035037
 20
194.5012621603462
 30
0.0
  0
VERTEX
  5
1D4
330
1CF
100
AcDbEntity
  8
LAYER_2
 62
     7
100
AcDbVertex
100
AcDb2dVertex
 10
44.40696559035037
 20
175.5012035154117
 30
0.0
  0
SEQEND
  5
1D5
330
1CF
100
AcDbEntity
  8
LAYER_2
  0
POLYLINE
  5
1D6
330
1F
100
AcDbEntity
  8
LAYER_2
 62
     7
100
AcDb2dPolyline
 66
     1
 10
0.0
 20
0.0
 30
0.0
  0
VERTEX
  5
1D7
330
1D6
100
AcDbEntity
  8
LAYER_2
 62
     7
100
AcDbVertex
100
AcDb2dVertex
 10
36.90698777126777
 20
178.7511364853849
 30
0.0
  0
VERTEX
  5
1D8
330
1D6
100
AcDbEntity
  8
LAYER_2
 62
     7
100
AcDbVertex
100
AcDb2dVertex
 10
23.90691138159934
 20
178.7511364853849
 30
0.0
  0
VERTEX
  5
1D9
330
1D6
100
AcDbEntity
  8
LAYER_2
 62
     7
100
AcDbVertex
100
AcDb2dVertex
 10
23.90691138159934
 20
191.2511569354852
 30
0.0
  0
VERTEX
  5
1DA
330
1D6
100
AcDbEntity
  8
LAYER_2
 62
     7
100
AcDbVertex
100
AcDb2dVertex
 10
36.90698777126777
 20
191.2511569354852
 30
0.0
  0
VERTEX
  5
1DB
330
1D6
100
AcDbEntity
  8
LAYER_2
 62
     7
100
AcDbVertex
100
AcDb2dVertex
 10
36.90698777126777
 20
178.7511364853849
 30
0.0
  0
SEQEND
  5
1DC
330
1D6
100
AcDbEntity
  8
LAYER_2
  0
POLYLINE
  5
1DD
330
1F
100
AcDbEntity
  8
LAYER_2
 62
     7
100
AcDb2dPolyline
 66
     1
 10
0.0
 20
0.0
 30
0.0
  0
VERTEX
  5
1DE
330
1DD
100
AcDbEntity
  8
LAYER_2
 62
     7
100
AcDbVertex
100
AcDb2dVertex
 10
75.60904372932148
 20
175.5012035154117
 30
0.0
  0
VERTEX
  5
1DF
330
1DD
100
AcDbEntity
  8
LAYER_2
 62
     7
100
AcDbVertex
100
AcDb2dVertex
 10
47.60901170148786
 20
175.5012035154117
 30
0.0
  0
VERTEX
  5
1E0
330
1DD
100
AcDbEntity
  8
LAYER_2
 62
     7
100
AcDbVertex
100
AcDb2dVertex
 10
47.60901170148786
 20
194.5012621603462
 30
0.0
  0
VERTEX
  5
1E1
330
1DD
100
AcDbEntity
  8
LAYER_2
 62
     7
100
AcDbVertex
100
AcDb2dVertex
 10
75.60904372932148
 20
194.5012621603462
 30
0.0
  0
VERTEX
  5
1E2
330
1DD
100
AcDbEntity
  8
LAYER_2
 62
     7
100
AcDbVertex
100
AcDb2dVertex
 10
75.60904372932148
 20
175.5012035154117
 30
0.0
  0
SEQEND
  5
1E3
330
1DD
100
AcDbEntity
  8
LAYER_2
  0
POLYLINE
  5
1E4
330
1F
100
AcDbEntity
  8
LAYER_2
 62
     7
100
AcDb2dPolyline
 66
     1
 10
0.0
 20
0.0
 30
0.0
  0
VERTEX
  5
1E5
330
1E4
100
AcDbEntity
  8
LAYER_2
 62
     7
100
AcDbVertex
100
AcDb2dVertex
 10
68.10906591023888
 20
178.7511364853849
 30
0.0
  0
VERTEX
  5
1E6
330
1E4
100
AcDbEntity
  8
LAYER_2
 62
     7
100
AcDbVertex
100
AcDb2dVertex
 10
55.10898952057045
 20
178.7511364853849
 30
0.0
  0
VERTEX
  5
1E7
330
1E4
100
AcDbEntity
  8
LAYER_2
 62
     7
100
AcDbVertex
100
AcDb2dVertex
 10
55.10898952057045
 20
191.2511569354852
 30
0.0
  0
VERTEX
  5
1E8
330
1E4
100
AcDbEntity
  8
LAYER_2
 62
     7
100
AcDbVertex
100
AcDb2dVertex
 10
68.10906591023888
 20
191.2511569354852
 30
0.0
  0
VERTEX
  5
1E9
330
1E4
100
AcDbEntity
  8
LAYER_2
 62
     7
100
AcDbVertex
100
AcDb2dVertex
 10
68.10906591023888
 20
178.7511364853849
 30
0.0
  0
SEQEND
  5
1EA
330
1E4
100
AcDbEntity
  8
LAYER_2
  0
POLYLINE
  5
1EB
330
1F
100
AcDbEntity
  8
LAYER_2
 62
     7
100
AcDb2dPolyline
 66
     1
 10
0.0
 20
0.0
 30
0.0
  0
VERTEX
  5
1EC
330
1EB
100
AcDbEntity
  8
LAYER_2
 62
     7
100
AcDbVertex
100
AcDb2dVertex
 10
106.6924382505308
 20
175.5010312605238
 30
0.0
  0
VERTEX
  5
1ED
330
1EB
100
AcDbEntity
  8
LAYER_2
 62
     7
100
AcDbVertex
100
AcDb2dVertex
 10
78.69240622269719
 20
175.5010312605238
 30
0.0
  0
VERTEX
  5
1EE
330
1EB
100
AcDbEntity
  8
LAYER_2
 62
     7
100
AcDbVertex
100
AcDb2dVertex
 10
78.69240622269719
 20
194.5010899054583
 30
0.0
  0
VERTEX
  5
1EF
330
1EB
100
AcDbEntity
  8
LAYER_2
 62
     7
100
AcDbVertex
100
AcDb2dVertex
 10
106.6924382505308
 20
194.5010899054583
 30
0.0
  0
VERTEX
  5
1F0
330
1EB
100
AcDbEntity
  8
LAYER_2
 62
     7
100
AcDbVertex
100
AcDb2dVertex
 10
106.6924382505308
 20
175.5010312605238
 30
0.0
  0
SEQEND
  5
1F1
330
1EB
100
AcDbEntity
  8
LAYER_2
  0
POLYLINE
  5
1F2
330
1F
100
AcDbEntity
  8
LAYER_2
 62
     7
100
AcDb2dPolyline
 66
     1
 10
0.0
 20
0.0
 30
0.0
  0
VERTEX
  5
1F3
330
1F2
100
AcDbEntity
  8
LAYER_2
 62
     7
100
AcDbVertex
100
AcDb2dVertex
 10
99.19246043144823
 20
178.750964230497
 30
0.0
  0
VERTEX
  5
1F4
330
1F2
100
AcDbEntity
  8
LAYER_2
 62
     7
100
AcDbVertex
100
AcDb2dVertex
 10
86.19238404177979
 20
178.750964230497
 30
0.0
  0
VERTEX
  5
1F5
330
1F2
100
AcDbEntity
  8
LAYER_2
 62
     7
100
AcDbVertex
100
AcDb2dVertex
 10
86.19238404177979
 20
191.2509846805973
 30
0.0
  0
VERTEX
  5
1F6
330
1F2
100
AcDbEntity
  8
LAYER_2
 62
     7
100
AcDbVertex
100
AcDb2dVertex
 10
99.19246043144823
 20
191.2509846805973
 30
0.0
  0
VERTEX
  5
1F7
330
1F2
100
AcDbEntity
  8
LAYER_2
 62
     7
100
AcDbVertex
100
AcDb2dVertex
 10
99.19246043144823
 20
178.750964230497
 30
0.0
  0
SEQEND
  5
1F8
330
1F2
100
AcDbEntity
  8
LAYER_2
  0
POLYLINE
  5
1F9
330
1F
100
AcDbEntity
  8
LAYER_2
 62
     4
100
AcDb2dPolyline
 66
     1
 10
0.0
 20
0.0
 30
0.0
  0
VERTEX
  5
1FA
330
1F9
100
AcDbEntity
  8
LAYER_2
 62
     4
100
AcDbVertex
100
AcDb2dVertex
 10
319.0747913040256
 20
81.03145534546528
 30
0.0
  0
VERTEX
  5
1FB
330
1F9
100
AcDbEntity
  8
LAYER_2
 62
     4
100
AcDbVertex
100
AcDb2dVertex
 10
19.07464501139438
 20
81.03145534546528
 30
0.0
  0
VERTEX
  5
1FC
330
1F9
100
AcDbEntity
  8
LAYER_2
 62
     4
100
AcDbVertex
100
AcDb2dVertex
 10
19.07464501139438
 20
157.2315055951651
 30
0.0
  0
VERTEX
  5
1FD
330
1F9
100
AcDbEntity
  8
LAYER_2
 62
     4
100
AcDbVertex
100
AcDb2dVertex
 10
319.0747913040256
 20
157.2315055951651
 30
0.0
  0
VERTEX
  5
1FE
330
1F9
100
AcDbEntity
  8
LAYER_2
 62
     4
100
AcDbVertex
100
AcDb2dVertex
 10
319.0747913040256
 20
81.03145534546528
 30
0.0
  0
SEQEND
  5
1FF
330
1F9
100
AcDbEntity
  8
LAYER_2
  0
INSERT
  5
201
330
1F
100
AcDbEntity
  8
LAYER_2
100
AcDbBlockReference
  2
BLOCK_7
 10
0.0
 20
0.0
 30
0.0
  0
ENDSEC
  0
SECTION
  2
OBJECTS
  0
DICTIONARY
  5
C
330
0
100
AcDbDictionary
  3
ACAD_GROUP
350
D
  3
ACAD_LAYOUT
350
1A
  3
ACAD_MLINESTYLE
350
17
  3
ACAD_PLOTSETTINGS
350
19
  3
ACAD_TABLESTYLE
350
34C
  3
ACAD_VISUALSTYLE
350
2A
  3
ACDBHEADERROUNDTRIPXREC
350
32C
  0
DICTIONARY
  5
D
102
{ACAD_REACTORS
330
C
102
}
330
C
100
AcDbDictionary
  0
DICTIONARY
  5
1A
102
{ACAD_REACTORS
330
C
102
}
330
C
100
AcDbDictionary
  0
DICTIONARY
  5
17
102
{ACAD_REACTORS
330
C
102
}
330
C
100
AcDbDictionary
  3
STANDARD
350
18
  0
DICTIONARY
  5
19
102
{ACAD_REACTORS
330
C
102
}
330
C
100
AcDbDictionary
  0
DICTIONARY
  5
34C
102
{ACAD_REACTORS
330
C
102
}
330
C
100
AcDbDictionary
  0
DICTIONARY
  5
2A
102
{ACAD_REACTORS
330
C
102
}
330
C
100
AcDbDictionary
  3
2DWIREFRAME
350
2F
  3
3DWIREFRAME
350
30
  3
3D_HIDDEN
350
31
  3
BASIC
350
32
  3
BRIGHTEN
350
36
  3
COLORCHANGE
350
3A
  3
CONCEPTUAL
350
34
  3
DIM
350
35
  3
FACEPATTERN
350
39
  3
FLAT
350
2B
  3
FLATWITHEDGES
350
2C
  3
GOURAUD
350
2D
  3
GOURAUDWITHEDGES
350
2E
  3
LINEPATTERN
350
38
  3
REALISTIC
350
33
  3
THICKEN
350
37
  0
DICTIONARY
  5
32C
102
{ACAD_REACTORS
330
C
102
}
330
C
100
AcDbDictionary
  3
CEPSNTYPE
350
335
  3
DIMSTYLEDATA
350
34B
  3
FINGERPRINTGUID
350
336
  3
HYPERLINKBASE
350
32F
  3
INSUNITS
350
334
  3
LAYOUTDICT
350
331
  3
LWETCUNION
350
333
  3
PLOTSETDICT
350
332
  3
PSVPSCALE
350
338
  3
PUCSBASE
350
33B
  3
PUCSORGBACK
350
341
  3
PUCSORGBOTTOM
350
33D
  3
PUCSORGFRONT
350
340
  3
PUCSORGLEFT
350
33E
  3
PUCSORGRIGHT
350
33F
  3
PUCSORGTOP
350
33C
  3
PUCSORTHOREF
350
339
  3
PUCSORTHOVIEW
350
33A
  3
STYLESHEET
350
330
  3
TSTACKALIGN
350
32D
  3
TSTACKSIZE
350
32E
  3
UCSBASE
350
344
  3
UCSORGBACK
350
34A
  3
UCSORGBOTTOM
350
346
  3
UCSORGFRONT
350
349
  3
UCSORGLEFT
350
347
  3
UCSORGRIGHT
350
348
  3
UCSORGTOP
350
345
  3
UCSORTHOREF
350
342
  3
UCSORTHOVIEW
350
343
  3
VERSIONGUID
350
337
  0
MLINESTYLE
  5
18
102
{ACAD_REACTORS
330
17
102
}
330
17
100
AcDbMlineStyle
  2
Standard
 70
     0
  3

 62
   256
 51
90.0
 52
90.0
 71
     2
 49
0.5
 62
   256
  6
BYLAYER
 49
-0.5
 62
   256
  6
BYLAYER
  0
VISUALSTYLE
  5
2F
102
{ACAD_REACTORS
330
2A
102
}
330
2A
100
AcDbVisualStyle
  2
2dWireframe
 70
     4
 71
     0
 72
     2
 73
     0
 90
        0
 40
-0.6
 41
-30.0
 62
     5
 63
     7
 74
     1
 91
        4
 64
     7
 65
   257
 75
     1
175
     1
 42
1.0
 92
        0
 66
   257
 43
1.0
 76
     1
 77
     6
 78
     2
 67
     7
 79
     5
170
     0
171
     0
290
     0
174
     0
 93
        1
 44
0.0
173
     0
291
     0
 45
0.0
1001
ACAD
1000
AcDbSavedByObjectVersion
1070
     0
  0
VISUALSTYLE
  5
30
102
{ACAD_REACTORS
330
2A
102
}
330
2A
100
AcDbVisualStyle
  2
3dWireframe
 70
     5
 71
     0
 72
     2
 73
     0
 90
        0
 40
-0.6
 41
-30.0
 62
     5
 63
     7
 74
     1
 91
        4
 64
     7
 65
   257
 75
     1
175
     1
 42
1.0
 92
        0
 66
   257
 43
1.0
 76
     1
 77
     6
 78
     2
 67
     7
 79
     5
170
     0
171
     0
290
     0
174
     0
 93
        1
 44
0.0
173
     0
291
     0
 45
0.0
1001
ACAD
1000
AcDbSavedByObjectVersion
1070
     0
  0
VISUALSTYLE
  5
31
102
{ACAD_REACTORS
330
2A
102
}
330
2A
100
AcDbVisualStyle
  2
3D Hidden
 70
     6
 71
     1
 72
     2
 73
     2
 90
        0
 40
-0.6
 41
-30.0
 62
     5
 63
     7
 74
     2
 91
        2
 64
     7
 65
   257
 75
     2
175
     1
 42
40.0
 92
        0
 66
   257
 43
1.0
 76
     1
 77
     6
 78
     2
 67
     7
 79
     3
170
     0
171
     0
290
     0
174
     0
 93
        1
 44
0.0
173
     0
291
     0
 45
0.0
1001
ACAD
1000
AcDbSavedByObjectVersion
1070
     0
  0
VISUALSTYLE
  5
32
102
{ACAD_REACTORS
330
2A
102
}
330
2A
100
AcDbVisualStyle
  2
Basic
 70
     7
 71
     1
 72
     0
 73
     1
 90
        0
 40
-0.6
 41
-30.0
 62
     5
 63
     7
 74
     0
 91
        4
 64
     7
 65
   257
 75
     1
175
     1
 42
1.0
 92
        8
 66
     7
 43
1.0
 76
     1
 77
     6
 78
     2
 67
     7
 79
     5
170
     0
171
     0
290
     0
174
     0
 93
        1
 44
0.0
173
     0
291
     1
 45
0.0
1001
ACAD
1000
AcDbSavedByObjectVersion
1070
     0
  0
VISUALSTYLE
  5
36
102
{ACAD_REACTORS
330
2A
102
}
330
2A
100
AcDbVisualStyle
  2
Brighten
 70
    12
 71
     2
 72
     2
 73
     0
 90
        0
 40
-0.6
 41
-30.0
 62
     5
 63
     7
 74
     1
 91
        4
 64
     7
 65
   257
 75
     1
175
     1
 42
1.0
 92
        8
 66
     7
 43
1.0
 76
     1
 77
     6
 78
     2
 67
     7
 79
     5
170
     0
171
     0
290
     0
174
     0
 93
        1
 44
50.0
173
     0
291
     1
 45
0.0
1001
ACAD
1000
AcDbSavedByObjectVersion
1070
     0
  0
VISUALSTYLE
  5
3A
102
{ACAD_REACTORS
330
2A
102
}
330
2A
100
AcDbVisualStyle
  2
ColorChange
 70
    16
 71
     2
 72
     2
 73
     3
 90
        0
 40
-0.6
 41
-30.0
 62
     5
 63
     8
 74
     1
 91
        4
 64
     7
 65
   257
 75
     1
175
     1
 42
1.0
 92
        8
 66
     8
 43
1.0
 76
     1
 77
     6
 78
     2
 67
     7
 79
     5
170
     0
171
     0
290
     0
174
     0
 93
        1
 44
0.0
173
     0
291
     1
 45
0.0
1001
ACAD
1000
AcDbSavedByObjectVersion
1070
     0
  0
VISUALSTYLE
  5
34
102
{ACAD_REACTORS
330
2A
102
}
330
2A
100
AcDbVisualStyle
  2
Conceptual
 70
     9
 71
     3
 72
     2
 73
     0
 90
        0
 40
-0.6
 41
-30.0
 62
     5
 63
     7
 74
     2
 91
        2
 64
     7
 65
   257
 75
     1
175
     1
 42
40.0
 92
        8
 66
     7
 43
1.0
 76
     1
 77
     6
 78
     2
 67
     7
 79
     3
170
     0
171
     0
290
     0
174
     0
 93
        1
 44
0.0
173
     0
291
     0
 45
0.0
1001
ACAD
1000
AcDbSavedByObjectVersion
1070
     0
  0
VISUALSTYLE
  5
35
102
{ACAD_REACTORS
330
2A
102
}
330
2A
100
AcDbVisualStyle
  2
Dim
 70
    11
 71
     2
 72
     2
 73
     0
 90
        0
 40
-0.6
 41
-30.0
 62
     5
 63
     7
 74
     1
 91
        4
 64
     7
 65
   257
 75
     1
175
     1
 42
1.0
 92
        8
 66
     7
 43
1.0
 76
     1
 77
     6
 78
     2
 67
     7
 79
     5
170
     0
171
     0
290
     0
174
     0
 93
        1
 44
-50.0
173
     0
291
     1
 45
0.0
1001
ACAD
1000
AcDbSavedByObjectVersion
1070
     0
  0
VISUALSTYLE
  5
39
102
{ACAD_REACTORS
330
2A
102
}
330
2A
100
AcDbVisualStyle
  2
Facepattern
 70
    15
 71
     2
 72
     2
 73
     0
 90
        0
 40
-0.6
 41
-30.0
 62
     5
 63
     7
 74
     1
 91
        4
 64
     7
 65
   257
 75
     1
175
     1
 42
1.0
 92
        8
 66
     7
 43
1.0
 76
     1
 77
     6
 78
     2
 67
     7
 79
     5
170
     0
171
     0
290
     0
174
     0
 93
        1
 44
0.0
173
     0
291
     1
 45
0.0
1001
ACAD
1000
AcDbSavedByObjectVersion
1070
     0
  0
VISUALSTYLE
  5
2B
102
{ACAD_REACTORS
330
2A
102
}
330
2A
100
AcDbVisualStyle
  2
Flat
 70
     0
 71
     2
 72
     1
 73
     1
 90
        2
 40
-0.6
 41
30.0
 62
     5
 63
     7
 74
     0
 91
        4
 64
     7
 65
   257
 75
     1
175
     1
 42
1.0
 92
        8
 66
     7
 43
1.0
 76
     1
 77
     6
 78
     2
 67
     7
 79
     5
170
     0
171
     0
290
     0
174
     0
 93
       13
 44
0.0
173
     0
291
     1
 45
0.0
1001
ACAD
1000
AcDbSavedByObjectVersion
1070
     0
  0
VISUALSTYLE
  5
2C
102
{ACAD_REACTORS
330
2A
102
}
330
2A
100
AcDbVisualStyle
  2
FlatWithEdges
 70
     1
 71
     2
 72
     1
 73
     1
 90
        2
 40
-0.6
 41
30.0
 62
     5
 63
     7
 74
     1
 91
        4
 64
     7
 65
   257
 75
     1
175
     1
 42
1.0
 92
        0
 66
   257
 43
1.0
 76
     1
 77
     6
 78
     2
 67
     7
 79
     5
170
     0
171
     0
290
     0
174
     0
 93
       13
 44
0.0
173
     0
291
     1
 45
0.0
1001
ACAD
1000
AcDbSavedByObjectVersion
1070
     0
  0
VISUALSTYLE
  5
2D
102
{ACAD_REACTORS
330
2A
102
}
330
2A
100
AcDbVisualStyle
  2
Gouraud
 70
     2
 71
     2
 72
     2
 73
     1
 90
        2
 40
-0.6
 41
30.0
 62
     5
 63
     7
 74
     0
 91
        4
 64
     7
 65
   257
 75
     1
175
     1
 42
1.0
 92
        0
 66
     7
 43
1.0
 76
     1
 77
     6
 78
     2
 67
     7
 79
     5
170
     0
171
     0
290
     0
174
     0
 93
       13
 44
0.0
173
     0
291
     1
 45
0.0
1001
ACAD
1000
AcDbSavedByObjectVersion
1070
     0
  0
VISUALSTYLE
  5
2E
102
{ACAD_REACTORS
330
2A
102
}
330
2A
100
AcDbVisualStyle
  2
GouraudWithEdges
 70
     3
 71
     2
 72
     2
 73
     1
 90
        2
 40
-0.6
 41
30.0
 62
     5
 63
     7
 74
     1
 91
        4
 64
     7
 65
   257
 75
     1
175
     1
 42
1.0
 92
        0
 66
   257
 43
1.0
 76
     1
 77
     6
 78
     2
 67
     7
 79
     5
170
     0
171
     0
290
     0
174
     0
 93
       13
 44
0.0
173
     0
291
     1
 45
0.0
1001
ACAD
1000
AcDbSavedByObjectVersion
1070
     0
  0
VISUALSTYLE
  5
38
102
{ACAD_REACTORS
330
2A
102
}
330
2A
100
AcDbVisualStyle
  2
Linepattern
 70
    14
 71
     2
 72
     2
 73
     0
 90
        0
 40
-0.6
 41
-30.0
 62
     5
 63
     7
 74
     1
 91
        4
 64
     7
 65
   257
 75
     7
175
     7
 42
1.0
 92
        8
 66
     7
 43
1.0
 76
     1
 77
     6
 78
     2
 67
     7
 79
     5
170
     0
171
     0
290
     0
174
     0
 93
        1
 44
0.0
173
     0
291
     1
 45
0.0
1001
ACAD
1000
AcDbSavedByObjectVersion
1070
     0
  0
VISUALSTYLE
  5
33
102
{ACAD_REACTORS
330
2A
102
}
330
2A
100
AcDbVisualStyle
  2
Realistic
 70
     8
 71
     2
 72
     2
 73
     0
 90
        0
 40
-0.6
 41
-30.0
 62
     5
 63
     7
 74
     1
 91
        0
 64
     7
 65
   257
 75
     1
175
     1
 42
1.0
 92
        8
 66
     8
 43
1.0
 76
     1
 77
     6
 78
     2
 67
     7
 79
     5
170
     0
171
     0
290
     0
174
     0
 93
       13
 44
0.0
173
     0
291
     0
 45
0.0
1001
ACAD
1000
AcDbSavedByObjectVersion
1070
     0
  0
VISUALSTYLE
  5
37
102
{ACAD_REACTORS
330
2A
102
}
330
2A
100
AcDbVisualStyle
  2
Thicken
 70
    13
 71
     2
 72
     2
 73
     0
 90
        0
 40
-0.6
 41
-30.0
 62
     5
 63
     7
 74
     1
 91
        4
 64
     7
 65
   257
 75
     1
175
     1
 42
1.0
 92
       12
 66
     7
 43
1.0
 76
     1
 77
     6
 78
     2
 67
     7
 79
     5
170
     0
171
     0
290
     0
174
     0
 93
        1
 44
0.0
173
     0
291
     1
 45
0.0
1001
ACAD
1000
AcDbSavedByObjectVersion
1070
     0
  0
XRECORD
  5
335
102
{ACAD_REACTORS
330
32C
102
}
330
32C
100
AcDbXrecord
 90
        0
  0
XRECORD
  5
34B
102
{ACAD_REACTORS
330
32C
102
}
330
32C
100
AcDbXrecord
1000
DSTYLE
1002
{
1070
   340
340
11
1002
}
  0
XRECORD
  5
336
102
{ACAD_REACTORS
330
32C
102
}
330
32C
100
AcDbXrecord
  1
{348EB020-D766-7FB2-7D32-84FE1A5B62BF}
  0
XRECORD
  5
32F
102
{ACAD_REACTORS
330
32C
102
}
330
32C
100
AcDbXrecord
  1

  0
XRECORD
  5
334
102
{ACAD_REACTORS
330
32C
102
}
330
32C
100
AcDbXrecord
 90
        1
  0
XRECORD
  5
331
102
{ACAD_REACTORS
330
32C
102
}
330
32C
100
AcDbXrecord
340
1A
  0
XRECORD
  5
333
102
{ACAD_REACTORS
330
32C
102
}
330
32C
100
AcDbXrecord
 90
    10269
  0
XRECORD
  5
332
102
{ACAD_REACTORS
330
32C
102
}
330
32C
100
AcDbXrecord
340
19
  0
XRECORD
  5
338
102
{ACAD_REACTORS
330
32C
102
}
330
32C
100
AcDbXrecord
 40
0.0
  0
XRECORD
  5
33B
102
{ACAD_REACTORS
330
32C
102
}
330
32C
100
AcDbXrecord
340
0
  0
XRECORD
  5
341
102
{ACAD_REACTORS
330
32C
102
}
330
32C
100
AcDbXrecord
 10
0.0
 20
0.0
 30
0.0
  0
XRECORD
  5
33D
102
{ACAD_REACTORS
330
32C
102
}
330
32C
100
AcDbXrecord
 10
0.0
 20
0.0
 30
0.0
  0
XRECORD
  5
340
102
{ACAD_REACTORS
330
32C
102
}
330
32C
100
AcDbXrecord
 10
0.0
 20
0.0
 30
0.0
  0
XRECORD
  5
33E
102
{ACAD_REACTORS
330
32C
102
}
330
32C
100
AcDbXrecord
 10
0.0
 20
0.0
 30
0.0
  0
XRECORD
  5
33F
102
{ACAD_REACTORS
330
32C
102
}
330
32C
100
AcDbXrecord
 10
0.0
 20
0.0
 30
0.0
  0
XRECORD
  5
33C
102
{ACAD_REACTORS
330
32C
102
}
330
32C
100
AcDbXrecord
 10
0.0
 20
0.0
 30
0.0
  0
XRECORD
  5
339
102
{ACAD_REACTORS
330
32C
102
}
330
32C
100
AcDbXrecord
340
0
  0
XRECORD
  5
33A
102
{ACAD_REACTORS
330
32C
102
}
330
32C
100
AcDbXrecord
 70
     0
  0
XRECORD
  5
330
102
{ACAD_REACTORS
330
32C
102
}
330
32C
100
AcDbXrecord
  1

  0
XRECORD
  5
32D
102
{ACAD_REACTORS
330
32C
102
}
330
32C
100
AcDbXrecord
 90
        1
  0
XRECORD
  5
32E
102
{ACAD_REACTORS
330
32C
102
}
330
32C
100
AcDbXrecord
 90
       70
  0
XRECORD
  5
344
102
{ACAD_REACTORS
330
32C
102
}
330
32C
100
AcDbXrecord
340
0
  0
XRECORD
  5
34A
102
{ACAD_REACTORS
330
32C
102
}
330
32C
100
AcDbXrecord
 10
0.0
 20
0.0
 30
0.0
  0
XRECORD
  5
346
102
{ACAD_REACTORS
330
32C
102
}
330
32C
100
AcDbXrecord
 10
0.0
 20
0.0
 30
0.0
  0
XRECORD
  5
349
102
{ACAD_REACTORS
330
32C
102
}
330
32C
100
AcDbXrecord
 10
0.0
 20
0.0
 30
0.0
  0
XRECORD
  5
347
102
{ACAD_REACTORS
330
32C
102
}
330
32C
100
AcDbXrecord
 10
0.0
 20
0.0
 30
0.0
  0
XRECORD
  5
348
102
{ACAD_REACTORS
330
32C
102
}
330
32C
100
AcDbXrecord
 10
0.0
 20
0.0
 30
0.0
  0
XRECORD
  5
345
102
{ACAD_REACTORS
330
32C
102
}
330
32C
100
AcDbXrecord
 10
0.0
 20
0.0
 30
0.0
  0
XRECORD
  5
342
102
{ACAD_REACTORS
330
32C
102
}
330
32C
100
AcDbXrecord
340
0
  0
XRECORD
  5
343
102
{ACAD_REACTORS
330
32C
102
}
330
32C
100
AcDbXrecord
 70
     0
  0
XRECORD
  5
337
102
{ACAD_REACTORS
330
32C
102
}
330
32C
100
AcDbXrecord
  1
{FAEB1C32-E019-11D5-929B-00C0DF256EC4}
  0
ENDSEC
  0
EOF
